<svg xmlns="http://www.w3.org/2000/svg" width="29.551" height="33" viewBox="0 0 29.551 33">
  <g id="android" transform="translate(-98.462 -78.655)">
    <path id="Path_450" data-name="Path 450" d="M106.9,85.344l-2.263-4.559a1.487,1.487,0,0,1,.613-1.967,1.4,1.4,0,0,1,1.9.633l2.259,4.559Zm12.908,0-2.516-1.334,2.259-4.559a1.389,1.389,0,0,1,1.9-.633,1.48,1.48,0,0,1,.613,1.967ZM99.714,102.551a1.314,1.314,0,0,1-1.252-1.461V95.417a1.314,1.314,0,0,1,1.252-1.461c.78,0,1.187.656,1.187,1.461v5.674C100.9,101.9,100.494,102.551,99.714,102.551Zm27.172,0c-.78,0-1.187-.656-1.187-1.461V95.417c0-.805.408-1.461,1.187-1.461s1.127.656,1.127,1.461v5.674C128.013,101.9,127.665,102.551,126.886,102.551Zm-9.384,9.1c-.78,0-1.18-.656-1.18-1.461v-5.012l2.383,0v5.008C118.706,111,118.282,111.655,117.5,111.655Zm-8.368,0a1.387,1.387,0,0,1-1.349-1.461v-5.012l2.38,0v5.008C110.165,111,109.913,111.655,109.134,111.655ZM121.9,95.122h-17.31c-.78,0-1.414-.361-1.414-1.166s.635-1.139,1.414-1.139H121.9c.78,0,1.414.334,1.414,1.139S122.686,95.122,121.9,95.122Z" transform="translate(0 0)" fill="#fff"/>
    <path id="Path_451" data-name="Path 451" d="M220.694,187.883h-15.34a3.63,3.63,0,0,1-3.554-3.7V173.594a11.87,11.87,0,0,1,3.273-8.254,10.931,10.931,0,0,1,7.909-3.44l.017,1.169-.017-1.169a10.6,10.6,0,0,1,4.355.914,11.265,11.265,0,0,1,3.565,2.5,11.946,11.946,0,0,1,2.447,3.759,12.085,12.085,0,0,1,.9,4.594v10.511A3.628,3.628,0,0,1,220.694,187.883ZM213.082,164h-.029c-4.606.019-8.887,3.478-8.887,9.6l0,10.976a.73.73,0,0,0,.714.743l16.441.016a.73.73,0,0,0,.714-.743l0-10.9A9.358,9.358,0,0,0,213.082,164Z" transform="translate(-99.794 -80.263)" fill="#fff"/>
  </g>
</svg>
