<svg xmlns="http://www.w3.org/2000/svg" width="26.667" height="32" viewBox="0 0 26.667 32">
  <g id="apple" transform="translate(-145 -63.8)">
    <path id="Path_452" data-name="Path 452" d="M518,71.379h0a5.309,5.309,0,0,0,2.063-1.372,7.683,7.683,0,0,0,1.754-2.6,7.177,7.177,0,0,0,.546-2.572c0-.074-.007-.138-.011-.2s-.008-.108-.008-.164v-.019l0-.019c-.015-.082-.033-.171-.059-.275-.011-.045-.022-.089-.034-.138L522.2,63.8l-.219.052a7.536,7.536,0,0,0-4.709,2.8,8.584,8.584,0,0,0-1.468,4.825l0,.249.249-.026A9.69,9.69,0,0,0,518,71.379Z" transform="translate(-357.423)" fill="#fff"/>
    <path id="Path_453" data-name="Path 453" d="M171.452,297.387a5.527,5.527,0,0,1-2.845-2.212,6.609,6.609,0,0,1-1.25-3.935,6.153,6.153,0,0,1,1.177-3.642,11.751,11.751,0,0,1,2.1-2.1l.171-.141-.142-.169a9.506,9.506,0,0,0-2-1.863,7.259,7.259,0,0,0-4.132-1.222,11.046,11.046,0,0,0-3.322.627,9.068,9.068,0,0,1-2.609.609,12.016,12.016,0,0,1-2.533-.539,13.055,13.055,0,0,0-3.383-.55,6.853,6.853,0,0,0-3.053.68,7.346,7.346,0,0,0-2.46,2.025A10.859,10.859,0,0,0,145,291.9a15.781,15.781,0,0,0,.705,4.583,22.41,22.41,0,0,0,2.082,4.681c1.926,3.244,3.841,4.826,5.851,4.826a7.477,7.477,0,0,0,2.569-.623,7.233,7.233,0,0,1,2.577-.585,8.323,8.323,0,0,1,2.755.571h0a9.146,9.146,0,0,0,2.707.6c1.683,0,3.372-1.236,5.015-3.667a18.169,18.169,0,0,0,2.333-4.607l.069-.215Zm-4.339-11.072a8.246,8.246,0,0,0-1.592,4.91,8.73,8.73,0,0,0,1.668,5.206,8.818,8.818,0,0,0,2.075,2.1A16.567,16.567,0,0,1,168,301.16c-1.148,1.694-2.933,2.977-3.75,2.977a6.909,6.909,0,0,1-1.912-.454,10.514,10.514,0,0,0-3.554-.711,9.584,9.584,0,0,0-3.467.757,4.946,4.946,0,0,1-1.679.461c-1.054,0-2.75-.9-4.3-4.118a16.2,16.2,0,0,1-2.489-8.175,10.048,10.048,0,0,1,2-6.014,4.732,4.732,0,0,1,3.9-1.728,10.5,10.5,0,0,1,2.747.469,12.075,12.075,0,0,0,3.169.623,11.2,11.2,0,0,0,3.336-.722,8.95,8.95,0,0,1,2.595-.518,6.56,6.56,0,0,1,3.235,1.125c.058.042.113.078.167.12A9.559,9.559,0,0,0,167.113,286.316Z" transform="translate(0 -210.186)" fill="#fff"/>
  </g>
</svg>
