<svg width="20" height="18" viewBox="0 0 20 18" fill="none" xmlns="http://www.w3.org/2000/svg">
    <path fill-rule="evenodd" clip-rule="evenodd" d="M12.2124 5.21883C12.2124 7.68336 10.0489 9.65837 7.34933 9.65837C4.6507 9.65837 2.48631 7.68336 2.48631 5.21883C2.48631 2.75431 4.6507 0.779297 7.34933 0.779297C10.0489 0.779297 12.2124 2.75431 12.2124 5.21883ZM0 14.6853C0 12.4039 3.38553 11.8331 7.34933 11.8331C11.3347 11.8331 14.6987 12.4236 14.6987 14.7068C14.6987 16.9882 11.3131 17.559 7.34933 17.559C3.364 17.559 0 16.9685 0 14.6853ZM14.1734 5.29932C14.1734 6.55436 13.7605 7.72543 13.0364 8.6982C12.9611 8.79824 13.0276 8.93313 13.1587 8.95456C13.3407 8.98225 13.5276 8.99923 13.7184 9.0028C15.6167 9.04836 17.3202 7.93267 17.7908 6.25243C18.4885 3.75932 16.4415 1.5208 13.8339 1.5208C13.5511 1.5208 13.2801 1.5476 13.0159 1.59673C12.9797 1.60387 12.9405 1.61995 12.921 1.64854C12.8955 1.68516 12.9141 1.7325 12.9396 1.76377C13.7233 2.76691 14.1734 3.988 14.1734 5.29932ZM17.3173 10.756C18.5932 10.9838 19.4317 11.4474 19.7791 12.1236C20.0736 12.6774 20.0736 13.3206 19.7791 13.8744C19.2478 14.9213 17.5335 15.2581 16.8672 15.3447C16.7292 15.3626 16.6186 15.2554 16.6333 15.1286C16.9738 12.2272 14.2664 10.8516 13.5658 10.5354C13.5364 10.5202 13.5296 10.4988 13.5325 10.4845C13.5345 10.4755 13.5472 10.4612 13.5697 10.4586C15.0854 10.4318 16.7155 10.622 17.3173 10.756Z" fill="#DD7D00"/>
</svg>
