<svg xmlns="http://www.w3.org/2000/svg" width="20" height="18" viewBox="0 0 20 18">
  <g id="area_chart_1_" data-name="area chart(1)" transform="translate(-135.114 -184.482)">
    <path id="Path_1091" data-name="Path 1091" d="M154.906,200.932H136.648V184.685a.207.207,0,0,0-.207-.2h-1.118a.207.207,0,0,0-.208.2v17.591a.207.207,0,0,0,.208.2h19.583a.207.207,0,0,0,.208-.2v-1.141A.207.207,0,0,0,154.906,200.932Z" transform="translate(0 0)"/>
    <path id="Path_1092" data-name="Path 1092" d="M270.609,299.206l-1.082-.982-2.4-2.065-4.224,3.506v2.44h12.723v-7.152l-5.014,4.254ZM261.72,303.3a.21.21,0,0,1-.222-.195v-3.9a.179.179,0,0,1,.064-.135l5.248-4.615a.245.245,0,0,1,.314,0l3.484,3.019,5.841-5.118a.248.248,0,0,1,.242-.041.2.2,0,0,1,.138.179v10.611a.21.21,0,0,1-.222.195Z" transform="translate(-123.938 -104.596)"/>
  </g>
</svg>
