<svg xmlns="http://www.w3.org/2000/svg" width="43.231" height="43.231" viewBox="0 0 43.231 43.231">
  <g id="cc-pie-chart" transform="translate(-63.309 -63.39)">
    <path id="Path_393" data-name="Path 393" d="M82.649,196.3a19.34,19.34,0,0,1,0-38.681,1.138,1.138,0,0,1,1.138,1.138v17.065h17.065a1.14,1.14,0,0,1,1.138,1.138,19.345,19.345,0,0,1-19.34,19.34Zm-1.138-36.369A17.066,17.066,0,1,0,99.679,178.1H82.649a1.138,1.138,0,0,1-1.138-1.138V159.935Z" transform="translate(0 -89.683)" fill="#fff"/>
    <path id="Path_394" data-name="Path 394" d="M553.824,83.868h-18.2a1.138,1.138,0,0,1-1.138-1.138v-18.2a1.138,1.138,0,0,1,1.138-1.138,19.345,19.345,0,0,1,19.34,19.34A1.139,1.139,0,0,1,553.824,83.868Zm-17.065-2.275h15.892A17.1,17.1,0,0,0,536.759,65.7Z" transform="translate(-448.421)" fill="#fff"/>
  </g>
</svg>
