<svg xmlns="http://www.w3.org/2000/svg" xmlns:xlink="http://www.w3.org/1999/xlink" version="1.1" width="256" height="256" viewBox="0 0 256 256" xml:space="preserve">

<defs>
</defs>
<g style="stroke: none; stroke-width: 0; stroke-dasharray: none; stroke-linecap: butt; stroke-linejoin: miter; stroke-miterlimit: 10; fill: none; fill-rule: nonzero; opacity: 1;" transform="translate(1.4065934065934016 1.4065934065934016) scale(2.81 2.81)" >
	<path d="M 75.479 80.448 H 14.521 c -2.74 0 -4.969 -2.229 -4.969 -4.969 V 14.521 c 0 -2.74 2.229 -4.969 4.969 -4.969 h 60.958 c 2.74 0 4.969 2.229 4.969 4.969 v 60.958 C 80.448 78.22 78.22 80.448 75.479 80.448 z M 14.521 11.552 c -1.637 0 -2.969 1.332 -2.969 2.969 v 60.958 c 0 1.637 1.332 2.969 2.969 2.969 h 60.958 c 1.637 0 2.969 -1.332 2.969 -2.969 V 14.521 c 0 -1.637 -1.332 -2.969 -2.969 -2.969 H 14.521 z" style="stroke: none; stroke-width: 1; stroke-dasharray: none; stroke-linecap: butt; stroke-linejoin: miter; stroke-miterlimit: 10; fill: rgb(0,0,0); fill-rule: nonzero; opacity: 1;" transform=" matrix(1 0 0 1 0 0) " stroke-linecap="round" />
	<path d="M 23.297 11.552 c -0.552 0 -1 -0.448 -1 -1 V 1 c 0 -0.552 0.448 -1 1 -1 s 1 0.448 1 1 v 9.552 C 24.297 11.104 23.85 11.552 23.297 11.552 z" style="stroke: none; stroke-width: 1; stroke-dasharray: none; stroke-linecap: butt; stroke-linejoin: miter; stroke-miterlimit: 10; fill: rgb(0,0,0); fill-rule: nonzero; opacity: 1;" transform=" matrix(1 0 0 1 0 0) " stroke-linecap="round" />
	<path d="M 23.297 90 c -0.552 0 -1 -0.447 -1 -1 v -9.552 c 0 -0.553 0.448 -1 1 -1 s 1 0.447 1 1 V 89 C 24.297 89.553 23.85 90 23.297 90 z" style="stroke: none; stroke-width: 1; stroke-dasharray: none; stroke-linecap: butt; stroke-linejoin: miter; stroke-miterlimit: 10; fill: rgb(0,0,0); fill-rule: nonzero; opacity: 1;" transform=" matrix(1 0 0 1 0 0) " stroke-linecap="round" />
	<path d="M 66.703 11.552 c -0.553 0 -1 -0.448 -1 -1 V 1 c 0 -0.552 0.447 -1 1 -1 s 1 0.448 1 1 v 9.552 C 67.703 11.104 67.256 11.552 66.703 11.552 z" style="stroke: none; stroke-width: 1; stroke-dasharray: none; stroke-linecap: butt; stroke-linejoin: miter; stroke-miterlimit: 10; fill: rgb(0,0,0); fill-rule: nonzero; opacity: 1;" transform=" matrix(1 0 0 1 0 0) " stroke-linecap="round" />
	<path d="M 66.703 90 c -0.553 0 -1 -0.447 -1 -1 v -9.552 c 0 -0.553 0.447 -1 1 -1 s 1 0.447 1 1 V 89 C 67.703 89.553 67.256 90 66.703 90 z" style="stroke: none; stroke-width: 1; stroke-dasharray: none; stroke-linecap: butt; stroke-linejoin: miter; stroke-miterlimit: 10; fill: rgb(0,0,0); fill-rule: nonzero; opacity: 1;" transform=" matrix(1 0 0 1 0 0) " stroke-linecap="round" />
	<path d="M 37.766 11.552 c -0.552 0 -1 -0.448 -1 -1 V 1 c 0 -0.552 0.448 -1 1 -1 s 1 0.448 1 1 v 9.552 C 38.766 11.104 38.318 11.552 37.766 11.552 z" style="stroke: none; stroke-width: 1; stroke-dasharray: none; stroke-linecap: butt; stroke-linejoin: miter; stroke-miterlimit: 10; fill: rgb(0,0,0); fill-rule: nonzero; opacity: 1;" transform=" matrix(1 0 0 1 0 0) " stroke-linecap="round" />
	<path d="M 37.766 90 c -0.552 0 -1 -0.447 -1 -1 v -9.552 c 0 -0.553 0.448 -1 1 -1 s 1 0.447 1 1 V 89 C 38.766 89.553 38.318 90 37.766 90 z" style="stroke: none; stroke-width: 1; stroke-dasharray: none; stroke-linecap: butt; stroke-linejoin: miter; stroke-miterlimit: 10; fill: rgb(0,0,0); fill-rule: nonzero; opacity: 1;" transform=" matrix(1 0 0 1 0 0) " stroke-linecap="round" />
	<path d="M 52.234 11.552 c -0.553 0 -1 -0.448 -1 -1 V 1 c 0 -0.552 0.447 -1 1 -1 s 1 0.448 1 1 v 9.552 C 53.234 11.104 52.787 11.552 52.234 11.552 z" style="stroke: none; stroke-width: 1; stroke-dasharray: none; stroke-linecap: butt; stroke-linejoin: miter; stroke-miterlimit: 10; fill: rgb(0,0,0); fill-rule: nonzero; opacity: 1;" transform=" matrix(1 0 0 1 0 0) " stroke-linecap="round" />
	<path d="M 52.234 90 c -0.553 0 -1 -0.447 -1 -1 v -9.552 c 0 -0.553 0.447 -1 1 -1 s 1 0.447 1 1 V 89 C 53.234 89.553 52.787 90 52.234 90 z" style="stroke: none; stroke-width: 1; stroke-dasharray: none; stroke-linecap: butt; stroke-linejoin: miter; stroke-miterlimit: 10; fill: rgb(0,0,0); fill-rule: nonzero; opacity: 1;" transform=" matrix(1 0 0 1 0 0) " stroke-linecap="round" />
	<path d="M 10.552 67.703 H 1 c -0.552 0 -1 -0.447 -1 -1 s 0.448 -1 1 -1 h 9.552 c 0.552 0 1 0.447 1 1 S 11.104 67.703 10.552 67.703 z" style="stroke: none; stroke-width: 1; stroke-dasharray: none; stroke-linecap: butt; stroke-linejoin: miter; stroke-miterlimit: 10; fill: rgb(0,0,0); fill-rule: nonzero; opacity: 1;" transform=" matrix(1 0 0 1 0 0) " stroke-linecap="round" />
	<path d="M 89 67.703 h -9.552 c -0.553 0 -1 -0.447 -1 -1 s 0.447 -1 1 -1 H 89 c 0.553 0 1 0.447 1 1 S 89.553 67.703 89 67.703 z" style="stroke: none; stroke-width: 1; stroke-dasharray: none; stroke-linecap: butt; stroke-linejoin: miter; stroke-miterlimit: 10; fill: rgb(0,0,0); fill-rule: nonzero; opacity: 1;" transform=" matrix(1 0 0 1 0 0) " stroke-linecap="round" />
	<path d="M 10.552 24.297 H 1 c -0.552 0 -1 -0.448 -1 -1 s 0.448 -1 1 -1 h 9.552 c 0.552 0 1 0.448 1 1 S 11.104 24.297 10.552 24.297 z" style="stroke: none; stroke-width: 1; stroke-dasharray: none; stroke-linecap: butt; stroke-linejoin: miter; stroke-miterlimit: 10; fill: rgb(0,0,0); fill-rule: nonzero; opacity: 1;" transform=" matrix(1 0 0 1 0 0) " stroke-linecap="round" />
	<path d="M 89 24.297 h -9.552 c -0.553 0 -1 -0.448 -1 -1 s 0.447 -1 1 -1 H 89 c 0.553 0 1 0.448 1 1 S 89.553 24.297 89 24.297 z" style="stroke: none; stroke-width: 1; stroke-dasharray: none; stroke-linecap: butt; stroke-linejoin: miter; stroke-miterlimit: 10; fill: rgb(0,0,0); fill-rule: nonzero; opacity: 1;" transform=" matrix(1 0 0 1 0 0) " stroke-linecap="round" />
	<path d="M 10.552 53.234 H 1 c -0.552 0 -1 -0.447 -1 -1 s 0.448 -1 1 -1 h 9.552 c 0.552 0 1 0.447 1 1 S 11.104 53.234 10.552 53.234 z" style="stroke: none; stroke-width: 1; stroke-dasharray: none; stroke-linecap: butt; stroke-linejoin: miter; stroke-miterlimit: 10; fill: rgb(0,0,0); fill-rule: nonzero; opacity: 1;" transform=" matrix(1 0 0 1 0 0) " stroke-linecap="round" />
	<path d="M 89 53.234 h -9.552 c -0.553 0 -1 -0.447 -1 -1 s 0.447 -1 1 -1 H 89 c 0.553 0 1 0.447 1 1 S 89.553 53.234 89 53.234 z" style="stroke: none; stroke-width: 1; stroke-dasharray: none; stroke-linecap: butt; stroke-linejoin: miter; stroke-miterlimit: 10; fill: rgb(0,0,0); fill-rule: nonzero; opacity: 1;" transform=" matrix(1 0 0 1 0 0) " stroke-linecap="round" />
	<path d="M 10.552 38.766 H 1 c -0.552 0 -1 -0.448 -1 -1 s 0.448 -1 1 -1 h 9.552 c 0.552 0 1 0.448 1 1 S 11.104 38.766 10.552 38.766 z" style="stroke: none; stroke-width: 1; stroke-dasharray: none; stroke-linecap: butt; stroke-linejoin: miter; stroke-miterlimit: 10; fill: rgb(0,0,0); fill-rule: nonzero; opacity: 1;" transform=" matrix(1 0 0 1 0 0) " stroke-linecap="round" />
	<path d="M 89 38.766 h -9.552 c -0.553 0 -1 -0.448 -1 -1 s 0.447 -1 1 -1 H 89 c 0.553 0 1 0.448 1 1 S 89.553 38.766 89 38.766 z" style="stroke: none; stroke-width: 1; stroke-dasharray: none; stroke-linecap: butt; stroke-linejoin: miter; stroke-miterlimit: 10; fill: rgb(0,0,0); fill-rule: nonzero; opacity: 1;" transform=" matrix(1 0 0 1 0 0) " stroke-linecap="round" />
	<path d="M 66.149 70.5 H 23.85 c -2.398 0 -4.35 -1.951 -4.35 -4.351 V 23.85 c 0 -2.398 1.952 -4.35 4.35 -4.35 h 42.299 c 2.399 0 4.351 1.952 4.351 4.35 v 42.299 C 70.5 68.549 68.549 70.5 66.149 70.5 z M 23.85 21.5 c -1.296 0 -2.35 1.054 -2.35 2.35 v 42.299 c 0 1.296 1.054 2.351 2.35 2.351 h 42.299 c 1.296 0 2.351 -1.055 2.351 -2.351 V 23.85 c 0 -1.296 -1.055 -2.35 -2.351 -2.35 H 23.85 z" style="stroke: none; stroke-width: 1; stroke-dasharray: none; stroke-linecap: butt; stroke-linejoin: miter; stroke-miterlimit: 10; fill: rgb(0,0,0); fill-rule: nonzero; opacity: 1;" transform=" matrix(1 0 0 1 0 0) " stroke-linecap="round" />
	<path d="M 52.415 59.55 c -1.184 0.001 -2.474 -0.201 -3.843 -0.607 c -3.625 -1.077 -7.437 -3.485 -10.733 -6.781 c -0.59 -0.59 -1.161 -1.207 -1.698 -1.835 c -0.359 -0.419 -0.31 -1.051 0.11 -1.409 c 0.419 -0.359 1.051 -0.31 1.41 0.11 c 0.502 0.588 1.038 1.166 1.591 1.72 c 3.065 3.064 6.577 5.294 9.888 6.277 c 3.099 0.922 5.606 0.628 7.059 -0.824 c 1.482 -1.481 1.477 -3.748 1.211 -5.389 c -0.088 -0.546 0.282 -1.059 0.827 -1.147 c 0.555 -0.093 1.059 0.282 1.147 0.827 c 0.488 3.015 -0.125 5.478 -1.771 7.123 C 56.332 58.897 54.546 59.55 52.415 59.55 z" style="stroke: none; stroke-width: 1; stroke-dasharray: none; stroke-linecap: butt; stroke-linejoin: miter; stroke-miterlimit: 10; fill: rgb(0,0,0); fill-rule: nonzero; opacity: 1;" transform=" matrix(1 0 0 1 0 0) " stroke-linecap="round" />
	<path d="M 53.16 41.395 c -0.284 0 -0.565 -0.12 -0.763 -0.353 c -0.517 -0.607 -1.071 -1.209 -1.65 -1.789 c -6.072 -6.071 -13.833 -8.569 -16.948 -5.454 c -1.524 1.524 -1.482 3.873 -1.18 5.574 c 0.097 0.543 -0.265 1.063 -0.809 1.16 c -0.542 0.101 -1.063 -0.265 -1.16 -0.809 c -0.554 -3.111 0.045 -5.649 1.734 -7.338 c 4.015 -4.014 12.703 -1.62 19.776 5.454 c 0.617 0.618 1.209 1.259 1.76 1.908 c 0.358 0.421 0.307 1.052 -0.114 1.41 C 53.618 41.316 53.389 41.395 53.16 41.395 z" style="stroke: none; stroke-width: 1; stroke-dasharray: none; stroke-linecap: butt; stroke-linejoin: miter; stroke-miterlimit: 10; fill: rgb(0,0,0); fill-rule: nonzero; opacity: 1;" transform=" matrix(1 0 0 1 0 0) " stroke-linecap="round" />
	<path d="M 37.579 59.548 c -2.142 0 -3.916 -0.655 -5.193 -1.934 c -1.995 -1.995 -2.467 -5.206 -1.327 -9.042 c 1.077 -3.625 3.485 -7.437 6.781 -10.733 c 0.74 -0.74 1.517 -1.445 2.31 -2.097 c 0.426 -0.35 1.057 -0.289 1.408 0.138 c 0.35 0.427 0.289 1.057 -0.138 1.408 c -0.743 0.61 -1.471 1.271 -2.165 1.965 c -3.065 3.065 -5.294 6.577 -6.278 9.888 c -0.92 3.1 -0.628 5.606 0.824 7.059 c 1.441 1.442 3.63 1.47 5.207 1.239 c 0.547 -0.091 1.054 0.298 1.134 0.845 c 0.08 0.547 -0.299 1.055 -0.845 1.134 C 38.7 59.505 38.127 59.548 37.579 59.548 z" style="stroke: none; stroke-width: 1; stroke-dasharray: none; stroke-linecap: butt; stroke-linejoin: miter; stroke-miterlimit: 10; fill: rgb(0,0,0); fill-rule: nonzero; opacity: 1;" transform=" matrix(1 0 0 1 0 0) " stroke-linecap="round" />
	<path d="M 49.596 54.167 c -0.283 0 -0.564 -0.12 -0.762 -0.353 c -0.358 -0.421 -0.307 -1.052 0.114 -1.409 c 0.615 -0.523 1.221 -1.081 1.8 -1.659 c 6.07 -6.07 8.567 -13.832 5.452 -16.947 c -1.548 -1.546 -3.937 -1.485 -5.671 -1.162 c -0.553 0.105 -1.065 -0.257 -1.167 -0.799 c -0.101 -0.543 0.257 -1.065 0.8 -1.167 c 3.117 -0.582 5.766 0.025 7.452 1.713 c 4.016 4.016 1.62 12.702 -5.453 19.776 c -0.617 0.616 -1.262 1.211 -1.918 1.768 C 50.055 54.089 49.825 54.167 49.596 54.167 z" style="stroke: none; stroke-width: 1; stroke-dasharray: none; stroke-linecap: butt; stroke-linejoin: miter; stroke-miterlimit: 10; fill: rgb(0,0,0); fill-rule: nonzero; opacity: 1;" transform=" matrix(1 0 0 1 0 0) " stroke-linecap="round" />
	<path d="M 45 49.348 c -2.397 0 -4.348 -1.95 -4.348 -4.348 s 1.95 -4.348 4.348 -4.348 s 4.348 1.95 4.348 4.348 S 47.397 49.348 45 49.348 z M 45 42.652 c -1.294 0 -2.348 1.053 -2.348 2.348 c 0 1.295 1.053 2.348 2.348 2.348 c 1.295 0 2.348 -1.053 2.348 -2.348 C 47.348 43.706 46.295 42.652 45 42.652 z" style="stroke: none; stroke-width: 1; stroke-dasharray: none; stroke-linecap: butt; stroke-linejoin: miter; stroke-miterlimit: 10; fill: rgb(0,0,0); fill-rule: nonzero; opacity: 1;" transform=" matrix(1 0 0 1 0 0) " stroke-linecap="round" />
</g>
</svg>