<svg width="20" height="20" viewBox="0 0 20 20" fill="none" xmlns="http://www.w3.org/2000/svg">
<path d="M9.2301 5.48764V1.61686C9.2301 1.20528 9.5701 0.862305 10.0001 0.862305C10.3851 0.862305 10.7113 1.1505 10.763 1.51555L10.7701 1.61686V5.48764L15.55 5.48793C17.93 5.48793 19.8853 7.36968 19.9951 9.71649L20 9.92474V14.7903C20 17.1535 18.1127 19.0934 15.768 19.2023L15.56 19.2071H4.44C2.06 19.2071 0.11409 17.3348 0.00483778 14.9794L0 14.7703L0 9.91476C0 7.55151 1.87791 5.60223 4.22199 5.49278L4.43 5.48793H9.23V11.6695L7.63 10.0743C7.33 9.77518 6.84 9.77518 6.54 10.0743C6.39 10.2238 6.32 10.4233 6.32 10.6227C6.32 10.7742 6.3648 10.9321 6.45952 11.0658L6.54 11.1611L9.45 14.0724C9.59 14.222 9.79 14.3017 10 14.3017C10.1667 14.3017 10.3333 14.2463 10.4653 14.1413L10.54 14.0724L13.45 11.1611C13.75 10.8619 13.75 10.3734 13.45 10.0743C13.1773 9.80237 12.7475 9.77765 12.4462 10.0001L12.36 10.0743L10.77 11.6695V5.48793L9.2301 5.48764Z" fill="#129961"/>
</svg>
