<svg width="12" height="12" viewBox="0 0 12 12" fill="none" xmlns="http://www.w3.org/2000/svg">
<path d="M7 12H5C4.73478 12 4.48043 11.8946 4.29289 11.7071C4.10536 11.5196 4 11.2652 4 11V7.205L0.295 3.5C0.107206 3.31332 0.00111639 3.05979 0 2.795V1C0 0.734784 0.105357 0.48043 0.292893 0.292893C0.48043 0.105357 0.734784 0 1 0H11C11.2652 0 11.5196 0.105357 11.7071 0.292893C11.8946 0.48043 12 0.734784 12 1V2.795C11.9989 3.05979 11.8928 3.31332 11.705 3.5L8 7.205V11C8 11.2652 7.89464 11.5196 7.70711 11.7071C7.51957 11.8946 7.26522 12 7 12ZM1 1V2.795L5 6.795V11H7V6.795L11 2.795V1H1Z" fill="currentColor"/>
</svg>
