<svg width="40" height="40" viewBox="0 0 40 40" fill="none" xmlns="http://www.w3.org/2000/svg">
<rect width="40" height="40" rx="4" fill="#F3F2F1"/>
<path d="M26.3042 5H13.9666C12.6038 5 11.499 6.34315 11.499 8V32C11.499 33.6569 12.6038 35 13.9666 35H26.3042C27.667 35 28.7718 33.6569 28.7718 32V8C28.7718 6.34315 27.667 5 26.3042 5Z" stroke="#5B616E" stroke-linecap="round" stroke-linejoin="round"/>
<path d="M20.1357 32.2715H20.1512" stroke="#5B616E" stroke-width="1.81818" stroke-linecap="round" stroke-linejoin="round"/>
<line x1="11.499" y1="29.5" x2="28.7718" y2="29.5" stroke="#5B616E"/>
<line x1="11.499" y1="8.99947" x2="28.7718" y2="8.99947" stroke="#5B616E" stroke-width="1.09091"/>
<rect x="17.4082" y="6.36328" width="5.45455" height="0.454545" rx="0.227273" fill="#5B616E"/>
<rect x="14.6816" y="19.5459" width="1.81818" height="0.909091" rx="0.454545" fill="#5B616E"/>
<rect x="21.0459" y="19.5459" width="1.81818" height="0.909091" rx="0.454545" fill="#5B616E"/>
<rect x="17.8633" y="19.5459" width="1.81818" height="0.909091" rx="0.454545" fill="#5B616E"/>
<rect x="24.2275" y="19.5459" width="1.81818" height="0.909091" rx="0.454545" fill="#5B616E"/>
</svg>
