<svg width="20" height="24" viewBox="0 0 20 24" fill="none" xmlns="http://www.w3.org/2000/svg">
<path d="M6.79242 13.5154C6.79242 12.3659 7.73297 11.4253 8.88252 11.4253H8.95225V10.5893C8.95225 10.2758 9.23094 9.99714 9.54438 9.99714C9.85782 9.99714 10.1365 10.2758 10.1365 10.5893V11.4253H11.2513C11.5647 11.4253 11.8434 11.704 11.8434 12.0174C11.8434 12.3309 11.5647 12.6096 11.2513 12.6096H8.84775C8.3601 12.6096 7.94216 13.0275 7.94216 13.5152C7.94216 14.0028 8.36008 14.4208 8.84775 14.4208H10.2062C11.3557 14.4208 12.2963 15.3613 12.2963 16.5109C12.2963 17.6604 11.3558 18.601 10.2062 18.601H10.1715H10.1367H10.102V19.437C10.102 19.7505 9.8233 20.0291 9.50987 20.0291C9.19643 20.0291 8.91774 19.7504 8.91774 19.437V18.601H7.73349C7.42004 18.601 7.14136 18.3223 7.14136 18.0088C7.14136 17.6954 7.42005 17.4167 7.73349 17.4167H10.137H10.1718H10.2065C10.6942 17.4167 11.1121 16.9988 11.1121 16.5111C11.1121 16.0235 10.6942 15.6055 10.2065 15.6055H8.84803C7.733 15.6055 6.79242 14.665 6.79242 13.5154ZM0 20.8652V20.7954L1.39319 5.25995C1.42794 4.94651 1.67189 4.70257 1.98532 4.70257H4.87645C4.87645 2.12487 7.00126 0 9.57902 0C12.1568 0 14.2816 2.0901 14.2816 4.70257H17.1727C17.4862 4.70257 17.7301 4.94652 17.7648 5.25995L19.158 20.7954V20.8652C19.158 22.6068 17.5556 24 15.605 24H3.55283C1.6025 24.0002 6.2642e-05 22.6068 6.2642e-05 20.8652H0ZM6.09576 4.73753H13.0972C13.0972 2.82165 11.5298 1.25423 9.61388 1.25423C7.69826 1.25423 6.09582 2.78694 6.09582 4.73753H6.09576ZM1.18426 20.9C1.18426 21.945 2.26401 22.8159 3.55277 22.8159H15.605C16.8937 22.8159 17.9388 21.945 17.9735 20.9L16.6498 5.92184H14.2812V8.01194C14.2812 8.32538 14.0026 8.60407 13.6891 8.60407C13.3757 8.60407 13.097 8.32538 13.097 8.01194V5.92184H6.09557V8.01194C6.09557 8.32538 5.81688 8.60407 5.50344 8.60407C5.19 8.60407 4.91132 8.32538 4.91132 8.01194V5.92184H2.5428L1.18426 20.9Z" fill="#78A9FF"/>
</svg>
