<svg width="24" height="24" viewBox="0 0 24 24" fill="none" xmlns="http://www.w3.org/2000/svg">
<path d="M0 14.4883C1.42969 15.4961 3.67969 16 6.75 16C9.82031 16 12.0703 15.4961 13.5 14.4883V16C13.5 16.6094 12.832 17.1367 11.4961 17.582C10.1836 18.0273 8.60156 18.25 6.75 18.25C4.89844 18.25 3.30469 18.0273 1.96875 17.582C0.65625 17.1367 0 16.6094 0 16V14.4883ZM15.9961 4.08203C14.6836 4.52734 13.1016 4.75 11.25 4.75C9.39844 4.75 7.80469 4.52734 6.46875 4.08203C5.15625 3.63672 4.5 3.10937 4.5 2.5C4.5 1.89063 5.15625 1.36328 6.46875 0.917969C7.80469 0.472656 9.39844 0.25 11.25 0.25C13.1016 0.25 14.6836 0.472656 15.9961 0.917969C17.332 1.36328 18 1.89063 18 2.5C18 3.10937 17.332 3.63672 15.9961 4.08203ZM0 10.7969C0.703125 11.3828 1.66406 11.8398 2.88281 12.168C4.10156 12.4727 5.39062 12.625 6.75 12.625C7.64062 12.625 8.50781 12.5664 9.35156 12.4492C10.1953 12.3086 10.9805 12.0977 11.707 11.8164C12.4336 11.5352 13.0312 11.1953 13.5 10.7969V12.625C13.5 13.2344 12.832 13.7617 11.4961 14.207C10.1836 14.6523 8.60156 14.875 6.75 14.875C4.89844 14.875 3.30469 14.6523 1.96875 14.207C0.65625 13.7617 0 13.2344 0 12.625V10.7969ZM14.625 11.1836V8.96875C16.1016 8.71094 17.2266 8.30078 18 7.73828V9.25C18 9.46094 17.918 9.66016 17.7539 9.84766C17.5898 10.0352 17.3555 10.2227 17.0508 10.4102C16.7695 10.5742 16.418 10.7266 15.9961 10.8672C15.5977 10.9844 15.1406 11.0898 14.625 11.1836ZM1.96875 6.71875C3.28125 6.15625 4.875 5.875 6.75 5.875C8.625 5.875 10.2188 6.15625 11.5312 6.71875C12.8438 7.25781 13.5 7.91406 13.5 8.6875C13.5 9.46094 12.8438 10.1289 11.5312 10.6914C10.2188 11.2305 8.625 11.5 6.75 11.5C4.875 11.5 3.28125 11.2305 1.96875 10.6914C0.65625 10.1289 0 9.46094 0 8.6875C0 7.91406 0.65625 7.25781 1.96875 6.71875ZM14.4492 7.84375C14.168 7.04688 13.4648 6.37891 12.3398 5.83984C14.918 5.72266 16.8047 5.23047 18 4.36328V5.875C18 6.29688 17.6719 6.68359 17.0156 7.03516C16.3828 7.38672 15.5273 7.65625 14.4492 7.84375Z" fill="#31B6B5"/>
</svg>
