<svg width="25" height="24" viewBox="0 0 25 24" fill="none" xmlns="http://www.w3.org/2000/svg">
<circle cx="12.25" cy="12" r="11.25" stroke="#31B6B5" stroke-width="1.5"/>
<path d="M16.9154 10.0026C16.9154 10.9693 16.6287 11.8559 16.1354 12.5959C15.4154 13.6626 14.2754 14.4159 12.9487 14.6093C12.722 14.6493 12.4887 14.6693 12.2487 14.6693C12.0087 14.6693 11.7754 14.6493 11.5487 14.6093C10.222 14.4159 9.08203 13.6626 8.36203 12.5959C7.8687 11.8559 7.58203 10.9693 7.58203 10.0026C7.58203 7.4226 9.6687 5.33594 12.2487 5.33594C14.8287 5.33594 16.9154 7.4226 16.9154 10.0026Z" stroke="#31B6B5" stroke-width="1.5" stroke-linecap="round" stroke-linejoin="round"/>
<path d="M18.4174 16.311L17.3174 16.571C17.0707 16.631 16.8774 16.8177 16.824 17.0643L16.5907 18.0443C16.464 18.5777 15.784 18.7377 15.4307 18.3177L12.2507 14.6643L9.0707 18.3243C8.71737 18.7443 8.03737 18.5843 7.9107 18.051L7.67737 17.071C7.61737 16.8243 7.42404 16.631 7.18404 16.5777L6.08404 16.3177C5.57737 16.1977 5.39737 15.5643 5.76404 15.1977L8.36404 12.5977C9.08404 13.6643 10.224 14.4177 11.5507 14.611C11.7774 14.651 12.0107 14.671 12.2507 14.671C12.4907 14.671 12.724 14.651 12.9507 14.611C14.2774 14.4177 15.4174 13.6643 16.1374 12.5977L18.7374 15.1977C19.104 15.5577 18.924 16.191 18.4174 16.311Z" stroke="#31B6B5" stroke-width="1.5" stroke-linecap="round" stroke-linejoin="round"/>
<path d="M12.6353 7.98406L13.0287 8.77072C13.082 8.87739 13.222 8.98406 13.3487 9.00406L14.062 9.12406C14.5153 9.19739 14.622 9.53073 14.2953 9.85739L13.742 10.4107C13.6487 10.5041 13.5953 10.6841 13.6287 10.8174L13.7887 11.5041C13.9153 12.0441 13.6287 12.2574 13.1487 11.9707L12.482 11.5774C12.362 11.5041 12.162 11.5041 12.042 11.5774L11.3753 11.9707C10.8953 12.2507 10.6087 12.0441 10.7353 11.5041L10.8953 10.8174C10.922 10.6907 10.8753 10.5041 10.782 10.4107L10.2287 9.85739C9.90201 9.53073 10.0087 9.20406 10.462 9.12406L11.1753 9.00406C11.2953 8.98406 11.4353 8.87739 11.4887 8.77072L11.882 7.98406C12.0753 7.5574 12.422 7.5574 12.6353 7.98406Z" stroke="#31B6B5" stroke-width="1.5" stroke-linecap="round" stroke-linejoin="round"/>
</svg>
