<svg width="20" height="24" viewBox="0 0 20 24" fill="none" xmlns="http://www.w3.org/2000/svg">
<path d="M9.57699 4.32227H6.46116C3.89866 4.32227 2.29199 6.13643 2.29199 8.70477V15.6331C2.29199 18.2014 3.89116 20.0156 6.46116 20.0156H13.8145C16.3853 20.0156 17.9845 18.2014 17.9845 15.6331V12.2764" stroke="currentColor" stroke-width="1.3" stroke-linecap="round" stroke-linejoin="round"/>
<path fill-rule="evenodd" clip-rule="evenodd" d="M7.35652 11.0998L13.584 4.87227C14.3599 4.09727 15.6174 4.09727 16.3932 4.87227L17.4074 5.88643C18.1832 6.66227 18.1832 7.9206 17.4074 8.6956L11.1499 14.9531C10.8107 15.2923 10.3507 15.4831 9.87069 15.4831H6.74902L6.82736 12.3331C6.83902 11.8698 7.02819 11.4281 7.35652 11.0998Z" stroke="currentColor" stroke-width="1.3" stroke-linecap="round" stroke-linejoin="round"/>
<path d="M12.6377 5.83398L16.4427 9.63898" stroke="currentColor" stroke-width="1.3" stroke-linecap="round" stroke-linejoin="round"/>
</svg>
