<svg width="24" height="25" viewBox="0 0 24 25" fill="none" xmlns="http://www.w3.org/2000/svg">
<path d="M19.111 20.2191V18.4413C19.111 17.4983 18.7364 16.5939 18.0696 15.9271C17.4028 15.2603 16.4985 14.8857 15.5555 14.8857H8.44435C7.50136 14.8857 6.59699 15.2603 5.93019 15.9271C5.2634 16.5939 4.88879 17.4983 4.88879 18.4413V20.2191" fill="#0151FC"/>
<path d="M19.111 20.2191V18.4413C19.111 17.4983 18.7364 16.5939 18.0696 15.9271C17.4028 15.2603 16.4985 14.8857 15.5555 14.8857H8.44435C7.50136 14.8857 6.59699 15.2603 5.93019 15.9271C5.2634 16.5939 4.88879 17.4983 4.88879 18.4413V20.2191H19.111Z" stroke="#0151FC" stroke-linecap="round" stroke-linejoin="round"/>
<path d="M11.9999 11.3308C13.9636 11.3308 15.5554 9.73896 15.5554 7.77528C15.5554 5.8116 13.9636 4.21973 11.9999 4.21973C10.0362 4.21973 8.44434 5.8116 8.44434 7.77528C8.44434 9.73896 10.0362 11.3308 11.9999 11.3308Z" fill="#0151FC" stroke="#0151FC" stroke-linecap="round" stroke-linejoin="round"/>
</svg>
