<svg width="38" height="38" viewBox="0 0 38 38" fill="none" xmlns="http://www.w3.org/2000/svg">
<g style="mix-blend-mode:hard-light" filter="url(#filter0_f_221_910)">
<circle cx="19" cy="19" r="16" fill="url(#paint0_linear_221_910)" fill-opacity="0.2"/>
</g>
<g style="mix-blend-mode:hard-light" filter="url(#filter1_f_221_910)">
<path d="M20.2072 18.3188L20.2072 18.3188L32.3104 11.196C32.3334 11.1825 32.3476 11.1578 32.3478 11.1311C32.3481 11.1044 32.3342 11.0795 32.3114 11.0656L28.1741 8.54263C28.1501 8.52802 28.1201 8.5278 28.0959 8.54205L17.2415 14.9409L12.3787 12.079L23.0944 5.77295C23.1176 5.75929 23.1319 5.73435 23.1318 5.70741C23.1318 5.68047 23.1176 5.65554 23.0944 5.64188L19.0016 3.23475C18.9778 3.22076 18.9483 3.22076 18.9245 3.23476L5.61574 11.065C5.59252 11.0786 5.57826 11.1036 5.57826 11.1305V26.7925C5.57826 26.8194 5.59251 26.8443 5.61573 26.858L9.76377 29.2996C9.78728 29.3134 9.8164 29.3136 9.84008 29.3C9.86376 29.2865 9.87838 29.2613 9.87838 29.234V16.7038L14.719 19.552V32.178C14.719 32.205 14.7333 32.2299 14.7566 32.2436L18.9246 34.6898C18.9481 34.7036 18.9772 34.7038 19.0008 34.6902C19.0053 34.6877 19.0094 34.6847 19.0132 34.6814L32.3104 26.858C32.3336 26.8443 32.3478 26.8194 32.3478 26.7925V15.0448C32.3478 15.0175 32.3332 14.9924 32.3096 14.9788C32.2859 14.9653 32.2568 14.9654 32.2333 14.9793L23.0879 20.3585C23.0647 20.3722 23.0504 20.3971 23.0504 20.4241V24.3008C23.0504 24.3281 23.065 24.3533 23.0887 24.3668C23.1124 24.3804 23.1415 24.3802 23.165 24.3664L28.0692 21.4804V24.2793L19.0391 29.5925V19.0058L20.2072 18.3188Z" stroke="url(#paint1_linear_221_910)" stroke-width="0.152074" stroke-linejoin="round"/>
</g>
<g style="mix-blend-mode:hard-light" filter="url(#filter2_f_221_910)">
<path d="M20.3228 18.5154L20.3229 18.5154L32.4261 11.3926C32.5182 11.3384 32.5751 11.2398 32.5759 11.1329C32.5768 11.026 32.5214 10.9265 32.4302 10.8708L28.2929 8.34788C28.197 8.28943 28.0768 8.28853 27.9801 8.34554L17.2414 14.6762L12.8285 12.079L23.2101 5.96955C23.303 5.91489 23.36 5.81515 23.36 5.70738C23.3599 5.59961 23.3029 5.49989 23.21 5.44525L19.1172 3.03813C19.0221 2.98214 18.904 2.98215 18.8088 3.03815L5.50007 10.8684C5.40718 10.923 5.35015 11.0227 5.35015 11.1305V26.7925C5.35015 26.9002 5.40716 26.9999 5.50002 27.0546L9.64806 29.4961C9.7421 29.5515 9.85858 29.5522 9.95331 29.4981C10.048 29.4439 10.1065 29.3431 10.1065 29.234V17.1026L14.4909 19.6824V32.178C14.4909 32.2859 14.548 32.3857 14.6411 32.4403L18.8091 34.8865C18.9031 34.9417 19.0196 34.9424 19.1142 34.8882C19.1236 34.8828 19.1326 34.877 19.1413 34.8707L32.426 27.0546C32.5189 27 32.576 26.9002 32.576 26.7925V15.0448C32.576 14.9357 32.5175 14.835 32.4228 14.7808C32.3281 14.7266 32.2116 14.7273 32.1176 14.7827L22.9723 20.1619C22.8794 20.2166 22.8223 20.3163 22.8223 20.4241V24.3008C22.8223 24.4099 22.8808 24.5107 22.9755 24.5649C23.0702 24.619 23.1867 24.6183 23.2807 24.563L27.8411 21.8794V24.1488L19.2672 29.1936V19.1362L20.3228 18.5154Z" stroke="url(#paint2_linear_221_910)" stroke-width="0.608295" stroke-linejoin="round"/>
</g>
<g style="mix-blend-mode:hard-light" filter="url(#filter3_ddi_221_910)">
<path d="M20.2457 18.3844L20.2457 18.3843L32.3489 11.2616C32.395 11.2344 32.4235 11.1851 32.4239 11.1317C32.4243 11.0782 32.3966 11.0285 32.351 11.0007L28.2137 8.47772C28.1658 8.44849 28.1056 8.44804 28.0573 8.47655L17.2414 14.8527L12.5286 12.079L23.1329 5.83848C23.1794 5.81115 23.2079 5.76129 23.2079 5.7074C23.2079 5.65351 23.1794 5.60365 23.1329 5.57634L19.0401 3.16921C18.9926 3.14122 18.9335 3.14122 18.8859 3.16922L5.57718 10.9994C5.53074 11.0268 5.50222 11.0766 5.50222 11.1305V26.7925C5.50222 26.8463 5.53073 26.8962 5.57716 26.9235L9.7252 29.3651C9.77222 29.3928 9.83046 29.3931 9.87782 29.366C9.92519 29.339 9.95441 29.2886 9.95441 29.234V16.8367L14.643 19.5954V32.178C14.643 32.2319 14.6715 32.2818 14.7181 32.3091L18.8861 34.7554C18.9331 34.783 18.9913 34.7833 19.0386 34.7562C19.0451 34.7525 19.0512 34.7484 19.0569 34.7439L32.3489 26.9235C32.3954 26.8962 32.4239 26.8464 32.4239 26.7925V15.0448C32.4239 14.9903 32.3947 14.9399 32.3473 14.9128C32.3 14.8857 32.2417 14.8861 32.1947 14.9137L23.0494 20.293C23.0029 20.3203 22.9744 20.3702 22.9744 20.4241V24.3008C22.9744 24.3554 23.0036 24.4058 23.051 24.4328C23.0983 24.4599 23.1566 24.4596 23.2036 24.4319L27.9932 21.6134V24.2358L19.1151 29.4595V19.0493L20.2457 18.3844Z" stroke="url(#paint3_linear_221_910)" stroke-opacity="0.2" stroke-width="0.304147" stroke-linejoin="round"/>
</g>
<g filter="url(#filter4_f_221_910)">
<path d="M20.2438 18.3811L20.2438 18.3811L32.347 11.2583C32.3919 11.2318 32.4197 11.1838 32.4201 11.1317C32.4205 11.0795 32.3935 11.031 32.349 11.0039L28.2117 8.48096C28.165 8.45247 28.1064 8.45203 28.0592 8.47982L17.2414 14.8571L12.5211 12.079L23.131 5.83521C23.1763 5.80856 23.2041 5.75994 23.2041 5.7074C23.2041 5.65486 23.1763 5.60625 23.131 5.57961L19.0382 3.17249C18.9918 3.14519 18.9343 3.1452 18.8879 3.1725L5.57911 11.0027C5.53383 11.0293 5.50602 11.078 5.50602 11.1305V26.7925C5.50602 26.845 5.53382 26.8936 5.57908 26.9202L9.72713 29.3618C9.77297 29.3888 9.82976 29.3891 9.87594 29.3627C9.92212 29.3363 9.95061 29.2872 9.95061 29.234V16.8301L14.6468 19.5933V32.178C14.6468 32.2306 14.6746 32.2792 14.72 32.3059L18.888 34.7521C18.9339 34.779 18.9906 34.7793 19.0367 34.7529C19.0431 34.7493 19.0491 34.7452 19.0548 34.7407L32.347 26.9203C32.3923 26.8936 32.4201 26.845 32.4201 26.7925V15.0448C32.4201 14.9916 32.3916 14.9425 32.3454 14.9161C32.2993 14.8897 32.2425 14.89 32.1966 14.917L23.0513 20.2963C23.006 20.3229 22.9782 20.3715 22.9782 20.4241V24.3008C22.9782 24.354 23.0067 24.4031 23.0529 24.4295C23.099 24.4559 23.1558 24.4556 23.2017 24.4286L27.997 21.6068V24.2379L19.1113 29.4662V19.0471L20.2438 18.3811Z" stroke="url(#paint4_linear_221_910)" stroke-width="0.296544" stroke-linejoin="round"/>
</g>
<g filter="url(#filter5_f_221_910)">
<path d="M20.2062 18.3172L20.2062 18.3172L32.3094 11.1944C32.3319 11.1812 32.3457 11.1571 32.3459 11.1311C32.3461 11.105 32.3327 11.0808 32.3104 11.0672L28.1731 8.54426C28.1497 8.53001 28.1204 8.52979 28.0969 8.54369L17.2415 14.9431L12.375 12.079L23.0934 5.77131C23.1161 5.75799 23.1299 5.73368 23.1299 5.70741C23.1299 5.68114 23.116 5.65683 23.0934 5.64352L19.0006 3.23639C18.9774 3.22274 18.9487 3.22275 18.9255 3.2364L5.6167 11.0666C5.59406 11.0799 5.58016 11.1042 5.58016 11.1305V26.7925C5.58016 26.8187 5.59406 26.843 5.61669 26.8564L9.76473 29.2979C9.78766 29.3114 9.81605 29.3116 9.83914 29.2984C9.86223 29.2852 9.87648 29.2606 9.87648 29.234V16.7004L14.7209 19.5509V32.178C14.7209 32.2043 14.7348 32.2286 14.7575 32.2419L18.9255 34.6882C18.9485 34.7016 18.9768 34.7018 18.9999 34.6886C19.0043 34.6861 19.0084 34.6831 19.0121 34.6798L32.3094 26.8564C32.332 26.843 32.3459 26.8187 32.3459 26.7925V15.0448C32.3459 15.0182 32.3317 14.9937 32.3086 14.9805C32.2855 14.9673 32.2571 14.9674 32.2342 14.9809L23.0889 20.3602C23.0662 20.3735 23.0523 20.3978 23.0523 20.4241V24.3008C23.0523 24.3274 23.0666 24.352 23.0897 24.3652C23.1127 24.3784 23.1411 24.3782 23.1641 24.3647L28.0711 21.4771V24.2803L19.0372 29.5958V19.0047L20.2062 18.3172Z" stroke="white" stroke-width="0.148272" stroke-linejoin="round"/>
</g>
<defs>
<filter id="filter0_f_221_910" x="0.775922" y="0.775922" width="36.4482" height="36.4482" filterUnits="userSpaceOnUse" color-interpolation-filters="sRGB">
<feFlood flood-opacity="0" result="BackgroundImageFix"/>
<feBlend mode="normal" in="SourceGraphic" in2="BackgroundImageFix" result="shape"/>
<feGaussianBlur stdDeviation="1.11204" result="effect1_foregroundBlur_221_910"/>
</filter>
<filter id="filter1_f_221_910" x="3.27787" y="0.924359" width="31.37" height="36.0761" filterUnits="userSpaceOnUse" color-interpolation-filters="sRGB">
<feFlood flood-opacity="0" result="BackgroundImageFix"/>
<feBlend mode="normal" in="SourceGraphic" in2="BackgroundImageFix" result="shape"/>
<feGaussianBlur stdDeviation="1.11204" result="effect1_foregroundBlur_221_910"/>
</filter>
<filter id="filter2_f_221_910" x="4.30454" y="1.95054" width="29.3167" height="34.0232" filterUnits="userSpaceOnUse" color-interpolation-filters="sRGB">
<feFlood flood-opacity="0" result="BackgroundImageFix"/>
<feBlend mode="normal" in="SourceGraphic" in2="BackgroundImageFix" result="shape"/>
<feGaussianBlur stdDeviation="0.37068" result="effect1_foregroundBlur_221_910"/>
</filter>
<filter id="filter3_ddi_221_910" x="4.38682" y="2.77369" width="29.1531" height="33.8597" filterUnits="userSpaceOnUse" color-interpolation-filters="sRGB">
<feFlood flood-opacity="0" result="BackgroundImageFix"/>
<feColorMatrix in="SourceAlpha" type="matrix" values="0 0 0 0 0 0 0 0 0 0 0 0 0 0 0 0 0 0 127 0" result="hardAlpha"/>
<feOffset dy="0.481884"/>
<feGaussianBlur stdDeviation="0.18534"/>
<feColorMatrix type="matrix" values="0 0 0 0 0 0 0 0 0 0 0 0 0 0 0 0 0 0 0.7 0"/>
<feBlend mode="multiply" in2="BackgroundImageFix" result="effect1_dropShadow_221_910"/>
<feColorMatrix in="SourceAlpha" type="matrix" values="0 0 0 0 0 0 0 0 0 0 0 0 0 0 0 0 0 0 127 0" result="hardAlpha"/>
<feOffset dy="0.741359"/>
<feGaussianBlur stdDeviation="0.481884"/>
<feColorMatrix type="matrix" values="0 0 0 0 0.509804 0 0 0 0 0.356863 0 0 0 0 0.972549 0 0 0 1 0"/>
<feBlend mode="color-dodge" in2="effect1_dropShadow_221_910" result="effect2_dropShadow_221_910"/>
<feBlend mode="normal" in="SourceGraphic" in2="effect2_dropShadow_221_910" result="shape"/>
<feColorMatrix in="SourceAlpha" type="matrix" values="0 0 0 0 0 0 0 0 0 0 0 0 0 0 0 0 0 0 127 0" result="hardAlpha"/>
<feOffset dx="-0.0481884" dy="0.0963767"/>
<feGaussianBlur stdDeviation="0.0240942"/>
<feComposite in2="hardAlpha" operator="arithmetic" k2="-1" k3="1"/>
<feColorMatrix type="matrix" values="0 0 0 0 1 0 0 0 0 1 0 0 0 0 1 0 0 0 0.5 0"/>
<feBlend mode="normal" in2="shape" result="effect3_innerShadow_221_910"/>
</filter>
<filter id="filter4_f_221_910" x="5.28329" y="2.92977" width="27.3592" height="32.0653" filterUnits="userSpaceOnUse" color-interpolation-filters="sRGB">
<feFlood flood-opacity="0" result="BackgroundImageFix"/>
<feBlend mode="normal" in="SourceGraphic" in2="BackgroundImageFix" result="shape"/>
<feGaussianBlur stdDeviation="0.037068" result="effect1_foregroundBlur_221_910"/>
</filter>
<filter id="filter5_f_221_910" x="5.45644" y="3.10243" width="27.0129" height="31.7195" filterUnits="userSpaceOnUse" color-interpolation-filters="sRGB">
<feFlood flood-opacity="0" result="BackgroundImageFix"/>
<feBlend mode="normal" in="SourceGraphic" in2="BackgroundImageFix" result="shape"/>
<feGaussianBlur stdDeviation="0.024712" result="effect1_foregroundBlur_221_910"/>
</filter>
<linearGradient id="paint0_linear_221_910" x1="3" y1="25.2222" x2="34.5423" y2="8.01686" gradientUnits="userSpaceOnUse">
<stop stop-color="#01CCF3"/>
<stop offset="0.375" stop-color="#478FFA"/>
<stop offset="0.6875" stop-color="#825BF8"/>
<stop offset="1" stop-color="#F966D5"/>
</linearGradient>
<linearGradient id="paint1_linear_221_910" x1="5.6543" y1="25.053" x2="33.677" y2="12.0642" gradientUnits="userSpaceOnUse">
<stop stop-color="#01CCF3"/>
<stop offset="0.375" stop-color="#478FFA"/>
<stop offset="0.6875" stop-color="#825BF8"/>
<stop offset="1" stop-color="#F966D5"/>
</linearGradient>
<linearGradient id="paint2_linear_221_910" x1="5.6543" y1="25.053" x2="33.677" y2="12.0642" gradientUnits="userSpaceOnUse">
<stop stop-color="#01CCF3"/>
<stop offset="0.375" stop-color="#478FFA"/>
<stop offset="0.6875" stop-color="#825BF8"/>
<stop offset="1" stop-color="#F966D5"/>
</linearGradient>
<linearGradient id="paint3_linear_221_910" x1="5.6543" y1="25.053" x2="33.677" y2="12.0642" gradientUnits="userSpaceOnUse">
<stop stop-color="#01CCF3"/>
<stop offset="0.375" stop-color="#478FFA"/>
<stop offset="0.6875" stop-color="#825BF8"/>
<stop offset="1" stop-color="#F966D5"/>
</linearGradient>
<linearGradient id="paint4_linear_221_910" x1="5.6543" y1="25.053" x2="33.677" y2="12.0642" gradientUnits="userSpaceOnUse">
<stop stop-color="#01CCF3"/>
<stop offset="0.375" stop-color="#478FFA"/>
<stop offset="0.6875" stop-color="#825BF8"/>
<stop offset="1" stop-color="#F966D5"/>
</linearGradient>
</defs>
</svg>
