<svg width="80" height="81" viewBox="0 0 80 81" fill="none" xmlns="http://www.w3.org/2000/svg">
<circle cx="40" cy="32.2812" r="16" fill="#0151FC"/>
<path d="M48.0325 34.2784H44.6589C43.4202 34.2777 42.4162 33.2744 42.4154 32.0357C42.4154 30.797 43.4202 29.7937 44.6589 29.793H48.0325" stroke="white" stroke-width="1.2" stroke-linecap="round" stroke-linejoin="round"/>
<path d="M45.0405 31.9833H44.7808" stroke="white" stroke-width="1.2" stroke-linecap="round" stroke-linejoin="round"/>
<path fill-rule="evenodd" clip-rule="evenodd" d="M36.4564 24.7812H43.6593C46.0744 24.7812 48.0323 26.7392 48.0323 29.1543V35.1352C48.0323 37.5503 46.0744 39.5082 43.6593 39.5082H36.4564C34.0413 39.5082 32.0834 37.5503 32.0834 35.1352V29.1543C32.0834 26.7392 34.0413 24.7812 36.4564 24.7812Z" stroke="white" stroke-width="1.2" stroke-linecap="round" stroke-linejoin="round"/>
<path d="M35.863 28.5633H40.3622" stroke="white" stroke-width="1.2" stroke-linecap="round" stroke-linejoin="round"/>
<path d="M21.8994 55.1426H24.0234C24.9447 55.1426 25.6396 55.276 26.1084 55.543C26.5771 55.8099 26.8115 56.2705 26.8115 56.9248C26.8115 57.1982 26.7627 57.4456 26.665 57.667C26.5706 57.8851 26.4323 58.0658 26.25 58.209C26.0677 58.349 25.8431 58.4434 25.5762 58.4922V58.541C25.8529 58.5898 26.0986 58.6761 26.3135 58.7998C26.5316 58.9235 26.7025 59.1009 26.8262 59.332C26.9531 59.5632 27.0166 59.8626 27.0166 60.2305C27.0166 60.6667 26.9124 61.0378 26.7041 61.3438C26.499 61.6497 26.2044 61.8825 25.8203 62.042C25.4395 62.2015 24.987 62.2812 24.4629 62.2812H21.8994V55.1426ZM23.0713 58.0869H24.1943C24.7249 58.0869 25.0928 58.0007 25.2979 57.8281C25.5029 57.6556 25.6055 57.4033 25.6055 57.0713C25.6055 56.7327 25.4834 56.4886 25.2393 56.3389C24.9984 56.1891 24.6143 56.1143 24.0869 56.1143H23.0713V58.0869ZM23.0713 59.0342V61.2998H24.3066C24.8535 61.2998 25.2376 61.194 25.459 60.9824C25.6803 60.7708 25.791 60.4844 25.791 60.123C25.791 59.9017 25.7406 59.7096 25.6396 59.5469C25.542 59.3841 25.3809 59.2588 25.1562 59.1709C24.9316 59.0798 24.6289 59.0342 24.248 59.0342H23.0713ZM30.4932 56.7734C31.1768 56.7734 31.6927 56.9248 32.041 57.2275C32.3926 57.5303 32.5684 58.0023 32.5684 58.6436V62.2812H31.7529L31.5332 61.5146H31.4941C31.3411 61.71 31.1833 61.8711 31.0205 61.998C30.8577 62.125 30.6689 62.2194 30.4541 62.2812C30.2425 62.3464 29.9837 62.3789 29.6777 62.3789C29.3555 62.3789 29.0674 62.3203 28.8135 62.2031C28.5596 62.0827 28.3594 61.9004 28.2129 61.6562C28.0664 61.4121 27.9932 61.1029 27.9932 60.7285C27.9932 60.1719 28.1999 59.7536 28.6133 59.4736C29.0299 59.1937 29.6582 59.0391 30.498 59.0098L31.4355 58.9756V58.6924C31.4355 58.318 31.3477 58.0511 31.1719 57.8916C30.9993 57.7321 30.7552 57.6523 30.4395 57.6523C30.1693 57.6523 29.9072 57.6914 29.6533 57.7695C29.3994 57.8477 29.152 57.9437 28.9111 58.0576L28.54 57.2471C28.8037 57.1071 29.1032 56.9932 29.4385 56.9053C29.777 56.8174 30.1286 56.7734 30.4932 56.7734ZM31.4307 59.6982L30.7324 59.7227C30.1595 59.7422 29.7575 59.8398 29.5264 60.0156C29.2952 60.1914 29.1797 60.4323 29.1797 60.7383C29.1797 61.0052 29.2594 61.2005 29.4189 61.3242C29.5785 61.4447 29.7884 61.5049 30.0488 61.5049C30.446 61.5049 30.7747 61.3926 31.0352 61.168C31.2988 60.9401 31.4307 60.6064 31.4307 60.167V59.6982ZM35.3271 62.2812H34.1748V54.6836H35.3271V62.2812ZM39.0869 56.7734C39.7705 56.7734 40.2865 56.9248 40.6348 57.2275C40.9863 57.5303 41.1621 58.0023 41.1621 58.6436V62.2812H40.3467L40.127 61.5146H40.0879C39.9349 61.71 39.777 61.8711 39.6143 61.998C39.4515 62.125 39.2627 62.2194 39.0479 62.2812C38.8363 62.3464 38.5775 62.3789 38.2715 62.3789C37.9492 62.3789 37.6611 62.3203 37.4072 62.2031C37.1533 62.0827 36.9531 61.9004 36.8066 61.6562C36.6602 61.4121 36.5869 61.1029 36.5869 60.7285C36.5869 60.1719 36.7936 59.7536 37.207 59.4736C37.6237 59.1937 38.252 59.0391 39.0918 59.0098L40.0293 58.9756V58.6924C40.0293 58.318 39.9414 58.0511 39.7656 57.8916C39.5931 57.7321 39.349 57.6523 39.0332 57.6523C38.763 57.6523 38.501 57.6914 38.2471 57.7695C37.9932 57.8477 37.7458 57.9437 37.5049 58.0576L37.1338 57.2471C37.3975 57.1071 37.6969 56.9932 38.0322 56.9053C38.3708 56.8174 38.7223 56.7734 39.0869 56.7734ZM40.0244 59.6982L39.3262 59.7227C38.7533 59.7422 38.3512 59.8398 38.1201 60.0156C37.889 60.1914 37.7734 60.4323 37.7734 60.7383C37.7734 61.0052 37.8532 61.2005 38.0127 61.3242C38.1722 61.4447 38.3822 61.5049 38.6426 61.5049C39.0397 61.5049 39.3685 61.3926 39.6289 61.168C39.8926 60.9401 40.0244 60.6064 40.0244 60.167V59.6982ZM45.5859 56.7734C46.1947 56.7734 46.6683 56.9313 47.0068 57.2471C47.3486 57.5596 47.5195 58.0625 47.5195 58.7559V62.2812H46.3721V58.9707C46.3721 58.5508 46.2858 58.2367 46.1133 58.0283C45.9408 57.8167 45.6738 57.7109 45.3125 57.7109C44.7884 57.7109 44.4238 57.8721 44.2188 58.1943C44.0169 58.5166 43.916 58.9837 43.916 59.5957V62.2812H42.7686V56.876H43.6621L43.8232 57.6084H43.8867C44.0039 57.4196 44.1488 57.265 44.3213 57.1445C44.4971 57.0208 44.6924 56.9281 44.9072 56.8662C45.1253 56.8044 45.3516 56.7734 45.5859 56.7734ZM51.3037 62.3789C50.7926 62.3789 50.3499 62.2796 49.9756 62.0811C49.6012 61.8825 49.3132 61.5781 49.1113 61.168C48.9095 60.7578 48.8086 60.237 48.8086 59.6055C48.8086 58.9479 48.9193 58.4108 49.1406 57.9941C49.362 57.5775 49.668 57.2699 50.0586 57.0713C50.4525 56.8727 50.9033 56.7734 51.4111 56.7734C51.7334 56.7734 52.0247 56.806 52.2852 56.8711C52.5488 56.9329 52.7718 57.0094 52.9541 57.1006L52.6123 58.0186C52.4137 57.9372 52.2103 57.8688 52.002 57.8135C51.7936 57.7581 51.5934 57.7305 51.4014 57.7305C51.0856 57.7305 50.8219 57.8005 50.6104 57.9404C50.402 58.0804 50.2458 58.2887 50.1416 58.5654C50.0407 58.8421 49.9902 59.1855 49.9902 59.5957C49.9902 59.9928 50.0423 60.3281 50.1465 60.6016C50.2507 60.8717 50.4053 61.0768 50.6104 61.2168C50.8154 61.3535 51.0677 61.4219 51.3672 61.4219C51.6634 61.4219 51.9287 61.3861 52.1631 61.3145C52.3975 61.2428 52.6188 61.1501 52.8271 61.0361V62.0322C52.6221 62.1494 52.4023 62.2357 52.168 62.291C51.9336 62.3496 51.6455 62.3789 51.3037 62.3789ZM56.25 56.7734C56.7318 56.7734 57.1452 56.8727 57.4902 57.0713C57.8353 57.2699 58.1006 57.5514 58.2861 57.916C58.4717 58.2806 58.5645 58.7168 58.5645 59.2246V59.8398H54.9561C54.9691 60.3639 55.109 60.7676 55.376 61.0508C55.6462 61.334 56.0238 61.4756 56.5088 61.4756C56.8538 61.4756 57.1631 61.443 57.4365 61.3779C57.7132 61.3096 57.998 61.2103 58.291 61.0801V62.0127C58.0208 62.1396 57.7458 62.2324 57.4658 62.291C57.1859 62.3496 56.8506 62.3789 56.46 62.3789C55.9294 62.3789 55.4622 62.2764 55.0586 62.0713C54.6582 61.863 54.3441 61.5537 54.1162 61.1436C53.8916 60.7334 53.7793 60.224 53.7793 59.6152C53.7793 59.0098 53.8818 58.4954 54.0869 58.0723C54.292 57.6491 54.5801 57.3268 54.9512 57.1055C55.3223 56.8841 55.7552 56.7734 56.25 56.7734ZM56.25 57.6377C55.8887 57.6377 55.5957 57.7549 55.3711 57.9893C55.1497 58.2236 55.0195 58.5671 54.9805 59.0195H57.4414C57.4382 58.7493 57.3926 58.5101 57.3047 58.3018C57.2201 58.0934 57.0898 57.9307 56.9141 57.8135C56.7415 57.6963 56.5202 57.6377 56.25 57.6377Z" fill="#0151FC"/>
</svg>
