<svg width="24" height="24" viewBox="0 0 24 24" fill="none" xmlns="http://www.w3.org/2000/svg">
<circle cx="12" cy="12" r="11.25" stroke="#31B6B5" stroke-width="1.5"/>
<path d="M17.5508 7.5C18.207 8.0651 18.6445 8.73958 18.8633 9.52344C19.082 10.2891 19.0911 11.0273 18.8906 11.7383C18.6901 12.4492 18.3438 13.0599 17.8516 13.5703L13.0664 18.4375C12.7747 18.7292 12.4284 18.875 12.0273 18.875C11.6263 18.875 11.2799 18.7292 10.9883 18.4375L6.20312 13.5703C5.71094 13.0599 5.36458 12.4492 5.16406 11.7383C4.96354 11.0091 4.97266 10.2617 5.19141 9.49609C5.41016 8.73047 5.84766 8.0651 6.50391 7.5C7.28776 6.84375 8.20833 6.5612 9.26562 6.65234C10.3411 6.72526 11.2617 7.14453 12.0273 7.91016C12.793 7.14453 13.7044 6.72526 14.7617 6.65234C15.8372 6.5612 16.7669 6.84375 17.5508 7.5ZM16.9219 12.6406C17.4505 12.0938 17.7148 11.4284 17.7148 10.6445C17.7148 9.84245 17.3867 9.13151 16.7305 8.51172C16.1836 8.07422 15.5456 7.88281 14.8164 7.9375C14.1055 7.99219 13.4948 8.28385 12.9844 8.8125L12.0273 9.76953L11.0703 8.8125C10.5599 8.28385 9.9401 7.99219 9.21094 7.9375C8.5 7.88281 7.87109 8.07422 7.32422 8.51172C6.66797 9.13151 6.33984 9.84245 6.33984 10.6445C6.33984 11.4284 6.60417 12.0938 7.13281 12.6406L11.9453 17.5078C12 17.5807 12.0547 17.5807 12.1094 17.5078L16.9219 12.6406Z" fill="#31B6B5"/>
</svg>
