<svg width="14" height="13" viewBox="0 0 14 13" fill="none" xmlns="http://www.w3.org/2000/svg">
<path d="M1.69531 7.54687H6.16309V12.0146C6.16309 12.4687 6.53662 12.8496 6.99805 12.8496C7.45947 12.8496 7.83301 12.4687 7.83301 12.0146V7.54687H12.3008C12.7549 7.54687 13.1357 7.17334 13.1357 6.71191C13.1357 6.25049 12.7549 5.87695 12.3008 5.87695H7.83301V1.40918C7.83301 0.955078 7.45947 0.574219 6.99805 0.574219C6.53662 0.574219 6.16309 0.955078 6.16309 1.40918V5.87695H1.69531C1.24121 5.87695 0.860352 6.25049 0.860352 6.71191C0.860352 7.17334 1.24121 7.54687 1.69531 7.54687Z" fill="#5B616E"/>
</svg>

