<svg width="16" height="24" viewBox="0 0 16 24" fill="none" xmlns="http://www.w3.org/2000/svg">
<path d="M9.84846 5.3843L8.78402 5.16907L8.26357 4.21415V4.21433C8.19579 4.09361 8.06931 4.01779 7.93095 4.01465C7.79346 4.01692 7.66716 4.09116 7.59832 4.21031L7.06621 5.15736L6.00176 5.34132C5.86584 5.36822 5.75421 5.46483 5.70827 5.59568C5.66197 5.73125 5.69342 5.88149 5.79038 5.98701L6.52602 6.76966L6.39307 7.86921C6.38277 8.00495 6.44356 8.13615 6.55362 8.21599C6.66385 8.29583 6.80746 8.31277 6.93307 8.26054L7.91925 7.81054L8.89756 8.27628C8.95067 8.29951 9.00797 8.31157 9.0658 8.31157C9.16957 8.31157 9.26915 8.27034 9.34252 8.19697C9.41589 8.12342 9.45712 8.02401 9.45712 7.92024C9.46306 7.88128 9.46306 7.84163 9.45712 7.80285L9.33972 6.79712L10.0871 6.01447H10.0873C10.1856 5.90965 10.2186 5.75941 10.1732 5.62314C10.1175 5.48967 9.99259 5.39775 9.84846 5.3843ZM8.62364 6.41364C8.54642 6.49698 8.50939 6.60983 8.52197 6.72269L8.58835 7.29796L8.07176 7.05146H8.07193C8.0211 7.02525 7.96467 7.0118 7.90754 7.01233C7.85216 7.0125 7.79748 7.02456 7.747 7.04744L7.22656 7.29796L7.30098 6.73436C7.31583 6.62081 7.28001 6.50638 7.20315 6.4213L6.81182 6.00255L7.37542 5.90088H7.37525C7.48636 5.87799 7.58209 5.80811 7.63747 5.70923L7.91926 5.21223L8.18934 5.71308C8.24472 5.81195 8.34046 5.88183 8.45139 5.9049L9.01097 6.01845L8.62364 6.41364Z" fill="#FFBB33"/>
<path d="M2.68331 9.67304L2.47979 9.5125C2.3133 9.38374 2.07466 9.4096 1.9398 9.5712C1.81175 9.73873 1.83952 9.97754 2.00234 10.1114L2.24884 10.2992C2.31435 10.3448 2.39209 10.3694 2.47193 10.3696C2.59579 10.3687 2.71197 10.3091 2.78499 10.2092C2.90187 10.0324 2.85679 9.79462 2.68331 9.67304Z" fill="#FFBB33"/>
<path d="M13.4369 9.51251L13.2217 9.67288V9.67305C13.0522 9.79831 13.0124 10.0354 13.1317 10.2092C13.2047 10.3091 13.3209 10.3687 13.4448 10.3696C13.5246 10.3694 13.6024 10.3448 13.6679 10.2992L13.9144 10.1114C14.0772 9.97754 14.105 9.73873 13.9769 9.5712C13.842 9.4096 13.6034 9.38375 13.4369 9.51251Z" fill="#FFBB33"/>
<path d="M15.9142 5.07936V4.81714C15.9432 4.32747 15.7739 3.84652 15.4446 3.48279C15.1746 3.21637 14.8141 3.06124 14.4351 3.04849H12.6192V2.15613H13.0458C13.1496 2.15613 13.2492 2.1149 13.3226 2.04153C13.3959 1.96816 13.4372 1.86858 13.4372 1.76481V0.391325C13.4372 0.287554 13.3959 0.187975 13.3226 0.114602C13.2492 0.04123 13.1496 0 13.0458 0H2.79716C2.58106 0 2.40583 0.175224 2.40583 0.391325V1.77268C2.40583 1.87645 2.44706 1.97603 2.52043 2.0494C2.59398 2.12277 2.69339 2.164 2.79716 2.164H3.21975L3.21993 3.04849H1.48236C1.10326 3.06124 0.742864 3.21637 0.472782 3.48279C0.143475 3.84651 -0.0257879 4.32747 0.00319248 4.81714V5.07936C0.00319248 5.95602 -0.028079 7.58769 0.973633 9.03559L1.10676 9.21955C1.18048 9.31301 1.29281 9.36769 1.41195 9.36839C1.49651 9.36839 1.57897 9.34079 1.64675 9.29012C1.81219 9.15858 1.84328 8.91959 1.71715 8.74996C1.67802 8.69913 1.63889 8.64829 1.60359 8.59343C0.74268 7.35291 0.758423 5.93627 0.770095 5.07151V4.79758C0.770095 3.86627 1.36093 3.80353 1.47833 3.79972H3.2159V7.35309C3.21415 8.52357 3.6495 9.65265 4.43688 10.5188C4.19038 10.4405 3.95557 10.3584 3.73634 10.2644C3.64008 10.1979 3.51884 10.178 3.40633 10.2101C3.29365 10.2422 3.20141 10.3233 3.15477 10.4307C3.10829 10.5382 3.11231 10.661 3.16577 10.7651C3.21923 10.8694 3.31671 10.944 3.43114 10.9688C4.05341 11.2293 4.70136 11.4234 5.36437 11.5479C5.47146 12.423 6.01934 13.1822 6.81612 13.5594V13.5869C6.82346 13.8564 6.75707 14.1228 6.62395 14.3573C6.49083 14.5918 6.29604 14.7855 6.06089 14.9174C5.76198 14.9914 5.49698 15.1644 5.30883 15.4079C5.12051 15.6516 5.02023 15.9518 5.0239 16.2596V16.4357H3.56428C3.28808 16.4357 3.02304 16.5445 2.82671 16.7386C2.63052 16.9329 2.51854 17.1967 2.51557 17.4727V22.9512C2.51662 23.229 2.62738 23.4953 2.82374 23.6916C3.02028 23.8882 3.28635 23.9989 3.56431 24H12.2633C12.5429 24.0021 12.8116 23.8925 13.01 23.6956C13.2083 23.4988 13.3199 23.2308 13.3199 22.9512V17.4727C13.3189 17.1939 13.2069 16.9269 13.0086 16.7309C12.8103 16.5347 12.5421 16.4257 12.2633 16.4278H10.8193V16.2517C10.8229 15.9434 10.722 15.6429 10.533 15.3992C10.3439 15.1555 10.078 14.9829 9.77843 14.9095C9.54329 14.7776 9.3485 14.5841 9.21537 14.3495C9.08225 14.115 9.01587 13.8486 9.0232 13.579V13.5516C9.81055 13.176 10.3551 12.4283 10.4711 11.5637C11.1624 11.439 11.8381 11.2397 12.4864 10.9689C12.64 10.8626 12.6971 10.6628 12.6228 10.4914C12.5486 10.32 12.3636 10.225 12.1812 10.2645C11.915 10.3759 11.6433 10.4739 11.3671 10.558C12.1728 9.6911 12.6215 8.55205 12.6234 7.36869V3.8155H14.4352C14.5564 3.8155 15.1553 3.88206 15.1475 4.81336V5.08729C15.1475 5.93648 15.1749 7.35312 14.314 8.60921C14.2787 8.66407 14.2395 8.7149 14.2004 8.76574C14.0743 8.9352 14.1054 9.17436 14.2708 9.30572C14.3386 9.35656 14.421 9.38399 14.5056 9.38399C14.6247 9.38346 14.7371 9.32878 14.8108 9.23532L14.9439 9.04752C15.9456 7.5879 15.9261 5.95605 15.9144 5.0794L15.9142 5.07936ZM3.18029 0.774787H12.6544V1.38919H3.18029V0.774787ZM12.5529 17.4725V22.9511C12.5529 23.1044 12.4285 23.2288 12.2749 23.2288H3.56425C3.48982 23.2299 3.4182 23.201 3.36527 23.149C3.31233 23.0968 3.28246 23.0255 3.28246 22.951V17.4725C3.28246 17.3168 3.40859 17.1907 3.56425 17.1907H12.2633C12.3396 17.1876 12.4141 17.2159 12.4687 17.2692C12.5236 17.3224 12.554 17.396 12.5529 17.4725L12.5529 17.4725ZM10.0522 16.4238H5.78679V16.2477C5.77351 15.9285 6.01948 15.6579 6.33849 15.6412H9.4965C9.8162 15.6579 10.0634 15.9279 10.0522 16.2477V16.4238ZM8.6473 14.8585H7.17601C7.3984 14.5301 7.53327 14.1501 7.56734 13.7549C7.79934 13.7914 8.03572 13.7914 8.26787 13.7549C8.29618 14.1557 8.42685 14.5423 8.64732 14.878L8.6473 14.8585ZM7.91953 13.0348C7.53082 13.0333 7.15311 12.9063 6.84215 12.6729C6.53137 12.4396 6.30392 12.1124 6.19385 11.7396C7.30146 12.1767 8.53375 12.1767 9.64136 11.7396C9.53252 12.1124 9.30594 12.4398 8.99565 12.6734C8.68538 12.9068 8.30786 13.0336 7.91953 13.0348ZM7.91953 11.3013C6.88357 11.2952 5.89179 10.881 5.15928 10.1483C4.42676 9.41578 4.01236 8.424 4.00628 7.38804V2.15592H11.8484V7.36837C11.8537 8.41238 11.4414 9.41515 10.7036 10.1537C9.96569 10.8922 8.96345 11.3054 7.91944 11.3012L7.91953 11.3013Z" fill="#FFBB33"/>
<path d="M4.61642 18.8456H11.218C11.4341 18.8456 11.6093 18.6706 11.6093 18.4543C11.6093 18.2382 11.4341 18.063 11.218 18.063H4.61642C4.40032 18.063 4.2251 18.2382 4.2251 18.4543C4.2251 18.6706 4.40032 18.8456 4.61642 18.8456Z" fill="#FFBB33"/>
<path d="M8.84653 19.8789H6.98776C6.77166 19.8789 6.59644 20.0541 6.59644 20.2702C6.59644 20.4863 6.77166 20.6616 6.98776 20.6616H8.84653C9.06263 20.6616 9.23786 20.4863 9.23786 20.2702C9.23786 20.0541 9.06263 19.8789 8.84653 19.8789Z" fill="#FFBB33"/>
<path d="M8.06001 21.5581H7.77438C7.55828 21.5581 7.38306 21.7332 7.38306 21.9494C7.38306 22.1655 7.55828 22.3408 7.77438 22.3408H8.06001C8.27629 22.3408 8.45134 22.1655 8.45134 21.9494C8.45134 21.7332 8.27629 21.5581 8.06001 21.5581Z" fill="#FFBB33"/>
<path d="M5.72768 19.8789H5.53586C5.31976 19.8789 5.14453 20.0541 5.14453 20.2702C5.14453 20.4863 5.31976 20.6616 5.53586 20.6616H5.72768C5.94378 20.6616 6.119 20.4863 6.119 20.2702C6.119 20.0541 5.94378 19.8789 5.72768 19.8789Z" fill="#FFBB33"/>
<path d="M10.3065 19.8789H10.1147C9.89861 19.8789 9.72339 20.0541 9.72339 20.2702C9.72339 20.4863 9.89861 20.6616 10.1147 20.6616H10.3065C10.5226 20.6616 10.6979 20.4863 10.6979 20.2702C10.6979 20.0541 10.5226 19.8789 10.3065 19.8789Z" fill="#FFBB33"/>
</svg>
