<svg width="64" height="64" viewBox="0 0 64 64" fill="none" xmlns="http://www.w3.org/2000/svg">
<path d="M49.9263 21.3059C49.6956 20.6906 49.3879 20.0754 48.9265 19.614C48.4651 19.0756 47.9267 18.6911 47.3115 18.4604C46.6962 18.1527 46.0041 18.0758 45.3888 18.0758H35.2372C33.8528 18.0758 32.4685 17.5375 31.5456 16.5377L29.4692 14.4612C28.5463 13.5383 27.3158 13 26.0084 13H16.7027C15.3953 13 14.1648 13.5383 13.2419 14.4612C12.319 15.3841 11.7807 16.6146 11.7807 17.922L11.8576 20.1523V20.2292V20.3061C11.2423 21.229 10.9347 22.3826 11.0116 23.4593L12.6267 41.1478C12.7036 42.3783 13.3188 43.455 14.1648 44.3009C15.0877 45.1469 16.2413 45.5314 17.4718 45.5314H32.8531V43.3781H17.4718C16.7796 43.3781 16.1643 43.1473 15.626 42.6859C15.0877 42.2245 14.78 41.6092 14.78 40.9171L13.165 23.2286C13.165 22.844 13.165 22.4595 13.3188 22.075C13.4726 21.6904 13.6264 21.3828 13.8572 21.0752C14.0879 20.7676 14.3955 20.5368 14.78 20.4599C15.0877 20.3061 15.4722 20.2292 15.8567 20.2292H45.235C45.6195 20.2292 46.0041 20.3061 46.3117 20.4599C46.6962 20.6137 47.0039 20.8445 47.2346 21.0752C47.4653 21.3828 47.696 21.6904 47.7729 22.075C47.8498 22.3826 47.9267 22.6902 47.9267 22.9978C47.9267 23.0747 47.9267 23.1517 47.9267 23.2286L47.3115 30.3809H49.4649L50.0801 23.4593C50.2339 22.6133 50.157 21.9212 49.9263 21.3059ZM15.9336 17.9989C15.3184 17.9989 14.78 18.0758 14.2417 18.3065L14.011 18.3835V18.1527V17.7682C14.011 17.076 14.3186 16.3839 14.8569 15.8455C15.3953 15.3072 16.0105 15.0765 16.7796 15.0765H26.0853C26.7774 15.0765 27.5465 15.3841 28.0079 15.8455L29.7768 17.6144L30.1613 17.9989H15.9336Z" fill="#5B616E" stroke="#F0F5FF" stroke-width="0.59449"/>
<path d="M50.9263 46.2236L43.3894 38.7637L41.9282 40.3018L49.4651 47.7617L50.9263 46.2236Z" fill="#5B616E"/>
<path d="M53.8486 48.2238L48.0037 42.3789C48.0037 42.3789 47.9268 42.3789 47.8499 42.3789L45.6196 44.6092C45.6196 44.6092 45.6196 44.6861 45.6196 44.763L51.4645 50.6079C51.4645 50.6079 51.5414 50.6079 51.6183 50.6079L53.8486 48.3776C53.8486 48.3776 53.8486 48.3007 53.8486 48.2238Z" fill="#5B616E"/>
<path fill-rule="evenodd" clip-rule="evenodd" d="M46.0811 33.1502C46.0811 38.3798 41.8512 42.5328 36.6985 42.5328C31.5458 42.5328 27.3159 38.3029 27.3159 33.1502C27.3159 27.9974 31.5458 23.7676 36.6985 23.7676C41.8512 23.7676 46.0811 27.9205 46.0811 33.1502ZM44.543 33.1502C44.543 37.5338 41.0053 40.9946 36.6985 40.9946C32.3148 40.9946 28.854 37.4569 28.854 33.1502C28.854 28.8434 32.3917 25.3057 36.6985 25.3057C41.0053 25.2288 44.543 28.7665 44.543 33.1502Z" fill="#5B616E"/>
</svg>
