<svg width="24" height="24" viewBox="0 0 24 24" fill="none" xmlns="http://www.w3.org/2000/svg">
<path d="M14.2815 14.9503V16.457H17.8147C20.1802 16.457 21.6267 15.0558 21.6267 13.1423C21.6267 11.5452 20.7151 10.257 19.216 9.66183C19.2235 6.2567 16.7676 3.80078 13.611 3.80078C11.6071 3.80078 10.1004 4.83287 9.15876 6.19643C7.35826 5.75195 5.23382 7.11551 5.15848 9.23996C3.43331 9.53376 2.37109 10.9651 2.37109 12.7882C2.37109 14.8147 3.91546 16.457 6.42411 16.457H9.6861V14.9503H6.42411C4.78181 14.9503 3.89286 13.971 3.89286 12.7581C3.89286 11.3493 4.81948 10.3624 6.35631 10.3624C6.46931 10.3624 6.51451 10.3022 6.50698 10.1967C6.46177 7.95173 8.06641 7.22852 9.6861 7.70313C9.78404 7.72573 9.84431 7.71066 9.88951 7.62779C10.6127 6.30943 11.7352 5.29994 13.6035 5.29994C15.969 5.29994 17.6565 7.17578 17.7695 9.36802C17.7921 9.7673 17.762 10.2118 17.7319 10.5734C17.7168 10.6789 17.762 10.7391 17.8599 10.7542C19.2386 11.0179 20.1049 11.8164 20.1049 13.0745C20.1049 14.1744 19.3365 14.9503 17.7846 14.9503H14.2815ZM11.9838 21.0675C12.1722 21.0675 12.3304 20.9997 12.5187 20.8265L15.0499 18.4459C15.1855 18.3253 15.2533 18.1822 15.2533 18.0014C15.2533 17.6473 14.9671 17.3912 14.6205 17.3912C14.4473 17.3912 14.274 17.4665 14.1459 17.6021L13.0988 18.6568L12.6166 19.2143L12.692 18.0993V11.6356C12.692 11.2665 12.3756 10.9425 11.9838 10.9425C11.5996 10.9425 11.2757 11.2665 11.2757 11.6356V18.0993L11.3585 19.2143L10.8689 18.6568L9.82171 17.6021C9.69364 17.4665 9.52037 17.3912 9.3471 17.3912C9.00056 17.3912 8.72182 17.6473 8.72182 18.0014C8.72182 18.1822 8.78209 18.3253 8.91769 18.4459L11.4489 20.8265C11.6373 20.9997 11.803 21.0675 11.9838 21.0675Z" fill="#0151FC"/>
</svg>

