<svg width="19" height="24" viewBox="0 0 19 24" fill="none" xmlns="http://www.w3.org/2000/svg">
<path d="M9.11538 24C8.50235 24 7.89065 23.9423 7.28848 23.8266C3.10096 22.9783 0.068253 19.3296 0 15.0576C0 11.8653 1.5866 9.95151 3 8.25935C4.41357 6.56693 5.51927 5.2305 4.92315 3.01889C4.85792 2.7615 5.01403 2.49991 5.27142 2.4347C5.40221 2.4015 5.54105 2.42514 5.6539 2.49959C7.25072 3.58082 8.49744 5.10471 9.24045 6.8841C9.24045 6.8841 9.24045 6.94178 9.34626 6.95134C9.4145 6.94916 9.47336 6.90204 9.4908 6.83597C9.99772 4.76194 9.72036 2.57368 8.7119 0.691484C8.62705 0.521959 8.64969 0.318896 8.76958 0.17216C8.89115 0.0267813 9.08717 -0.0334188 9.26976 0.0182303C10.984 0.612504 12.5352 1.60046 13.7985 2.90284C15.8269 4.86454 18.2693 8.61464 18.2693 15.0283C18.2674 17.6927 17.0712 20.2155 15.0094 21.9034C13.3495 23.2683 11.2644 24.0099 9.11518 23.9996L9.11538 24ZM8.81742 15.5864C8.06736 16.1248 6.7308 17.5096 6.7308 20.6058C6.7308 21.9332 7.80697 23.0097 9.13468 23.0097C10.4624 23.0097 11.5386 21.9332 11.5386 20.6058C11.4552 19.7976 11.083 19.0464 10.4907 18.4904C9.73282 17.6523 9.16254 16.6625 8.81746 15.5865L8.81742 15.5864ZM6.07699 4.04779C6.12512 6.03816 4.97112 7.43246 3.75008 8.85556C2.37493 10.5382 0.961535 12.2114 0.961535 15.0576C1.02123 18.4692 3.20092 21.4824 6.42306 22.6058C5.99565 22.0266 5.76625 21.3252 5.76929 20.6056C5.76929 15.721 8.82695 14.4513 8.95208 14.3942C9.08304 14.3333 9.23428 14.3333 9.36558 14.3942C9.49234 14.4644 9.58071 14.5882 9.60603 14.7305C9.85001 15.9048 10.4122 16.9892 11.2314 17.8655C11.9799 18.5896 12.4323 19.5665 12.5003 20.6058C12.5003 21.3144 12.2748 22.0051 11.8561 22.577C12.7904 22.2653 13.6602 21.7864 14.4235 21.1635C16.2531 19.6522 17.3115 17.402 17.3081 15.0284C17.3078 5.8267 12.2887 2.41319 10.0484 1.34604C10.7825 3.18046 10.9171 5.19985 10.4332 7.11536C10.3065 7.58939 9.88505 7.92525 9.39478 7.94238C8.92358 7.97625 8.48895 7.6875 8.33703 7.24044C7.85295 6.00395 7.07792 4.90211 6.07734 4.02886V4.04798L6.07699 4.04779Z" fill="url(#paint0_linear_822_81939)"/>
<defs>
<linearGradient id="paint0_linear_822_81939" x1="9.13464" y1="0" x2="9.13464" y2="24" gradientUnits="userSpaceOnUse">
<stop stop-color="#FCC22D"/>
<stop offset="1" stop-color="#F01D00"/>
</linearGradient>
</defs>
</svg>
