<svg width="29" height="25" viewBox="0 0 29 25" fill="none" xmlns="http://www.w3.org/2000/svg">
<path d="M25.3406 16.8997L20.7255 20.9448C19.1677 22.4922 15.2747 23.0641 14.5054 23.0641H14.4999H9.8599C9.13005 23.0598 8.23818 22.7589 7.5399 22.4657V23.0461H2.8999V13.8386H7.5399V14.5151C7.88994 14.3906 8.30277 14.2598 8.75281 14.1463C8.69989 14.0963 8.65069 14.0419 8.60603 13.9826C8.03783 13.2279 9.1006 11.7765 8.94376 11.3962C8.71315 10.8387 7.35199 10.336 7.35199 9.3179C7.35199 8.29982 8.71313 7.79706 8.94376 7.2396C9.10058 6.85976 8.03801 5.4081 8.60603 4.6534C9.23992 3.81152 10.7686 3.93862 11.0273 3.65447C11.3613 3.28734 11.1712 1.73096 12.0326 1.24685C12.8587 0.804761 14.2343 1.68157 14.6335 1.58245C15.2975 1.32392 15.6576 0 16.7259 0C17.7943 0 18.1543 1.32393 18.8183 1.58213C19.2176 1.68123 20.5931 0.804407 21.4193 1.24652C22.2807 1.73096 22.0904 3.28717 22.4246 3.65414C22.6835 3.93826 24.2121 3.81117 24.8462 4.65307C25.4141 5.40744 24.3516 6.85909 24.5085 7.23928C24.7391 7.79673 26.1002 8.29949 26.1002 9.31757C26.1002 10.3357 24.7391 10.8384 24.5085 11.3959C24.3997 11.6596 24.8769 12.4384 24.9901 13.1422C25.7965 13.7041 26.8348 15.4645 25.3406 16.8997ZM6.3796 14.9917H4.0596V21.8928H6.3796V14.9917ZM10.0158 10.9585C10.3752 11.8393 9.64002 12.8414 9.60005 13.3521C9.94961 13.5931 10.7123 13.5889 11.3266 13.8383H15.6592C17.2932 13.8383 18.1891 15.391 17.9296 16.6208C19.6894 15.419 21.8601 13.4403 21.8601 13.4403C22.3915 12.9314 23.0317 12.7031 23.6498 12.7121C23.4459 12.1966 23.1934 11.5502 23.4349 10.9583C23.7211 10.2576 24.745 9.66785 24.9404 9.31743C24.745 8.96703 23.7211 8.37757 23.4349 7.67691C23.0754 6.79606 23.8105 5.79392 23.8504 5.28313C23.3801 4.95879 22.1622 5.07897 21.5636 4.42785C20.9704 3.76888 21.0543 2.50561 20.8647 2.27925C20.2722 2.26059 19.259 2.97571 18.3945 2.65588C17.4531 2.24498 17.0909 1.33166 16.7257 1.15308C16.3603 1.33166 15.998 2.24501 15.0564 2.65588C14.1919 2.97556 13.1789 2.26059 12.5862 2.27925C12.3964 2.50578 12.4804 3.76904 11.8873 4.42785C11.2887 5.07897 10.0707 4.95879 9.60032 5.28313C9.6403 5.79392 10.3752 6.79606 10.0161 7.67691C9.72962 8.37757 8.70588 8.96735 8.51055 9.31743C8.70571 9.668 9.72919 10.2576 10.0158 10.9585ZM24.5054 14.2405C23.8512 13.5687 23.1286 13.8251 22.6658 14.2709C22.6658 14.2709 20.3898 16.271 18.5661 17.6176C18.5661 17.6176 17.4038 18.4346 15.6593 18.4513H10.9841V17.2981H15.6589C16.2989 17.2981 16.8189 16.7805 16.8189 16.1449C16.8189 15.5092 16.2989 14.9917 15.6589 14.9917H11.0193C9.68714 14.9917 8.3166 15.4417 7.53931 15.7472V21.2048C8.27223 21.547 9.24195 21.9075 9.86611 21.911H14.504C15.2188 21.911 18.7418 21.2882 19.9585 20.08L24.5737 16.0354C25.0831 15.5437 25.0717 14.825 24.5054 14.2405ZM15.6593 18.4513C15.6776 18.4513 15.6412 18.4518 15.6593 18.4513V18.4513Z" fill="#DD7D00"/>
<path d="M15 9.83571C15 10.5863 15.5803 11.1898 16.2922 11.1898H17.7469C18.3659 11.1898 18.8689 10.6637 18.8689 10.0059C18.8689 9.3018 18.5594 9.04646 18.1029 8.88397L15.7738 8.07149C15.3173 7.909 15.0077 7.66139 15.0077 6.94951C15.0077 6.29953 15.5107 5.76562 16.1297 5.76562H17.5844C18.2963 5.76562 18.8767 6.36917 18.8767 7.11974" stroke="#DD7D00" stroke-linecap="round" stroke-linejoin="round"/>
<path d="M16.9331 5V11.964" stroke="#DD7D00" stroke-linecap="round" stroke-linejoin="round"/>
</svg>
