<svg width="24" height="24" viewBox="0 0 24 24" fill="none" xmlns="http://www.w3.org/2000/svg">
<g clip-path="url(#clip0_994_25790)">
<path d="M12 24C18.6274 24 24 18.6274 24 12C24 5.37258 18.6274 0 12 0C5.37258 0 0 5.37258 0 12C0 18.6274 5.37258 24 12 24Z" fill="url(#paint0_linear_994_25790)"/>
<path d="M12 23.8018C18.518 23.8018 23.8018 18.518 23.8018 12C23.8018 5.48208 18.518 0.198242 12 0.198242C5.48208 0.198242 0.198242 5.48208 0.198242 12C0.198242 18.518 5.48208 23.8018 12 23.8018Z" fill="url(#paint1_linear_994_25790)"/>
<path d="M18.583 18.5835C22.2189 14.9476 22.2189 9.05266 18.583 5.41678C14.9471 1.78091 9.05222 1.78091 5.41634 5.41679C1.78047 9.05266 1.78047 14.9476 5.41634 18.5835C9.05222 22.2193 14.9471 22.2193 18.583 18.5835Z" fill="url(#paint2_linear_994_25790)"/>
<path d="M11.9999 21.0604C17.0038 21.0604 21.0603 17.0039 21.0603 12C21.0603 6.99606 17.0038 2.93958 11.9999 2.93958C6.99594 2.93958 2.93945 6.99606 2.93945 12C2.93945 17.0039 6.99594 21.0604 11.9999 21.0604Z" fill="url(#paint3_linear_994_25790)"/>
<path d="M12.0002 20.84C16.8824 20.84 20.8402 16.8822 20.8402 12C20.8402 7.11784 16.8824 3.16003 12.0002 3.16003C7.11796 3.16003 3.16016 7.11784 3.16016 12C3.16016 16.8822 7.11796 20.84 12.0002 20.84Z" fill="url(#paint4_linear_994_25790)"/>
<g style="mix-blend-mode:overlay" opacity="0.37">
<path d="M23.5389 9.51481C22.3976 4.19134 17.6648 0.19873 11.9993 0.19873C6.33376 0.19873 1.60101 4.19134 0.459961 9.51481C3.56999 7.766 7.59855 6.71065 11.9993 6.71065C16.4 6.71065 20.4288 7.766 23.5389 9.51481Z" fill="#F7FFD1"/>
</g>
<path d="M18.2824 10.2017H17.2018V6.79932L11.9951 9.58784L6.84693 6.80796V10.1984H5.72363L9.99806 17.6137L9.967 10.6455L11.0069 11.5192L11.0172 14.2337L11.8811 12.9232V11.1627L11.9958 11.2972L12.1244 11.1548V12.9122L12.9918 14.2459V11.544L14.0516 10.6313V17.6125L18.2824 10.2017ZM12.0051 10.7908L11.1937 9.94857L12.0051 10.325L12.8242 9.94857L12.0051 10.7908Z" fill="url(#paint5_linear_994_25790)"/>
<path d="M17.1957 6.79931V10.2017H18.2761L14.0446 17.6137V10.6324L12.9846 11.5451V14.2463L12.1172 12.9122V11.1548L11.9887 11.2972L11.8739 11.1627V12.9232L11.0118 14.2337L11.0013 11.5192L9.96116 10.6455L9.99245 17.6137L5.71755 10.1984H6.84062V6.80795L11.9887 9.58783L17.1955 6.79931M11.9988 10.3249L11.1874 9.94857L11.9988 10.7908L12.8179 9.94857L11.9988 10.3249ZM17.3592 6.52637L17.1184 6.65478L11.989 9.40221L6.91837 6.66412L6.67718 6.53407V10.035H5.43457L5.57466 10.2801L9.84909 17.6952L10.1568 18.2291L10.1543 17.613L10.1258 10.9976L10.8377 11.5956L10.8477 14.234L10.8498 14.7757L11.1475 14.3232L11.999 13.0303L12.8475 14.3365L13.148 14.7985V11.6189L13.8812 10.9885V18.2303L14.1873 17.6947L18.418 10.2827L18.5581 10.0382H17.3596V6.52637H17.3592ZM11.9986 10.505L12.0672 10.4734L12.0905 10.4632L12.0004 10.5566L11.9126 10.4653L11.9311 10.4739L11.9995 10.5057L11.9986 10.505Z" fill="url(#paint6_linear_994_25790)"/>
</g>
<defs>
<linearGradient id="paint0_linear_994_25790" x1="12" y1="-0.334819" x2="12" y2="20.7842" gradientUnits="userSpaceOnUse">
<stop stop-color="#F7CB55"/>
<stop offset="1" stop-color="#F76535"/>
</linearGradient>
<linearGradient id="paint1_linear_994_25790" x1="12" y1="3.35847" x2="12" y2="36.573" gradientUnits="userSpaceOnUse">
<stop stop-color="#F7DD55"/>
<stop offset="1" stop-color="#F78F35"/>
</linearGradient>
<linearGradient id="paint2_linear_994_25790" x1="11.9996" y1="12.7223" x2="11.9996" y2="-5.03916" gradientUnits="userSpaceOnUse">
<stop stop-color="#F7DD55"/>
<stop offset="1" stop-color="#F78F35"/>
</linearGradient>
<linearGradient id="paint3_linear_994_25790" x1="11.9999" y1="21.1078" x2="11.9999" y2="0.469296" gradientUnits="userSpaceOnUse">
<stop stop-color="#F7DD55"/>
<stop offset="1" stop-color="#F78F35"/>
</linearGradient>
<linearGradient id="paint4_linear_994_25790" x1="12.0002" y1="3.04352" x2="12.0002" y2="26.0246" gradientUnits="userSpaceOnUse">
<stop stop-color="#F7DD55"/>
<stop offset="1" stop-color="#F78F35"/>
</linearGradient>
<linearGradient id="paint5_linear_994_25790" x1="9.69919" y1="5.54246" x2="18.1252" y2="19.9371" gradientUnits="userSpaceOnUse">
<stop stop-color="#F7DD55"/>
<stop offset="1" stop-color="#F6EBB8"/>
</linearGradient>
<linearGradient id="paint6_linear_994_25790" x1="14.0451" y1="18.1883" x2="10.8521" y2="5.48479" gradientUnits="userSpaceOnUse">
<stop stop-color="#F7DD55"/>
<stop offset="1" stop-color="#F78F35"/>
</linearGradient>
<clipPath id="clip0_994_25790">
<rect width="24" height="24" fill="white"/>
</clipPath>
</defs>
</svg>
