<svg width="24" height="25" viewBox="0 0 24 25" fill="none" xmlns="http://www.w3.org/2000/svg">
<path d="M11.9999 4.21973C15.6368 4.21973 18.5848 7.16774 18.5848 10.8046C18.5848 13.5872 16.6296 16.6196 12.7699 19.9343C12.5553 20.1187 12.2816 20.22 11.9987 20.2197C11.7157 20.2195 11.4423 20.1177 11.228 19.933L10.9727 19.7115C7.2838 16.4832 5.41504 13.525 5.41504 10.8046C5.41504 7.16774 8.36305 4.21973 11.9999 4.21973ZM11.9999 8.27198C11.3282 8.27198 10.6841 8.53881 10.2091 9.01377C9.73412 9.48874 9.46729 10.1329 9.46729 10.8046C9.46729 11.4763 9.73412 12.1205 10.2091 12.5955C10.6841 13.0705 11.3282 13.3373 11.9999 13.3373C12.6716 13.3373 13.3158 13.0705 13.7908 12.5955C14.2658 12.1205 14.5326 11.4763 14.5326 10.8046C14.5326 10.1329 14.2658 9.48874 13.7908 9.01377C13.3158 8.53881 12.6716 8.27198 11.9999 8.27198Z" fill="#0151FC"/>
</svg>
