<svg width="24" height="24" viewBox="0 0 24 24" fill="none" xmlns="http://www.w3.org/2000/svg">
<path d="M20.1661 9.445V10.245C20.49 10.245 20.7819 10.0497 20.9055 9.75031C21.0291 9.45093 20.96 9.10655 20.7305 8.87804L20.1661 9.445ZM6.5483 8.645C6.10647 8.645 5.7483 9.00317 5.7483 9.445C5.7483 9.88683 6.10647 10.245 6.5483 10.245V8.645ZM16.6342 4.80022C16.3211 4.48851 15.8145 4.48966 15.5028 4.80278C15.1911 5.11591 15.1923 5.62244 15.5054 5.93415L16.6342 4.80022ZM3.83472 14.5556V13.7556C3.51081 13.7556 3.21887 13.9509 3.09526 14.2503C2.97165 14.5497 3.04077 14.8941 3.27033 15.1226L3.83472 14.5556ZM17.4525 15.3556C17.8943 15.3556 18.2525 14.9974 18.2525 14.5556C18.2525 14.1138 17.8943 13.7556 17.4525 13.7556V15.3556ZM7.36654 19.2001C7.67968 19.5118 8.18621 19.5107 8.49791 19.1975C8.80961 18.8844 8.80846 18.3779 8.49532 18.0662L7.36654 19.2001ZM20.1661 8.645H6.5483V10.245H20.1661V8.645ZM15.5054 5.93415L19.6017 10.012L20.7305 8.87804L16.6342 4.80022L15.5054 5.93415ZM3.83472 15.3556H17.4525V13.7556H3.83472V15.3556ZM8.49532 18.0662L4.39911 13.9886L3.27033 15.1226L7.36654 19.2001L8.49532 18.0662Z" fill="#0151FC"/>
</svg>
