<svg width="22" height="22" viewBox="0 0 22 22" fill="none" xmlns="http://www.w3.org/2000/svg">
<path d="M17.875 22C17.7474 22 17.625 21.9493 17.5347 21.8591C17.4445 21.7688 17.3938 21.6464 17.3938 21.5188V15.2901C17.3919 15.2263 17.403 15.1629 17.4265 15.1037C17.45 15.0444 17.4854 14.9906 17.5305 14.9455C17.5756 14.9004 17.6294 14.8651 17.6886 14.8416C17.7479 14.818 17.8113 14.8069 17.875 14.8088C18.0026 14.8088 18.1251 14.8595 18.2153 14.9498C18.3056 15.04 18.3563 15.1624 18.3563 15.2901V21.4913C18.36 21.5568 18.3503 21.6223 18.3278 21.6839C18.3053 21.7455 18.2705 21.8019 18.2254 21.8495C18.1803 21.8972 18.126 21.9351 18.0658 21.961C18.0055 21.9869 17.9406 22.0002 17.875 22Z" fill="#0F9D58"/>
<path d="M17.875 21.9997C17.745 21.9964 17.6215 21.9421 17.5313 21.8485L14.4238 18.7547C14.3387 18.6632 14.2914 18.5428 14.2914 18.4178C14.2914 18.2929 14.3387 18.1725 14.4238 18.081C14.4686 18.0352 14.522 17.9989 14.5811 17.9741C14.6401 17.9493 14.7035 17.9365 14.7675 17.9365C14.8315 17.9365 14.8949 17.9493 14.9539 17.9741C15.013 17.9989 15.0664 18.0352 15.1113 18.081L17.8613 20.831L20.6113 18.081C20.6561 18.0352 20.7095 17.9989 20.7686 17.9741C20.8276 17.9493 20.891 17.9365 20.955 17.9365C21.019 17.9365 21.0824 17.9493 21.1414 17.9741C21.2005 17.9989 21.2539 18.0352 21.2988 18.081C21.3838 18.1725 21.4311 18.2929 21.4311 18.4178C21.4311 18.5428 21.3838 18.6632 21.2988 18.7547L18.1913 21.8485C18.1086 21.9368 17.9957 21.9908 17.875 21.9997Z" fill="#0F9D58"/>
<path d="M18.9887 6.64105C18.97 6.58328 18.9369 6.53123 18.8925 6.4898L13.8325 1.3748C13.7379 1.28962 13.616 1.24088 13.4887 1.2373H6.40749C6.07355 1.23726 5.74295 1.30369 5.43494 1.43271C5.12694 1.56174 4.84769 1.75078 4.61349 1.98882C4.37929 2.22686 4.19481 2.50914 4.07081 2.81921C3.94681 3.12927 3.88577 3.46091 3.89124 3.7948V7.41105H1.66374C1.35981 7.41467 1.06955 7.53796 0.855907 7.75417C0.642268 7.97038 0.52247 8.2621 0.522491 8.56605V15.6473C0.52247 15.9513 0.642268 16.243 0.855907 16.4592C1.06955 16.6754 1.35981 16.7987 1.66374 16.8023H3.89124V17.9711C3.89124 18.3008 3.95642 18.6274 4.08304 18.9319C4.20966 19.2364 4.39522 19.5129 4.62906 19.7455C4.8629 19.978 5.1404 20.1621 5.4456 20.287C5.75081 20.412 6.0777 20.4754 6.40749 20.4736H11.9762C12.1039 20.4736 12.2263 20.4229 12.3165 20.3326C12.4068 20.2423 12.4575 20.1199 12.4575 19.9923C12.4575 19.8647 12.4068 19.7423 12.3165 19.652C12.2263 19.5618 12.1039 19.5111 11.9762 19.5111H6.40749C5.99778 19.5111 5.60465 19.3493 5.31366 19.0608C5.02267 18.7724 4.85737 18.3807 4.85374 17.9711V16.8023H10.3537C10.659 16.7987 10.9507 16.6759 11.1665 16.4601C11.3823 16.2442 11.5052 15.9525 11.5087 15.6473V8.56605C11.5052 8.26084 11.3823 7.96913 11.1665 7.75329C10.9507 7.53746 10.659 7.41462 10.3537 7.41105H4.85374V3.7948C4.85737 3.38511 5.02267 2.99343 5.31366 2.70502C5.60465 2.4166 5.99778 2.25479 6.40749 2.2548H13.0075V5.81605C13.0075 6.21355 13.1654 6.59476 13.4465 6.87583C13.7275 7.1569 14.1087 7.31481 14.5062 7.31481H18.0675V11.9211C18.0675 12.0487 18.1182 12.1711 18.2084 12.2613C18.2987 12.3516 18.4211 12.4023 18.5487 12.4023C18.6764 12.4023 18.7988 12.3516 18.889 12.2613C18.9793 12.1711 19.03 12.0487 19.03 11.9211V6.8748C19.0379 6.79458 19.0236 6.71372 18.9887 6.64105ZM4.88124 9.83105L5.98124 11.6186L7.09499 9.83105H7.23249H7.71374H7.85124C7.85736 9.84395 7.86053 9.85804 7.86053 9.8723C7.86053 9.88657 7.85736 9.90066 7.85124 9.91355V10.0511L6.47624 12.2923L7.96124 14.6573C7.97308 14.6977 7.97308 14.7407 7.96124 14.7811C7.96736 14.7939 7.97053 14.808 7.97053 14.8223C7.97053 14.8366 7.96736 14.8507 7.96124 14.8636H7.80999H7.39749H7.24624H7.14999L5.95374 12.8423L4.79874 14.7536H4.70249H4.56499H4.02874C3.97907 14.7658 3.92717 14.7658 3.87749 14.7536C3.87025 14.741 3.86644 14.7268 3.86644 14.7123C3.86644 14.6978 3.87025 14.6836 3.87749 14.6711C3.86565 14.6307 3.86565 14.5877 3.87749 14.5473L5.38999 12.2786L4.01499 10.0236C4.00897 9.98252 4.00897 9.94083 4.01499 9.8998C4.00607 9.8879 4.00124 9.87343 4.00124 9.85855C4.00124 9.84368 4.00607 9.8292 4.01499 9.8173C4.04771 9.79195 4.08508 9.77326 4.12499 9.7623H4.64749H4.79874L4.88124 9.83105ZM14.5062 6.3523C14.4353 6.3542 14.3647 6.34162 14.2988 6.31534C14.2329 6.28906 14.173 6.24963 14.1228 6.19945C14.0727 6.14928 14.0332 6.0894 14.007 6.02349C13.9807 5.95757 13.9681 5.88699 13.97 5.81605V2.92855L17.3937 6.3523H14.5062Z" fill="#0F9D58"/>
</svg>
