<svg width="20" height="20" viewBox="0 0 20 20" fill="none" xmlns="http://www.w3.org/2000/svg">
<path d="M16.1042 7.89062C16.1042 7.89062 15.6517 13.5031 15.3892 15.8673C15.2642 16.9965 14.5667 17.6581 13.4242 17.679C11.25 17.7181 9.07332 17.7206 6.89999 17.6748C5.80082 17.6523 5.11499 16.9823 4.99249 15.8731C4.72832 13.4881 4.27832 7.89062 4.27832 7.89062" stroke="#5B616E" stroke-width="1.5" stroke-linecap="round" stroke-linejoin="round"/>
<path d="M17.2569 5.20182H3.12524" stroke="#5B616E" stroke-width="1.5" stroke-linecap="round" stroke-linejoin="round"/>
<path d="M14.534 5.20047C13.8798 5.20047 13.3165 4.73797 13.1881 4.09714L12.9856 3.0838C12.8606 2.6163 12.4373 2.29297 11.9548 2.29297H8.42731C7.94481 2.29297 7.52148 2.6163 7.39648 3.0838L7.19398 4.09714C7.06564 4.73797 6.50231 5.20047 5.84814 5.20047" stroke="#5B616E" stroke-width="1.5" stroke-linecap="round" stroke-linejoin="round"/>
</svg>
