<svg width="24" height="24" viewBox="0 0 24 24" fill="none" xmlns="http://www.w3.org/2000/svg">
    <path d="M5.00631 5.64284L11.3577 1.79777C11.712 1.58326 12.2865 1.58326 12.6409 1.79777L18.9922 5.64284C19.3466 5.85735 19.3466 6.20515 18.9922 6.41966L12.6409 10.2647C12.2865 10.4792 11.712 10.4792 11.3577 10.2647L5.00631 6.41966C4.65197 6.20515 4.65197 5.85735 5.00631 5.64284Z" stroke="#0151FC" stroke-width="1.5" stroke-miterlimit="2.61313"/>
    <path d="M3.26904 9.57925C3.26904 8.99456 3.90839 8.63473 4.4082 8.93811L10.3308 12.5331C10.5549 12.6691 10.6917 12.9121 10.6917 13.1742V20.7C10.6917 21.2846 10.0523 21.6445 9.55249 21.3411L3.62988 17.7461C3.40585 17.6101 3.26904 17.3671 3.26904 17.105V9.57925Z" stroke="#0151FC" stroke-width="1.5" stroke-miterlimit="2.61313"/>
    <path d="M19.5916 8.93811C20.0914 8.63473 20.7307 8.99455 20.7307 9.57924V17.105C20.7307 17.3671 20.5939 17.6101 20.3699 17.7461L14.4473 21.3411C13.9474 21.6445 13.3081 21.2847 13.3081 20.7V13.1742C13.3081 12.9121 13.4449 12.6691 13.6689 12.5331L13.3006 11.9262L13.6689 12.5331L19.5916 8.93811Z" stroke="#0151FC" stroke-width="1.5" stroke-miterlimit="2.61313"/>
</svg>
