<svg width="24" height="24" viewBox="0 0 24 24" fill="none" xmlns="http://www.w3.org/2000/svg">
<path d="M13.6406 11.4375C14.3281 11.6562 14.875 12.0625 15.2812 12.6562C15.7188 13.25 15.9375 13.9219 15.9375 14.6719C15.9375 15.2656 15.7969 15.8281 15.5156 16.3594C15.2344 16.8594 14.8438 17.2656 14.3438 17.5781C13.8438 17.8594 13.3125 18 12.75 18V18.75C12.75 18.9688 12.6719 19.1562 12.5156 19.3125C12.3906 19.4375 12.2188 19.5 12 19.5H11.25C11.0312 19.5 10.8438 19.4375 10.6875 19.3125C10.5625 19.1562 10.5 18.9688 10.5 18.75V18C9.71875 17.9688 9 17.7344 8.34375 17.2969C8.125 17.1406 8 16.9531 7.96875 16.7344C7.96875 16.4844 8.04688 16.2812 8.20312 16.125L8.76562 15.5625C9.04688 15.3125 9.35938 15.2969 9.70312 15.5156C9.98438 15.6719 10.2969 15.75 10.6406 15.75H12.75C13 15.75 13.2188 15.6406 13.4062 15.4219C13.5938 15.2031 13.6875 14.9531 13.6875 14.6719C13.6875 14.1094 13.4531 13.75 12.9844 13.5938L9.60938 12.5625C9.17188 12.4375 8.76562 12.2188 8.39062 11.9062C8.04688 11.5625 7.78125 11.1719 7.59375 10.7344C7.40625 10.2969 7.3125 9.82812 7.3125 9.32812C7.3125 8.42188 7.625 7.64062 8.25 6.98438C8.875 6.32812 9.625 6 10.5 6V5.25C10.5 5.03125 10.5781 4.85938 10.7344 4.73438C10.8906 4.57813 11.0625 4.5 11.25 4.5H12C12.2188 4.5 12.3906 4.57813 12.5156 4.73438C12.6719 4.85938 12.75 5.03125 12.75 5.25V6C13.5625 6.03125 14.2969 6.26563 14.9531 6.70312C15.1406 6.85937 15.25 7.0625 15.2812 7.3125C15.3125 7.53125 15.2344 7.71875 15.0469 7.875L14.4844 8.4375C14.2031 8.6875 13.8906 8.70312 13.5469 8.48438C13.2656 8.32812 12.9531 8.25 12.6094 8.25H10.5C10.25 8.25 10.0312 8.35938 9.84375 8.57812C9.65625 8.79688 9.5625 9.04688 9.5625 9.32812C9.5625 9.89062 9.79688 10.25 10.2656 10.4062L13.6406 11.4375ZM3.375 3.79688C5.65625 1.51562 8.40625 0.375 11.625 0.375C14.8438 0.375 17.5781 1.51562 19.8281 3.79688C22.1094 6.04688 23.25 8.78125 23.25 12C23.25 15.2188 22.1094 17.9688 19.8281 20.25C17.5781 22.5 14.8438 23.625 11.625 23.625C8.40625 23.625 5.65625 22.5 3.375 20.25C1.125 17.9688 0 15.2188 0 12C0 8.78125 1.125 6.04688 3.375 3.79688ZM4.96875 18.6562C6.8125 20.4688 9.03125 21.375 11.625 21.375C14.2188 21.375 16.4219 20.4688 18.2344 18.6562C20.0781 16.8125 21 14.5938 21 12C21 9.40625 20.0781 7.20313 18.2344 5.39062C16.4219 3.54688 14.2188 2.625 11.625 2.625C9.03125 2.625 6.8125 3.54688 4.96875 5.39062C3.15625 7.20313 2.25 9.40625 2.25 12C2.25 14.5938 3.15625 16.8125 4.96875 18.6562Z" fill="#0151FC"/>
</svg>
