<svg width="32" height="32" viewBox="0 0 32 32" fill="none" xmlns="http://www.w3.org/2000/svg">
<rect width="32" height="32" rx="16" fill="#0151FC"/>
<path fill-rule="evenodd" clip-rule="evenodd" d="M18.6975 21.4471C18.5145 21.4471 18.3662 21.2988 18.3662 21.1158C18.3662 20.9328 18.5145 20.7846 18.6975 20.7846C19.1146 20.7846 19.454 20.4452 19.454 20.0278C19.454 19.6107 19.1146 19.2713 18.6975 19.2713L15.9454 19.2762H15.9448C15.8916 19.2762 15.8392 19.2634 15.7921 19.2388L13.3904 17.9897H10.8164C10.6334 17.9897 10.4851 17.8414 10.4851 17.6584C10.4851 17.4754 10.6334 17.3271 10.8164 17.3271H13.4714C13.5246 17.3271 13.577 17.3399 13.6241 17.3645L16.0256 18.6134L18.697 18.6088C19.48 18.6088 20.1166 19.2453 20.1166 20.0277C20.1164 20.8106 19.4798 21.4471 18.6975 21.4471L18.6975 21.4471Z" fill="white"/>
<path fill-rule="evenodd" clip-rule="evenodd" d="M17.7674 24.5948H16.2094C16.1686 24.5948 16.1282 24.5872 16.0901 24.5726L11.9544 22.9769H10.8476C10.6647 22.9769 10.5164 22.8286 10.5164 22.6457C10.5164 22.4627 10.6647 22.3144 10.8476 22.3144H12.0162C12.0569 22.3144 12.0973 22.322 12.1354 22.3366L16.2711 23.9323H17.6963C18.0117 23.7941 18.6631 23.5578 19.4718 23.2643C21.3898 22.5683 24.2882 21.5167 25.302 20.8269C25.5993 20.6247 25.7008 20.2124 25.5285 19.9078C25.339 19.5727 24.7858 19.3761 23.8023 19.8297C23.7933 19.8339 23.7841 19.8376 23.7746 19.841L19.3169 21.4276C19.2813 21.4404 19.2437 21.4467 19.2058 21.4467H14.9597C14.7767 21.4467 14.6285 21.2984 14.6285 21.1155C14.6285 20.9325 14.7767 20.7842 14.9597 20.7842H19.1485L23.5383 19.2218C24.9223 18.5889 25.7712 18.9918 26.1048 19.5818C26.4483 20.1893 26.2592 20.9768 25.6742 21.3746C24.5917 22.1109 21.7626 23.1373 19.6972 23.8868C18.8733 24.1858 18.1618 24.444 17.9076 24.5631C17.8637 24.5841 17.8157 24.5948 17.7671 24.5948L17.7674 24.5948Z" fill="white"/>
<path fill-rule="evenodd" clip-rule="evenodd" d="M10.8158 24.1068H7.31392C7.13096 24.1068 6.98267 23.9585 6.98267 23.7756V16.5471C6.98267 16.3641 7.13096 16.2158 7.31392 16.2158H10.8158C10.9987 16.2158 11.147 16.3641 11.147 16.5471V23.7756C11.1469 23.9585 10.9987 24.1068 10.8158 24.1068ZM7.64504 23.4445H10.4844L10.4845 16.8785H7.64504L7.64504 23.4445Z" fill="white"/>
<path fill-rule="evenodd" clip-rule="evenodd" d="M18.3961 16.2648C15.5661 16.2648 13.2637 13.9625 13.2637 11.1324C13.2637 8.30239 15.5661 6 18.3961 6C21.2261 6 23.5284 8.30246 23.5284 11.1324C23.5284 13.9624 21.226 16.2648 18.3961 16.2648ZM18.3961 6.66217C15.9312 6.66217 13.9262 8.66745 13.9262 11.1324C13.9262 13.5972 15.9315 15.6022 18.3961 15.6022C20.8609 15.6022 22.8663 13.5969 22.8663 11.1324C22.8663 8.66757 20.8608 6.66217 18.3961 6.66217Z" fill="white"/>
<path fill-rule="evenodd" clip-rule="evenodd" d="M16.0173 13.8422C15.9325 13.8422 15.8478 13.8099 15.783 13.7451C15.6537 13.6158 15.6537 13.406 15.783 13.2767L20.5403 8.51936C20.6697 8.39003 20.8794 8.39003 21.0088 8.51936C21.1381 8.64869 21.1381 8.85846 21.0088 8.98781L16.2515 13.7451C16.1867 13.8097 16.102 13.8422 16.0173 13.8422H16.0173Z" fill="white"/>
<path fill-rule="evenodd" clip-rule="evenodd" d="M16.8764 10.7734C16.5791 10.7734 16.2817 10.6602 16.0554 10.4338C15.6026 9.98109 15.6026 9.24455 16.0554 8.7918C16.2746 8.57255 16.5662 8.45166 16.8764 8.45166C17.1864 8.45166 17.478 8.5724 17.6974 8.7918C18.1501 9.24455 18.1501 9.98109 17.6974 10.4338C17.471 10.6602 17.1737 10.7734 16.8764 10.7734ZM16.8764 9.11417C16.7432 9.11417 16.6179 9.16602 16.5238 9.26024C16.3294 9.4546 16.3294 9.77105 16.5238 9.96542C16.7182 10.1598 17.0346 10.1599 17.229 9.96542C17.4233 9.77105 17.4235 9.4546 17.229 9.26024C17.1348 9.16602 17.0096 9.11417 16.8764 9.11417H16.8764Z" fill="white"/>
<path fill-rule="evenodd" clip-rule="evenodd" d="M19.9153 13.8123C19.618 13.8123 19.3206 13.6991 19.0943 13.4727C18.875 13.2535 18.7542 12.9619 18.7542 12.6517C18.7542 12.3415 18.8749 12.05 19.0943 11.8307C19.3135 11.6115 19.6053 11.4907 19.9153 11.4907C20.2254 11.4907 20.5169 11.6115 20.7363 11.8309C21.189 12.2836 21.189 13.0202 20.7363 13.4729C20.5099 13.6991 20.2126 13.8123 19.9153 13.8123V13.8123ZM19.9153 12.153C19.7821 12.153 19.6569 12.2049 19.5627 12.2991C19.4685 12.3933 19.4166 12.5185 19.4166 12.6517C19.4166 12.7849 19.4685 12.9101 19.5627 13.0043C19.7571 13.1986 20.0735 13.1988 20.2679 13.0043C20.4623 12.8099 20.4624 12.4935 20.2679 12.2991C20.1737 12.2049 20.0485 12.153 19.9153 12.153L19.9153 12.153ZM19.3285 12.0649H19.3289H19.3285Z" fill="white"/>
<path d="M6.01767 25.9654C6.01678 25.9658 6.0159 25.9662 6.01471 25.9665C6.01352 25.9668 6.01234 25.9671 6.01115 25.9671C6.0079 25.9671 6.00538 25.9662 6.00345 25.9642C6.00138 25.9622 6.00049 25.9597 6.00049 25.9565C6.00049 25.9534 6.00138 25.9508 6.00345 25.9488C6.00538 25.9468 6.0079 25.9458 6.01115 25.9458C6.01234 25.9458 6.01352 25.9461 6.01471 25.9464C6.0159 25.9468 6.01678 25.9473 6.01767 25.9476V25.9517C6.01678 25.951 6.0159 25.9505 6.01471 25.9505C6.01382 25.9502 6.01293 25.9499 6.01175 25.9499C6.01012 25.9499 6.00878 25.9505 6.0076 25.9517C6.00671 25.9529 6.00641 25.9545 6.00641 25.9565C6.00641 25.9585 6.00671 25.96 6.0076 25.9612C6.00878 25.9624 6.01012 25.963 6.01175 25.963H6.01471C6.0159 25.9627 6.01678 25.9621 6.01767 25.9612V25.9654Z" fill="white"/>
<path d="M6.03264 25.9559C6.03264 25.9556 6.03234 25.9553 6.03205 25.9553C6.0316 25.955 6.03116 25.9547 6.03086 25.9547C6.02923 25.9547 6.02805 25.9553 6.02731 25.9565C6.02686 25.9574 6.02671 25.9583 6.02671 25.9595V25.9666H6.02197V25.9518H6.02671V25.9541C6.02745 25.9529 6.02805 25.9522 6.02849 25.9518C6.02923 25.9515 6.03027 25.9512 6.03145 25.9512H6.03205H6.03264V25.9559Z" fill="white"/>
<path d="M6.05018 25.9589V25.9607H6.03892C6.03922 25.9618 6.03966 25.9627 6.04011 25.963C6.04085 25.9635 6.04188 25.9636 6.04307 25.9636C6.04425 25.9636 6.04514 25.9635 6.04603 25.963C6.04722 25.9627 6.0484 25.9623 6.04959 25.9618V25.966C6.0484 25.966 6.04722 25.9663 6.04603 25.9666C6.04514 25.9669 6.04425 25.9672 6.04307 25.9672C6.03981 25.9672 6.03744 25.9664 6.03596 25.9648C6.03477 25.9633 6.03418 25.9615 6.03418 25.9595C6.03418 25.9568 6.03477 25.9547 6.03596 25.9535C6.03744 25.9521 6.03966 25.9512 6.04248 25.9512C6.04485 25.9512 6.04662 25.9521 6.04781 25.9535C6.04929 25.9547 6.05018 25.9565 6.05018 25.9589L6.05018 25.9589ZM6.04544 25.9577C6.04544 25.9565 6.04499 25.9558 6.04425 25.9553C6.04381 25.955 6.04322 25.9547 6.04248 25.9547C6.04159 25.9547 6.04085 25.955 6.04011 25.9553C6.03966 25.9558 6.03922 25.9565 6.03892 25.9577H6.04544Z" fill="white"/>
<path d="M6.06068 25.9595C6.05979 25.9595 6.05905 25.9599 6.05831 25.9607C6.05787 25.9611 6.05772 25.9615 6.05772 25.9618C6.05772 25.9623 6.05787 25.9627 6.05831 25.963C6.05861 25.9635 6.0592 25.9636 6.06009 25.9636C6.06127 25.9636 6.06202 25.9635 6.06246 25.963C6.0632 25.9623 6.06365 25.9615 6.06365 25.9607V25.9595H6.06068ZM6.06779 25.9583V25.9666H6.06365V25.9642C6.06276 25.9654 6.06202 25.9663 6.06127 25.9666C6.06039 25.9669 6.0595 25.9672 6.05831 25.9672C6.05668 25.9672 6.05535 25.9667 6.05416 25.966C6.05327 25.9648 6.05298 25.9635 6.05298 25.9618C6.05298 25.9604 6.05357 25.9592 6.05476 25.9583C6.05594 25.9575 6.05772 25.9571 6.06009 25.9571H6.06364V25.9565C6.06364 25.9558 6.0632 25.9553 6.06246 25.9553C6.06202 25.955 6.06098 25.9547 6.0595 25.9547H6.05653C6.05564 25.9547 6.0549 25.955 6.05416 25.9553V25.9518H6.05713C6.05831 25.9515 6.0592 25.9512 6.06009 25.9512C6.0632 25.9512 6.06513 25.9518 6.06602 25.9529C6.0672 25.9541 6.06779 25.9559 6.06779 25.9583L6.06779 25.9583Z" fill="white"/>
<path d="M6.07791 25.9473V25.952H6.08265V25.955H6.07791V25.9615V25.9633H6.07969H6.08206V25.9668H6.0785C6.07643 25.9668 6.07495 25.9665 6.07376 25.9656C6.07287 25.9649 6.07258 25.9636 6.07258 25.9615V25.955H6.0708V25.952H6.07258V25.9473L6.07791 25.9473Z" fill="white"/>
<path d="M6.10047 25.9589V25.9607H6.08921C6.08951 25.9618 6.08995 25.9627 6.0904 25.963C6.09114 25.9635 6.09218 25.9636 6.09336 25.9636C6.09455 25.9636 6.09544 25.9635 6.09632 25.963C6.09751 25.9627 6.09869 25.9623 6.09988 25.9618V25.966C6.09869 25.966 6.09751 25.9663 6.09632 25.9666C6.09544 25.9669 6.09455 25.9672 6.09336 25.9672C6.0901 25.9672 6.08773 25.9664 6.08625 25.9648C6.08507 25.9633 6.08447 25.9615 6.08447 25.9595C6.08447 25.9568 6.08507 25.9547 6.08625 25.9535C6.08773 25.9521 6.08995 25.9512 6.09277 25.9512C6.09514 25.9512 6.09692 25.9521 6.0981 25.9535C6.09958 25.9547 6.10047 25.9565 6.10047 25.9589L6.10047 25.9589ZM6.09573 25.9577C6.09573 25.9565 6.09529 25.9558 6.09455 25.9553C6.0941 25.955 6.09351 25.9547 6.09277 25.9547C6.09188 25.9547 6.09114 25.955 6.0904 25.9553C6.08995 25.9558 6.08951 25.9565 6.08921 25.9577H6.09573Z" fill="white"/>
<path d="M6.11429 25.9535V25.9458H6.11903V25.9665H6.11429V25.9642C6.11384 25.9654 6.1131 25.9662 6.11192 25.9665C6.11103 25.9668 6.11029 25.9671 6.10955 25.9671C6.10747 25.9671 6.10599 25.9664 6.10481 25.9648C6.10362 25.9633 6.10303 25.9615 6.10303 25.9594C6.10303 25.9568 6.10362 25.9547 6.10481 25.9535C6.10599 25.952 6.10747 25.9511 6.10955 25.9511C6.11029 25.9511 6.11103 25.9514 6.11192 25.9517C6.1131 25.9522 6.11384 25.9528 6.11429 25.9535V25.9535ZM6.11132 25.9636C6.11206 25.9636 6.11266 25.9633 6.1131 25.9624C6.11384 25.9617 6.11429 25.9606 6.11429 25.9594C6.11429 25.9579 6.11384 25.9568 6.1131 25.9559C6.11266 25.9551 6.11206 25.9547 6.11132 25.9547C6.11014 25.9547 6.1091 25.9551 6.10836 25.9559C6.10792 25.9568 6.10777 25.9579 6.10777 25.9594C6.10777 25.9606 6.10792 25.9617 6.10836 25.9624C6.1091 25.9633 6.11014 25.9636 6.11132 25.9636Z" fill="white"/>
<path d="M6.141 25.9636C6.14219 25.9636 6.14293 25.9633 6.14337 25.9624C6.14367 25.9617 6.14397 25.9606 6.14397 25.9594C6.14397 25.9579 6.14367 25.9568 6.14337 25.9559C6.14293 25.9551 6.14219 25.9547 6.141 25.9547C6.13982 25.9547 6.13893 25.9551 6.13863 25.9559C6.13819 25.9568 6.13804 25.9579 6.13804 25.9594C6.13804 25.9606 6.13819 25.9617 6.13863 25.9624C6.13893 25.9633 6.13982 25.9636 6.141 25.9636ZM6.13804 25.9535C6.13878 25.9528 6.13952 25.9522 6.14041 25.9517C6.14115 25.9514 6.14189 25.9511 6.14278 25.9511C6.14471 25.9511 6.14634 25.952 6.14752 25.9535C6.14871 25.9547 6.1493 25.9568 6.1493 25.9594C6.1493 25.9615 6.14871 25.9633 6.14752 25.9648C6.14634 25.9664 6.14471 25.9671 6.14278 25.9671C6.14189 25.9671 6.14115 25.9668 6.14041 25.9665C6.13952 25.9662 6.13878 25.9654 6.13804 25.9642V25.9665H6.1333V25.9458H6.13804V25.9535Z" fill="white"/>
<path d="M6.15137 25.9517H6.15611L6.15966 25.9617L6.16322 25.9517H6.16855L6.16203 25.9677C6.16114 25.9696 6.1604 25.9708 6.15966 25.9712C6.15877 25.972 6.15759 25.9724 6.15611 25.9724H6.15314V25.9688H6.15492H6.1567C6.157 25.9688 6.15744 25.9683 6.15789 25.9671L6.15137 25.9517Z" fill="white"/>
<path d="M6.19875 25.9654C6.19712 25.9658 6.19579 25.9662 6.19461 25.9665C6.19342 25.9668 6.19179 25.9671 6.18987 25.9671C6.18661 25.9671 6.18409 25.9662 6.18216 25.9642C6.18009 25.9622 6.1792 25.9597 6.1792 25.9565C6.1792 25.9534 6.18009 25.9508 6.18216 25.9488C6.18409 25.9468 6.1869 25.9458 6.19046 25.9458C6.19194 25.9458 6.19312 25.9461 6.19401 25.9464C6.1952 25.9468 6.19638 25.9473 6.19757 25.9476V25.9517C6.19638 25.951 6.1952 25.9505 6.19401 25.9505C6.19312 25.9502 6.19224 25.9499 6.19105 25.9499C6.18898 25.9499 6.1875 25.9505 6.18631 25.9517C6.18542 25.9529 6.18512 25.9545 6.18512 25.9565C6.18512 25.9585 6.18542 25.96 6.18631 25.9612C6.1875 25.9624 6.18898 25.963 6.19105 25.963H6.19224C6.19253 25.963 6.19298 25.9628 6.19342 25.9624V25.9588H6.19046V25.9553H6.19875V25.9654Z" fill="white"/>
<path d="M6.21355 25.9559C6.21355 25.9556 6.21325 25.9553 6.21295 25.9553C6.21251 25.955 6.21207 25.9547 6.21177 25.9547C6.21014 25.9547 6.20895 25.9553 6.20821 25.9565C6.20777 25.9574 6.20762 25.9583 6.20762 25.9595V25.9666H6.20288V25.9518H6.20762V25.9541C6.20836 25.9529 6.20895 25.9522 6.2094 25.9518C6.21014 25.9515 6.21118 25.9512 6.21236 25.9512H6.21295H6.21355V25.9559Z" fill="white"/>
<path d="M6.22304 25.9595C6.22215 25.9595 6.22141 25.9599 6.22067 25.9607C6.22022 25.9611 6.22007 25.9615 6.22007 25.9618C6.22007 25.9623 6.22022 25.9627 6.22067 25.963C6.22096 25.9635 6.22155 25.9636 6.22244 25.9636C6.22363 25.9636 6.22437 25.9635 6.22481 25.963C6.22555 25.9623 6.226 25.9615 6.226 25.9607V25.9595H6.22304ZM6.23015 25.9583V25.9666H6.226V25.9642C6.22511 25.9654 6.22437 25.9663 6.22363 25.9666C6.22274 25.9669 6.22185 25.9672 6.22067 25.9672C6.21904 25.9672 6.2177 25.9667 6.21652 25.966C6.21563 25.9648 6.21533 25.9635 6.21533 25.9618C6.21533 25.9604 6.21592 25.9592 6.21711 25.9583C6.21829 25.9575 6.22007 25.9571 6.22244 25.9571H6.226V25.9565C6.226 25.9558 6.22555 25.9553 6.22481 25.9553C6.22437 25.955 6.22333 25.9547 6.22185 25.9547H6.21889C6.218 25.9547 6.21726 25.955 6.21652 25.9553V25.9518H6.21948C6.22067 25.9515 6.22155 25.9512 6.22244 25.9512C6.22555 25.9512 6.22748 25.9518 6.22837 25.9529C6.22955 25.9541 6.23015 25.9559 6.23015 25.9583L6.23015 25.9583Z" fill="white"/>
<path d="M6.2396 25.9642V25.9719H6.23486V25.9518H6.2396V25.9535C6.24034 25.9528 6.24109 25.9522 6.24197 25.9518C6.24271 25.9515 6.24346 25.9512 6.24434 25.9512C6.24627 25.9512 6.2479 25.9521 6.24909 25.9535C6.25027 25.9547 6.25086 25.9568 6.25086 25.9595C6.25086 25.9615 6.25027 25.9633 6.24909 25.9648C6.2479 25.9664 6.24627 25.9672 6.24434 25.9672C6.24346 25.9672 6.24271 25.9669 6.24197 25.9666C6.24109 25.9663 6.24034 25.9654 6.2396 25.9642V25.9642ZM6.24257 25.9547C6.24138 25.9547 6.24049 25.9552 6.2402 25.9559C6.23975 25.9568 6.2396 25.958 6.2396 25.9595C6.2396 25.9607 6.23975 25.9617 6.2402 25.9624C6.24049 25.9633 6.24138 25.9636 6.24257 25.9636C6.24375 25.9636 6.24449 25.9633 6.24494 25.9624C6.24523 25.9617 6.24553 25.9607 6.24553 25.9595C6.24553 25.958 6.24523 25.9568 6.24494 25.9559C6.24449 25.9552 6.24375 25.9547 6.24257 25.9547Z" fill="white"/>
<path d="M6.27005 25.9577V25.9665H6.26471V25.9594V25.9571C6.26471 25.9568 6.26442 25.9563 6.26412 25.9559C6.26412 25.9556 6.26382 25.9553 6.26353 25.9553C6.26353 25.955 6.26308 25.9547 6.26234 25.9547C6.26145 25.9547 6.26071 25.9551 6.25997 25.9559C6.25953 25.9568 6.25938 25.9579 6.25938 25.9594V25.9665H6.25464V25.9458H6.25938V25.9535C6.26012 25.9528 6.26086 25.9522 6.26175 25.9517C6.26249 25.9514 6.26323 25.9511 6.26412 25.9511C6.26605 25.9511 6.26738 25.9517 6.26827 25.9529C6.26945 25.9541 6.27005 25.9557 6.27005 25.9577L6.27005 25.9577Z" fill="white"/>
<path d="M6.27417 25.9517H6.27891V25.9665H6.27417V25.9517ZM6.27417 25.9458H6.27891V25.9494H6.27417V25.9458Z" fill="white"/>
<path d="M6.28707 25.9588L6.28174 25.9517H6.28648L6.29003 25.9558L6.293 25.9517H6.29833L6.293 25.9588L6.29833 25.9665H6.293L6.29003 25.9617L6.28648 25.9665H6.28174L6.28707 25.9588Z" fill="white"/>
<path d="M6.31309 25.9518V25.9559C6.3119 25.9552 6.31072 25.9547 6.30953 25.9547H6.30716H6.30479C6.30435 25.9547 6.3042 25.9552 6.3042 25.9559C6.3042 25.9564 6.30435 25.9568 6.30479 25.9571H6.30716H6.30775C6.31012 25.9575 6.3116 25.9581 6.31249 25.9589C6.31323 25.9593 6.31368 25.9605 6.31368 25.9624C6.31368 25.9636 6.31309 25.9648 6.3119 25.966C6.31101 25.9667 6.30953 25.9672 6.30716 25.9672C6.30597 25.9672 6.30479 25.9669 6.3036 25.9666C6.30272 25.9666 6.30183 25.9664 6.30064 25.966V25.9624C6.30138 25.9629 6.30212 25.9633 6.30301 25.9636H6.30657H6.30834C6.30864 25.9633 6.30894 25.9629 6.30894 25.9624C6.30894 25.9617 6.30864 25.9612 6.30834 25.9612C6.30834 25.9612 6.3079 25.9611 6.30716 25.9607H6.30597C6.3039 25.9604 6.30242 25.9599 6.30123 25.9595C6.30035 25.9587 6.30005 25.9575 6.30005 25.9559C6.30005 25.9544 6.30064 25.9532 6.30183 25.9524C6.30301 25.9516 6.30479 25.9512 6.30716 25.9512C6.3079 25.9512 6.30864 25.9515 6.30953 25.9518H6.31309L6.31309 25.9518Z" fill="white"/>
<path d="M6.32882 25.9707V25.9731H6.31519V25.9707H6.32882Z" fill="white"/>
<path d="M6.34367 25.9628H6.33538L6.33419 25.9669H6.32886L6.33656 25.9468H6.34249L6.3496 25.9669H6.34486L6.34367 25.9628ZM6.33656 25.9598H6.34189L6.33952 25.9515L6.33656 25.9598Z" fill="white"/>
<path d="M6.36321 25.9559C6.36321 25.9556 6.36291 25.9553 6.36261 25.9553C6.36217 25.955 6.36172 25.9547 6.36143 25.9547C6.3598 25.9547 6.35861 25.9553 6.35787 25.9565C6.35743 25.9574 6.35728 25.9583 6.35728 25.9595V25.9666H6.35254V25.9518H6.35728V25.9541C6.35802 25.9529 6.35861 25.9522 6.35906 25.9518C6.3598 25.9515 6.36084 25.9512 6.36202 25.9512H6.36261H6.36321V25.9559Z" fill="white"/>
<path d="M6.37112 25.9473V25.952H6.37587V25.955H6.37112V25.9615V25.9633H6.3729H6.37527V25.9668H6.37172C6.36964 25.9668 6.36816 25.9665 6.36698 25.9656C6.36609 25.9649 6.36579 25.9636 6.36579 25.9615V25.955H6.36401V25.952H6.36579V25.9473L6.37112 25.9473Z" fill="white"/>
<path d="M6.01126 25.9731V25.9761H6.00889C6.008 25.9761 6.00741 25.9764 6.00711 25.9767V25.9779V25.9791H6.01126V25.982H6.00711V25.9939H6.00237V25.982H6V25.9791H6.00237V25.9779C6.00237 25.9764 6.00267 25.9752 6.00356 25.9743C6.0043 25.9736 6.00563 25.9731 6.0077 25.9731H6.01126Z" fill="white"/>
<path d="M6.02434 25.9833C6.02434 25.983 6.02404 25.9827 6.02375 25.9827C6.0233 25.9824 6.02286 25.9821 6.02256 25.9821C6.02093 25.9821 6.01975 25.9827 6.01901 25.9838C6.01856 25.9847 6.01841 25.9856 6.01841 25.9868V25.9939H6.01367V25.9791H6.01841V25.9815C6.01915 25.9803 6.01975 25.9796 6.02019 25.9791C6.02093 25.9788 6.02197 25.9785 6.02315 25.9785H6.02375H6.02434V25.9833Z" fill="white"/>
<path d="M6.03442 25.9821C6.03323 25.9821 6.0322 25.9825 6.03146 25.9833C6.03101 25.9837 6.03086 25.9849 6.03086 25.9868C6.03086 25.988 6.03101 25.989 6.03146 25.9898C6.0322 25.9907 6.03323 25.991 6.03442 25.991C6.0356 25.991 6.03635 25.9907 6.03679 25.9898C6.03753 25.989 6.03797 25.988 6.03797 25.9868C6.03797 25.9849 6.03753 25.9837 6.03679 25.9833C6.03635 25.9825 6.0356 25.9821 6.03442 25.9821ZM6.03442 25.9785C6.03679 25.9785 6.03872 25.9794 6.04035 25.9809C6.04183 25.9821 6.04272 25.9841 6.04272 25.9868C6.04272 25.9889 6.04183 25.9907 6.04035 25.9921C6.03872 25.9938 6.03679 25.9945 6.03442 25.9945C6.0316 25.9945 6.02938 25.9938 6.0279 25.9921C6.02672 25.9907 6.02612 25.9889 6.02612 25.9868C6.02612 25.9841 6.02672 25.9821 6.0279 25.9809C6.02938 25.9794 6.0316 25.9785 6.03442 25.9785Z" fill="white"/>
<path d="M6.05977 25.9815C6.06051 25.9807 6.06125 25.9801 6.06214 25.9797C6.06288 25.979 6.06362 25.9785 6.06451 25.9785C6.06644 25.9785 6.06777 25.9791 6.06866 25.9803C6.06985 25.9815 6.07044 25.9831 6.07044 25.985V25.9939H6.06511V25.9862V25.9856C6.06511 25.9844 6.06481 25.9837 6.06451 25.9833C6.06451 25.9825 6.06407 25.9821 6.06333 25.9821C6.06244 25.9821 6.0617 25.9825 6.06096 25.9833C6.06051 25.9841 6.06036 25.9853 6.06036 25.9868V25.9939H6.05562V25.9862C6.05562 25.9847 6.05533 25.9837 6.05503 25.9833C6.05503 25.9825 6.05459 25.9821 6.05385 25.9821C6.05266 25.9821 6.05177 25.9825 6.05148 25.9833C6.05103 25.9841 6.05088 25.9853 6.05088 25.9868V25.9939H6.04614V25.9791H6.05088V25.9809L6.05266 25.9791C6.0534 25.9788 6.05444 25.9785 6.05562 25.9785C6.05636 25.9785 6.05711 25.979 6.05799 25.9797C6.05873 25.9801 6.05933 25.9807 6.05977 25.9815L6.05977 25.9815Z" fill="white"/>
<path d="M6.08939 25.9746V25.9794H6.09413V25.9823H6.08939V25.9888V25.9906H6.09116H6.09353V25.9942H6.08998C6.0879 25.9942 6.08642 25.9939 6.08524 25.993C6.08435 25.9922 6.08405 25.9909 6.08405 25.9888V25.9823H6.08228V25.9793H6.08405V25.9746L6.08939 25.9746Z" fill="white"/>
<path d="M6.11282 25.985V25.9939H6.10749V25.9868V25.9844C6.10749 25.9841 6.10719 25.9837 6.10689 25.9832C6.10689 25.9829 6.1066 25.9826 6.1063 25.9826C6.1063 25.9823 6.10586 25.982 6.10512 25.982C6.10423 25.982 6.10349 25.9825 6.10275 25.9832C6.1023 25.9841 6.10215 25.9853 6.10215 25.9868V25.9939H6.09741V25.9731H6.10215V25.9808C6.10289 25.9801 6.10363 25.9795 6.10452 25.9791C6.10526 25.9788 6.106 25.9785 6.10689 25.9785C6.10882 25.9785 6.11015 25.9791 6.11104 25.9803C6.11223 25.9814 6.11282 25.9831 6.11282 25.985L6.11282 25.985Z" fill="white"/>
<path d="M6.13148 25.9862V25.988H6.12022C6.12052 25.9892 6.12096 25.9901 6.1214 25.9904C6.12215 25.9908 6.12318 25.991 6.12437 25.991C6.12555 25.991 6.12644 25.9908 6.12733 25.9904C6.12852 25.9901 6.1297 25.9896 6.13089 25.9892V25.9933C6.1297 25.9933 6.12852 25.9936 6.12733 25.9939C6.12644 25.9942 6.12555 25.9945 6.12437 25.9945C6.12111 25.9945 6.11874 25.9938 6.11726 25.9921C6.11607 25.9907 6.11548 25.9889 6.11548 25.9868C6.11548 25.9841 6.11607 25.9821 6.11726 25.9809C6.11874 25.9794 6.12096 25.9785 6.12377 25.9785C6.12615 25.9785 6.12792 25.9794 6.12911 25.9809C6.13059 25.9821 6.13148 25.9838 6.13148 25.9862L6.13148 25.9862ZM6.12674 25.985C6.12674 25.9838 6.12629 25.9831 6.12555 25.9827C6.12511 25.9824 6.12452 25.9821 6.12377 25.9821C6.12289 25.9821 6.12215 25.9824 6.1214 25.9827C6.12096 25.9831 6.12052 25.9838 6.12022 25.985H6.12674Z" fill="white"/>
<path d="M6.14478 25.9741H6.1507L6.15781 25.9878V25.9741H6.16315V25.9943H6.15722L6.14952 25.9806V25.9943H6.14478V25.9741Z" fill="white"/>
<path d="M6.17504 25.9821C6.17386 25.9821 6.17282 25.9825 6.17208 25.9833C6.17164 25.9837 6.17149 25.9849 6.17149 25.9868C6.17149 25.988 6.17164 25.989 6.17208 25.9898C6.17282 25.9907 6.17386 25.991 6.17504 25.991C6.17623 25.991 6.17697 25.9907 6.17741 25.9898C6.17816 25.989 6.1786 25.988 6.1786 25.9868C6.1786 25.9849 6.17816 25.9837 6.17741 25.9833C6.17697 25.9825 6.17623 25.9821 6.17504 25.9821ZM6.17504 25.9785C6.17741 25.9785 6.17934 25.9794 6.18097 25.9809C6.18245 25.9821 6.18334 25.9841 6.18334 25.9868C6.18334 25.9889 6.18245 25.9907 6.18097 25.9921C6.17934 25.9938 6.17741 25.9945 6.17504 25.9945C6.17223 25.9945 6.17001 25.9938 6.16853 25.9921C6.16734 25.9907 6.16675 25.9889 6.16675 25.9868C6.16675 25.9841 6.16734 25.9821 6.16853 25.9809C6.17001 25.9794 6.17223 25.9785 6.17504 25.9785Z" fill="white"/>
<path d="M6.18677 25.9884V25.9795H6.19151V25.9807V25.9842V25.986V25.989V25.9902C6.1918 25.9902 6.1921 25.9905 6.1921 25.9908H6.19388C6.19462 25.9908 6.19521 25.9906 6.19566 25.9902C6.1964 25.9894 6.19684 25.9882 6.19684 25.9866V25.9795H6.20158V25.9943H6.19684V25.9919C6.19595 25.9931 6.19521 25.994 6.19447 25.9943C6.19358 25.9946 6.19269 25.9949 6.19151 25.9949C6.18988 25.9949 6.18869 25.9943 6.18795 25.9931C6.18706 25.9919 6.18677 25.9905 6.18677 25.9884V25.9884Z" fill="white"/>
<path d="M6.22171 25.985V25.9939H6.21637V25.9868V25.9844C6.21637 25.9841 6.21608 25.9837 6.21578 25.9833C6.21578 25.983 6.21548 25.9827 6.21519 25.9827C6.21519 25.9824 6.21474 25.9821 6.214 25.9821C6.21311 25.9821 6.21237 25.9825 6.21163 25.9833C6.21119 25.9841 6.21104 25.9853 6.21104 25.9868V25.9939H6.2063V25.9791H6.21104V25.9809C6.21178 25.9801 6.21252 25.9796 6.21341 25.9791C6.21415 25.9788 6.21489 25.9785 6.21578 25.9785C6.21771 25.9785 6.21904 25.9791 6.21993 25.9803C6.22111 25.9815 6.22171 25.9831 6.22171 25.985L6.22171 25.985Z" fill="white"/>
<path d="M6.23535 25.9741H6.24424C6.24661 25.9741 6.24839 25.9747 6.24957 25.9759C6.25105 25.9771 6.25194 25.9789 6.25194 25.9812C6.25194 25.9833 6.25105 25.9848 6.24957 25.986C6.24839 25.9869 6.24661 25.9872 6.24424 25.9872H6.24068V25.9943H6.23535L6.23535 25.9741ZM6.24068 25.9783V25.9836H6.24365C6.24439 25.9836 6.24498 25.9835 6.24543 25.983C6.24617 25.9827 6.24661 25.9821 6.24661 25.9812C6.24661 25.98 6.24617 25.9793 6.24543 25.9789C6.24498 25.9786 6.24439 25.9783 6.24365 25.9783L6.24068 25.9783Z" fill="white"/>
<path d="M6.26604 25.9833C6.26604 25.983 6.26574 25.9827 6.26544 25.9827C6.265 25.9824 6.26456 25.9821 6.26426 25.9821C6.26263 25.9821 6.26145 25.9827 6.2607 25.9838C6.26026 25.9847 6.26011 25.9856 6.26011 25.9868V25.9939H6.25537V25.9791H6.26011V25.9815C6.26085 25.9803 6.26145 25.9796 6.26189 25.9791C6.26263 25.9788 6.26367 25.9785 6.26485 25.9785H6.26544H6.26604V25.9833Z" fill="white"/>
<path d="M6.27612 25.9821C6.27493 25.9821 6.2739 25.9825 6.27316 25.9833C6.27271 25.9837 6.27256 25.9849 6.27256 25.9868C6.27256 25.988 6.27271 25.989 6.27316 25.9898C6.2739 25.9907 6.27493 25.991 6.27612 25.991C6.2773 25.991 6.27804 25.9907 6.27849 25.9898C6.27923 25.989 6.27967 25.988 6.27967 25.9868C6.27967 25.9849 6.27923 25.9837 6.27849 25.9833C6.27804 25.9825 6.2773 25.9821 6.27612 25.9821ZM6.27612 25.9785C6.27849 25.9785 6.28041 25.9794 6.28204 25.9809C6.28353 25.9821 6.28441 25.9841 6.28441 25.9868C6.28441 25.9889 6.28353 25.9907 6.28204 25.9921C6.28041 25.9938 6.27849 25.9945 6.27612 25.9945C6.2733 25.9945 6.27108 25.9938 6.2696 25.9921C6.26841 25.9907 6.26782 25.9889 6.26782 25.9868C6.26782 25.9841 6.26841 25.9821 6.2696 25.9809C6.27108 25.9794 6.2733 25.9785 6.27612 25.9785Z" fill="white"/>
<path d="M6.28763 25.9791H6.29237V25.9933C6.29237 25.9952 6.29178 25.9968 6.29059 25.998C6.28971 25.9992 6.28837 25.9998 6.28645 25.9998H6.28467V25.9963H6.28526C6.286 25.9963 6.28659 25.996 6.28704 25.9957C6.28733 25.9957 6.28763 25.9948 6.28763 25.9933L6.28763 25.9791ZM6.28763 25.9731H6.29237V25.9767H6.28763V25.9731Z" fill="white"/>
<path d="M6.3119 25.9862V25.988H6.30064C6.30094 25.9892 6.30138 25.9901 6.30182 25.9904C6.30256 25.9908 6.3036 25.991 6.30479 25.991C6.30597 25.991 6.30686 25.9908 6.30775 25.9904C6.30894 25.9901 6.31012 25.9896 6.31131 25.9892V25.9933C6.31012 25.9933 6.30894 25.9936 6.30775 25.9939C6.30686 25.9942 6.30597 25.9945 6.30479 25.9945C6.30153 25.9945 6.29916 25.9938 6.29768 25.9921C6.29649 25.9907 6.2959 25.9889 6.2959 25.9868C6.2959 25.9841 6.29649 25.9821 6.29768 25.9809C6.29916 25.9794 6.30138 25.9785 6.30419 25.9785C6.30657 25.9785 6.30834 25.9794 6.30953 25.9809C6.31101 25.9821 6.3119 25.9838 6.3119 25.9862L6.3119 25.9862ZM6.30716 25.985C6.30716 25.9838 6.30671 25.9831 6.30597 25.9827C6.30553 25.9824 6.30494 25.9821 6.30419 25.9821C6.30331 25.9821 6.30257 25.9824 6.30182 25.9827C6.30138 25.9831 6.30094 25.9838 6.30064 25.985H6.30716Z" fill="white"/>
<path d="M6.32808 25.9791V25.9833C6.3269 25.983 6.32601 25.9827 6.32571 25.9827C6.32527 25.9824 6.32453 25.9821 6.32334 25.9821C6.32216 25.9821 6.32112 25.9825 6.32038 25.9833C6.31949 25.9841 6.31919 25.9853 6.31919 25.9868C6.31919 25.988 6.31949 25.989 6.32038 25.9898C6.32112 25.9907 6.32216 25.991 6.32334 25.991C6.32453 25.991 6.32527 25.9908 6.32571 25.9904C6.32645 25.9901 6.32719 25.9898 6.32808 25.9898V25.9933C6.3269 25.9938 6.32586 25.9939 6.32512 25.9939C6.32468 25.9942 6.32408 25.9945 6.32334 25.9945C6.32008 25.9945 6.31771 25.9938 6.31623 25.9921C6.31505 25.9907 6.31445 25.9889 6.31445 25.9868C6.31445 25.9841 6.31505 25.9821 6.31623 25.9809C6.31771 25.9794 6.32008 25.9785 6.32334 25.9785C6.32408 25.9785 6.32468 25.9788 6.32512 25.9791H6.32808V25.9791Z" fill="white"/>
<path d="M6.33743 25.9746V25.9794H6.34217V25.9823H6.33743V25.9888V25.9906H6.33921H6.34158V25.9942H6.33803C6.33595 25.9942 6.33447 25.9939 6.33329 25.993C6.3324 25.9922 6.3321 25.9909 6.3321 25.9888V25.9823H6.33032V25.9793H6.3321V25.9746L6.33743 25.9746Z" fill="white"/>
</svg>
