<svg width="25" height="24" viewBox="0 0 25 24" fill="none" xmlns="http://www.w3.org/2000/svg">
<path d="M23.2286 17.3143C22.7143 16.9714 22.1143 16.8 21.5143 16.9714L17.4 17.6571V17.3143C17.4 16.2857 16.5429 15.4286 15.5143 15.4286H11.5714C11.4857 15.4286 11.4 15.4286 11.3143 15.3429C10.2857 14.3143 8.91429 13.7143 7.45714 13.7143H4.8C4.11429 12.5143 2.48571 12.0857 1.28571 12.8571C0.514286 13.2857 0 14.1429 0 15V20.1429C0 21.6 1.11429 22.7143 2.57143 22.7143C3.08571 22.7143 3.6 22.5429 4.11429 22.2857L9.08571 23.5714C9.68571 23.8286 10.3714 24 10.9714 24H12.5143C13.4571 24 14.3143 23.8286 15.1714 23.4L22.8857 20.5714C23.5714 20.2286 24.0857 19.5429 24 18.7714C24 18.2571 23.7429 17.6571 23.2286 17.3143ZM2.57143 21C2.05714 21 1.71429 20.6571 1.71429 20.1429V15C1.71429 14.4857 2.05714 14.1429 2.57143 14.1429C3.08571 14.1429 3.42857 14.4857 3.42857 15V20.1429C3.42857 20.6571 3.08571 21 2.57143 21ZM22.2 19.0286L14.4857 21.8571C13.8857 22.1143 13.2 22.2857 12.4286 22.2857H10.8857C10.4571 22.2857 10.0286 22.2 9.68571 22.0286L9.51429 21.9429L5.14286 20.7429V15.4286H7.54286C8.57143 15.4286 9.51429 15.8571 10.2 16.5429C10.5429 16.9714 11.1429 17.1429 11.6571 17.1429H15.5143C15.6 17.1429 15.7714 17.2286 15.7714 17.3143C15.7714 17.4 15.6857 17.5714 15.2571 18H12.2571C11.7429 18 11.4 18.3429 11.4 18.8571C11.4 19.3714 11.7429 19.7143 12.2571 19.7143H15.5143H15.7714H15.8571L21.8571 18.6857H21.9429H22.2C22.2 18.6857 22.2857 18.7714 22.2857 18.8571C22.2857 18.9429 22.2857 19.0286 22.2 19.0286ZM9.68571 5.4C9.68571 4.45714 10.2857 3.6 11.1429 3.25714V3.08571C11.1429 2.57143 11.4857 2.22857 12 2.22857C12.5143 2.22857 12.8571 2.57143 12.8571 3.08571V3.34286C13.5429 3.6 14.0571 4.28571 14.2286 4.97143C14.3143 5.48571 13.9714 5.91429 13.5429 6C13.0286 6.08571 12.6 5.74286 12.5143 5.31429C12.4286 5.05714 12.2571 4.88571 12 4.88571C11.6571 4.88571 11.4 5.14286 11.4 5.48571C11.4 5.74286 11.6571 6 12 6C13.2857 6 14.3143 7.02857 14.3143 8.22857C14.3143 9.17143 13.7143 10.0286 12.8571 10.3714V10.6286C12.8571 11.1429 12.5143 11.4857 12 11.4857C11.4857 11.4857 11.1429 11.1429 11.1429 10.6286V10.3714C10.4571 10.1143 9.85714 9.42857 9.77143 8.65714C9.68571 8.14286 10.0286 7.71429 10.4571 7.62857C10.9714 7.54286 11.4 7.88571 11.4857 8.31429C11.5714 8.57143 11.7429 8.74286 12.0857 8.74286C12.4286 8.65714 12.5143 8.31429 12.4286 8.05714C12.3429 7.88571 12.1714 7.71429 12 7.71429C10.7143 7.71429 9.68571 6.68571 9.68571 5.4ZM12 13.7143C15.7714 13.7143 18.8571 10.6286 18.8571 6.85714C18.8571 3.08571 15.7714 0 12 0C8.22857 0 5.14286 3.08571 5.14286 6.85714C5.14286 10.6286 8.22857 13.7143 12 13.7143ZM12 1.71429C14.8286 1.71429 17.1429 4.02857 17.1429 6.85714C17.1429 9.68571 14.8286 12 12 12C9.17143 12 6.85714 9.68571 6.85714 6.85714C6.85714 4.02857 9.17143 1.71429 12 1.71429Z" fill="#31B6B5"/>
</svg>
