<svg width="25" height="24" viewBox="0 0 25 24" fill="none" xmlns="http://www.w3.org/2000/svg">
<path d="M20.6479 12.332L23.4284 15.1206L20.6479 17.9092" stroke="#DD7D00" stroke-width="1.5" stroke-linecap="round" stroke-linejoin="round"/>
<path d="M23.4288 15.1172H20.6483C16.8092 15.1172 13.697 18.2384 13.697 22.0887V22.0887" stroke="#DD7D00" stroke-width="1.5" stroke-linecap="round" stroke-linejoin="round"/>
<path d="M9.52668 19.3026H3.96569C3.19787 19.3026 2.57544 18.6784 2.57544 17.9083V8.14821C2.57544 7.37816 3.19787 6.75391 3.96569 6.75391H17.8682C18.636 6.75391 19.2584 7.37816 19.2584 8.14821V9.54251" stroke="#DD7D00" stroke-width="1.5" stroke-linecap="round" stroke-linejoin="round"/>
<path d="M18.8095 7.12503L16.1949 3.19124C15.9376 2.80417 15.5048 2.57128 15.041 2.57031H6.79218C6.32736 2.57035 5.89331 2.80335 5.63549 3.19124L3.02368 7.12503" stroke="#DD7D00" stroke-width="1.5" stroke-linecap="round" stroke-linejoin="round"/>
<path d="M10.9172 2.57031V6.75322" stroke="#DD7D00" stroke-width="1.5" stroke-linecap="round" stroke-linejoin="round"/>
</svg>
