<svg width="12" height="12" viewBox="0 0 12 12" fill="none" xmlns="http://www.w3.org/2000/svg">
<path d="M2.96178 10.201H4.03655C4.137 10.201 4.20229 10.2211 4.2726 10.2965L5.03599 11.0548C5.69392 11.7128 6.30664 11.7077 6.95954 11.0548L7.72294 10.2965C7.79325 10.2211 7.86356 10.201 7.95899 10.201H9.03376C9.95787 10.201 10.3948 9.76409 10.3948 8.83496V7.76018C10.3948 7.66476 10.4249 7.59445 10.4953 7.52413L11.2536 6.76074C11.9116 6.10784 11.9065 5.49512 11.2536 4.84222L10.4953 4.0738C10.4249 4.00349 10.3948 3.9382 10.3948 3.84277V2.768C10.3948 1.84389 9.96289 1.40193 9.03376 1.40193H7.95899C7.86356 1.40193 7.79325 1.37681 7.72294 1.3065L6.95954 0.548131C6.30664 -0.109794 5.69392 -0.109794 5.03599 0.548131L4.2726 1.3065C4.20731 1.37681 4.137 1.40193 4.03655 1.40193H2.96178C2.03767 1.40193 1.60073 1.83384 1.60073 2.768V3.84277C1.60073 3.9382 1.57562 4.00349 1.5053 4.0738L0.746933 4.84222C0.0890085 5.49512 0.0940308 6.10784 0.746933 6.76074L1.5053 7.52413C1.57562 7.59445 1.60073 7.66476 1.60073 7.76018V8.83496C1.60073 9.75907 2.03767 10.201 2.96178 10.201Z" fill="#0151FC"/>
<path d="M5.49679 8.25502C5.68262 8.25502 5.83831 8.16462 5.94378 7.99888L8.20884 4.47321C8.27916 4.36775 8.3344 4.24721 8.3344 4.1317C8.3344 3.88058 8.11342 3.71484 7.87235 3.71484C7.72168 3.71484 7.58608 3.80022 7.48061 3.97098L5.48172 7.16016L4.54757 5.97991C4.42704 5.82422 4.3065 5.76897 4.16085 5.76897C3.90974 5.76897 3.71387 5.96987 3.71387 6.22098C3.71387 6.34152 3.75907 6.45201 3.84445 6.5625L5.02972 8.00391C5.16532 8.17466 5.31097 8.25502 5.49679 8.25502Z" fill="white"/>
</svg>
