<svg width="32" height="32" viewBox="0 0 32 32" fill="none" xmlns="http://www.w3.org/2000/svg">
<circle cx="16" cy="16" r="16" fill="#F3F2F1"/>
<path fill-rule="evenodd" clip-rule="evenodd" d="M19.179 8.58301H21.6022C22.6047 8.58301 23.418 9.40335 23.418 10.4154V12.8588C23.418 13.87 22.6047 14.6911 21.6022 14.6911H19.179C18.1757 14.6911 17.3624 13.87 17.3624 12.8588V10.4154C17.3624 9.40335 18.1757 8.58301 19.179 8.58301Z" stroke="#5B616E" stroke-width="1.2" stroke-linecap="round" stroke-linejoin="round"/>
<path fill-rule="evenodd" clip-rule="evenodd" d="M10.3985 8.58203H12.8209C13.8242 8.58203 14.6375 9.40238 14.6375 10.4144V12.8578C14.6375 13.8691 13.8242 14.6902 12.8209 14.6902H10.3985C9.39519 14.6902 8.58191 13.8691 8.58191 12.8578V10.4144C8.58191 9.40238 9.39519 8.58203 10.3985 8.58203Z" stroke="#5B616E" stroke-width="1.2" stroke-linecap="round" stroke-linejoin="round"/>
<path fill-rule="evenodd" clip-rule="evenodd" d="M10.3986 17.3105H12.821C13.8243 17.3105 14.6376 18.1309 14.6376 19.1437V21.5863C14.6376 22.5983 13.8243 23.4187 12.821 23.4187H10.3986C9.39532 23.4187 8.58203 22.5983 8.58203 21.5863V19.1437C8.58203 18.1309 9.39532 17.3105 10.3986 17.3105Z" stroke="#5B616E" stroke-width="1.2" stroke-linecap="round" stroke-linejoin="round"/>
<path fill-rule="evenodd" clip-rule="evenodd" d="M19.179 17.3105H21.6022C22.6047 17.3105 23.418 18.1309 23.418 19.1437V21.5863C23.418 22.5983 22.6047 23.4187 21.6022 23.4187H19.179C18.1757 23.4187 17.3624 22.5983 17.3624 21.5863V19.1437C17.3624 18.1309 18.1757 17.3105 19.179 17.3105Z" stroke="#5B616E" stroke-width="1.2" stroke-linecap="round" stroke-linejoin="round"/>
</svg>
