<svg width="24" height="24" viewBox="0 0 24 24" fill="none" xmlns="http://www.w3.org/2000/svg">
<path d="M12 0C5.38105 0 0 5.38105 0 12C0 18.6189 5.38105 24 12 24C18.6189 24 24 18.6189 24 12C24 5.38105 18.6189 0 12 0ZM19.5284 4.47162C20.5137 5.45689 21.2968 6.61908 21.8274 7.90741L19.7306 8.76632C19.3011 7.73048 18.6947 6.82101 17.9116 6.03789L19.5284 4.47162ZM12 1.36412C13.4401 1.36412 14.8294 1.66722 16.0674 2.17263L15.2085 4.26947C14.2232 3.86522 13.1368 3.63789 12 3.63789V1.36412ZM7.93263 2.17263L8.79153 4.26947C7.7811 4.69892 6.84623 5.30531 6.06311 6.08842L4.44627 4.4968C5.45689 3.48636 6.6443 2.70325 7.93263 2.17263ZM2.17263 7.93263L4.26947 8.79153C3.86522 9.7768 3.63789 10.8632 3.63789 12H1.3643C1.36412 10.5599 1.64202 9.17057 2.17263 7.93263ZM4.47162 19.5284C3.48636 18.5432 2.70325 17.381 2.17263 16.0674L4.26947 15.2085C4.69892 16.2443 5.30531 17.1538 6.08842 17.9369L4.47162 19.5284ZM12 22.6359C10.56 22.6359 9.19583 22.358 7.93268 21.8274L8.79158 19.7306C9.77684 20.1348 10.8632 20.3621 12 20.3621V22.6359ZM4.97689 12.0001C4.97689 8.13487 8.13478 4.97698 12 4.97698C15.8653 4.97698 19.0232 8.13487 19.0232 12.0001C19.0232 15.8654 15.8905 19.0233 12 19.0233C8.10956 19.0233 4.97689 15.8654 4.97689 12.0001ZM16.0674 21.8275L15.2085 19.7307C16.2189 19.3012 17.1538 18.6948 17.9118 17.9117L19.5286 19.5033C18.5432 20.5138 17.3811 21.2969 16.0674 21.8275V21.8275ZM19.7559 15.2086C20.1602 14.2233 20.3875 13.1369 20.3875 12.0001H22.6611C22.6611 13.4402 22.358 14.8295 21.8526 16.0675L19.7559 15.2086Z" fill="#252563"/>
<path fill-rule="evenodd" clip-rule="evenodd" d="M13.3645 8.41589V7H12.2368V8.39697H11.7293L11.7293 7H10.6016L10.6016 8.39697H9V9.11277H9.78394V14.9954H9V15.718H10.6016V17H11.7293V15.718H12.2368V17H13.3645V15.6989C13.8136 15.6551 14.2322 15.406 14.5358 15.002C14.8393 14.5981 15.0052 14.0694 14.9999 13.5228C14.9946 12.9761 14.8184 12.4523 14.5071 12.0573C14.8184 11.6623 14.9945 11.1384 14.9999 10.5919C15.0052 10.0454 14.8393 9.51668 14.5357 9.11277C14.2322 8.70886 13.8136 8.45971 13.3645 8.41589ZM10.9117 14.3499H13.2095C13.4462 14.3499 13.6653 14.1965 13.7838 13.9478C13.9022 13.699 13.9022 13.3925 13.7838 13.1438C13.6654 12.895 13.4466 12.7417 13.2098 12.7417H10.9117V14.3499ZM10.9117 11.3734H13.2095C13.4462 11.3734 13.6653 11.2202 13.7838 10.9715C13.9022 10.7226 13.9022 10.4161 13.7838 10.1673C13.6654 9.91856 13.4466 9.7654 13.2098 9.7654H10.9117V11.3734Z" fill="#FFBB33"/>
</svg>
