<svg width="24" height="24" viewBox="0 0 24 24" fill="none" xmlns="http://www.w3.org/2000/svg">
<path d="M19.1114 20.0013V18.2235C19.1114 17.2805 18.7368 16.3762 18.07 15.7094C17.4032 15.0426 16.4988 14.668 15.5558 14.668H8.44472C7.50172 14.668 6.59735 15.0426 5.93056 15.7094C5.26376 16.3762 4.88916 17.2805 4.88916 18.2235V20.0013" fill="#0151FC"/>
<path d="M19.1114 20.0013V18.2235C19.1114 17.2805 18.7368 16.3762 18.07 15.7094C17.4032 15.0426 16.4988 14.668 15.5558 14.668H8.44472C7.50172 14.668 6.59735 15.0426 5.93056 15.7094C5.26376 16.3762 4.88916 17.2805 4.88916 18.2235V20.0013H19.1114Z" stroke="#0151FC" stroke-linecap="round" stroke-linejoin="round"/>
<path d="M11.9999 11.1131C13.9636 11.1131 15.5554 9.52119 15.5554 7.55751C15.5554 5.59383 13.9636 4.00195 11.9999 4.00195C10.0362 4.00195 8.44434 5.59383 8.44434 7.55751C8.44434 9.52119 10.0362 11.1131 11.9999 11.1131Z" fill="#0151FC" stroke="#0151FC" stroke-linecap="round" stroke-linejoin="round"/>
</svg>
