<svg width="24" height="24" viewBox="0 0 24 24" fill="none" xmlns="http://www.w3.org/2000/svg">
<path fill-rule="evenodd" clip-rule="evenodd" d="M14.2124 8.43954C14.2124 10.9041 12.0489 12.8791 9.34933 12.8791C6.6507 12.8791 4.48631 10.9041 4.48631 8.43954C4.48631 5.97501 6.6507 4 9.34933 4C12.0489 4 14.2124 5.97501 14.2124 8.43954ZM2 17.906C2 15.6246 5.38553 15.0538 9.34933 15.0538C13.3347 15.0538 16.6987 15.6443 16.6987 17.9275C16.6987 20.2089 13.3131 20.7797 9.34933 20.7797C5.364 20.7797 2 20.1892 2 17.906ZM16.1734 8.52002C16.1734 9.77506 15.7605 10.9461 15.0364 11.9189C14.9611 12.0189 15.0276 12.1538 15.1587 12.1753C15.3407 12.203 15.5276 12.2199 15.7184 12.2235C17.6167 12.2691 19.3202 11.1534 19.7908 9.47314C20.4885 6.98003 18.4415 4.7415 15.8339 4.7415C15.5511 4.7415 15.2801 4.7683 15.0159 4.81743C14.9797 4.82457 14.9405 4.84065 14.921 4.86924C14.8955 4.90586 14.9141 4.95321 14.9396 4.98447C15.7233 5.98761 16.1734 7.2087 16.1734 8.52002ZM19.3173 13.9767C20.5932 14.2045 21.4317 14.6681 21.7791 15.3443C22.0736 15.8981 22.0736 16.5413 21.7791 17.0951C21.2478 18.142 19.5335 18.4788 18.8672 18.5654C18.7292 18.5833 18.6186 18.4761 18.6333 18.3493C18.9738 15.4479 16.2664 14.0723 15.5658 13.7561C15.5364 13.7409 15.5296 13.7195 15.5325 13.7052C15.5345 13.6962 15.5472 13.6819 15.5697 13.6793C17.0854 13.6525 18.7155 13.8427 19.3173 13.9767Z" fill="#DD7D00"/>
</svg>
