<svg width="24" height="24" viewBox="0 0 24 24" fill="none" xmlns="http://www.w3.org/2000/svg">
<path fill-rule="evenodd" clip-rule="evenodd" d="M9.35857 14.0768L3.21258 17.1497C1.4212 17.261 0 18.7517 0 20.5714C0 22.464 1.53596 24 3.42859 24C5.32121 24 6.85717 22.464 6.85717 20.5714C6.85717 19.4862 6.35224 18.5184 5.56455 17.8903L11.1429 15.1012V17.2507C9.66504 17.6322 8.57141 18.9754 8.57141 20.5714C8.57141 22.464 10.1074 24 12 24C13.8926 24 15.4286 22.464 15.4286 20.5714C15.4286 18.9754 14.335 17.6322 12.8571 17.2507V15.1012L18.4355 17.8903C17.6478 18.5184 17.1428 19.4862 17.1428 20.5714C17.1428 22.464 18.6788 24 20.5714 24C22.464 24 24 22.464 24 20.5714C24 18.7517 22.5788 17.261 20.7874 17.1497L14.6414 14.0768C17.3587 13.0182 19.2855 10.3748 19.2855 7.28574C19.2855 3.2648 16.0207 0 11.9998 0C7.97881 0 4.71401 3.2648 4.71401 7.28574C4.71401 10.3749 6.64088 13.0183 9.35808 14.0768H9.35857ZM20.5715 18.8571C21.5178 18.8571 22.2858 19.6251 22.2858 20.5714C22.2858 21.5177 21.5178 22.2857 20.5715 22.2857C19.6252 22.2857 18.8572 21.5177 18.8572 20.5714C18.8572 19.6251 19.6252 18.8571 20.5715 18.8571ZM3.42859 18.8571C4.37488 18.8571 5.14288 19.6251 5.14288 20.5714C5.14288 21.5177 4.37488 22.2857 3.42859 22.2857C2.4823 22.2857 1.71429 21.5177 1.71429 20.5714C1.71429 19.6251 2.4823 18.8571 3.42859 18.8571ZM12 18.8571C12.9463 18.8571 13.7143 19.6251 13.7143 20.5714C13.7143 21.5177 12.9463 22.2857 12 22.2857C11.0538 22.2857 10.2858 21.5177 10.2858 20.5714C10.2858 19.6251 11.0538 18.8571 12 18.8571ZM14.9693 12C14.3762 10.9748 13.2678 10.2857 12 10.2857C10.7323 10.2857 9.62394 10.9756 9.03084 12C9.88721 12.5408 10.902 12.8554 11.9897 12.8571H12.0104C13.0981 12.8554 14.1121 12.5408 14.9693 12ZM16.2754 10.8566C17.0846 9.88882 17.5715 8.64425 17.5715 7.28565C17.5715 4.21104 15.0747 1.71419 12 1.71419C8.92544 1.71419 6.4286 4.21104 6.4286 7.28565C6.4286 8.64425 6.91553 9.88882 7.72465 10.8566C8.64782 9.47901 10.219 8.57137 12 8.57137C13.7811 8.57137 15.3523 9.47901 16.2754 10.8566ZM12 2.57115C10.5806 2.57115 9.42861 3.72315 9.42861 5.14258C9.42861 6.56202 10.5806 7.71402 12 7.71402C13.4195 7.71402 14.5715 6.56202 14.5715 5.14258C14.5715 3.72315 13.4195 2.57115 12 2.57115ZM12 4.28544C12.4732 4.28544 12.8572 4.66943 12.8572 5.14258C12.8572 5.61574 12.4732 5.99973 12 5.99973C11.5269 5.99973 11.1429 5.61574 11.1429 5.14258C11.1429 4.66943 11.5269 4.28544 12 4.28544Z" fill="#2E89FF"/>
</svg>
