<svg width="24" height="24" viewBox="0 0 24 24" fill="none" xmlns="http://www.w3.org/2000/svg">
<path d="M13.2701 8.26953L22.6001 16.7118C22.8458 16.9475 22.9838 17.2673 22.9838 17.6007C22.9838 17.9342 22.8458 18.254 22.6001 18.4897L21.6741 19.3777C21.4288 19.6138 21.0958 19.7465 20.7486 19.7465C20.4013 19.7465 20.0683 19.6138 19.8231 19.3777L11.0291 10.4257" stroke="#FF3366" stroke-width="1.5" stroke-linecap="round" stroke-linejoin="round"/>
<path fill-rule="evenodd" clip-rule="evenodd" d="M3.58008 8.23339C6.69325 6.57485 9.25944 4.11131 10.9871 1.12267C11.2323 0.886589 11.5653 0.753906 11.9126 0.753906C12.2599 0.753906 12.5929 0.886589 12.8381 1.12267L16.3481 4.49227C16.594 4.72767 16.7322 5.04736 16.7322 5.38075C16.7322 5.71414 16.594 6.03382 16.3481 6.26923C13.2037 7.88768 10.627 10.3613 8.94108 13.3799C8.69557 13.6158 8.36245 13.7484 8.01508 13.7484C7.66772 13.7484 7.3346 13.6158 7.08908 13.3799L3.58008 10.0113C3.33436 9.77561 3.19629 9.45581 3.19629 9.12235C3.19629 8.78888 3.33436 8.46908 3.58008 8.23339Z" stroke="#FF3366" stroke-width="1.5" stroke-linecap="round" stroke-linejoin="round"/>
<path fill-rule="evenodd" clip-rule="evenodd" d="M12.75 20.8814V20.8814C12.75 20.0861 12.0784 19.4414 11.25 19.4414H3.75C2.92157 19.4414 2.25 20.0861 2.25 20.8814V20.8814V22.3214H12.75V20.8814Z" stroke="#FF3366" stroke-width="1.5" stroke-linecap="round" stroke-linejoin="round"/>
<path d="M0.75 22.3203H14.25" stroke="#FF3366" stroke-width="1.5" stroke-linecap="round" stroke-linejoin="round"/>
</svg>
