<svg width="72" height="40" viewBox="0 0 72 40" fill="none" xmlns="http://www.w3.org/2000/svg">
<path d="M16.1191 20.2227C19.9688 20.2227 23.2031 16.8125 23.2031 12.4004C23.2031 8.09375 19.9336 4.80664 16.1191 4.80664C12.3047 4.80664 9.01758 8.14648 9.03516 12.4355C9.03516 16.8125 12.2871 20.2227 16.1191 20.2227ZM36.0176 20.2227C39.8496 20.2227 43.1016 16.8125 43.1016 12.4004C43.1016 8.09375 39.832 4.80664 36.0176 4.80664C32.1855 4.80664 28.916 8.14648 28.9336 12.4355C28.9336 16.8125 32.168 20.2227 36.0176 20.2227ZM55.8809 20.2227C59.7129 20.2227 62.9648 16.8125 62.9648 12.4004C62.9648 8.09375 59.6953 4.80664 55.8809 4.80664C52.0664 4.80664 48.7793 8.14648 48.7969 12.4355C48.7969 16.8125 52.0488 20.2227 55.8809 20.2227ZM5.15039 36.5703H27.0703C29.9707 36.5703 30.9727 35.6914 30.9727 34.0918C30.9727 29.5566 25.2246 23.334 16.1191 23.334C6.99609 23.334 1.26562 29.5566 1.26562 34.0918C1.26562 35.6914 2.26758 36.5703 5.15039 36.5703ZM36 23.334C33.0645 23.334 30.4805 24.002 28.3359 25.0391C31.4121 27.4473 33.3809 30.6641 33.3809 34.0918C33.3809 35.0586 33.1699 35.8848 32.748 36.5703H46.9688C49.8516 36.5703 50.8535 35.6914 50.8535 34.0918C50.8535 29.5566 45.123 23.334 36 23.334ZM55.8809 23.334C52.9453 23.334 50.3613 24.002 48.2168 25.0391C51.293 27.4297 53.2617 30.6641 53.2617 34.0918C53.2617 35.0586 53.0508 35.8848 52.6465 36.5703H66.832C69.7148 36.5703 70.7168 35.6914 70.7168 34.0918C70.7168 29.5566 64.9863 23.334 55.8809 23.334Z" fill="#89909E"/>
</svg>
