<svg width="32" height="32" viewBox="0 0 32 32" fill="none" xmlns="http://www.w3.org/2000/svg">
<rect width="32" height="32" rx="16" fill="#0151FC"/>
<path d="M16.8337 15.293H11.8337" stroke="#F6F8FC" stroke-linecap="round" stroke-linejoin="round"/>
<path d="M7.66626 15.2922V11.4422C7.66626 9.74219 9.04126 8.36719 10.7413 8.36719H15.4246C17.1246 8.36719 18.4996 9.42552 18.4996 11.1255" stroke="#F6F8FC" stroke-linecap="round" stroke-linejoin="round"/>
<path d="M20.5662 16.1647C20.1496 16.5647 19.9496 17.1814 20.1163 17.8147C20.3246 18.5897 21.0913 19.0814 21.8913 19.0814H22.6663V20.2897C22.6663 22.1314 21.1746 23.623 19.3329 23.623H10.9996C9.15793 23.623 7.66626 22.1314 7.66626 20.2897V14.4564C7.66626 12.6147 9.15793 11.123 10.9996 11.123H19.3329C21.1663 11.123 22.6663 12.623 22.6663 14.4564V15.6647H21.7662C21.2996 15.6647 20.8746 15.848 20.5662 16.1647Z" stroke="#F6F8FC" stroke-linecap="round" stroke-linejoin="round"/>
<path d="M24.3331 16.516V18.2327C24.3331 18.6994 23.9497 19.0827 23.4747 19.0827H21.8664C20.9664 19.0827 20.1414 18.4244 20.0664 17.5244C20.0164 16.9994 20.2164 16.5077 20.5664 16.166C20.8748 15.8494 21.2998 15.666 21.7664 15.666H23.4747C23.9497 15.666 24.3331 16.0494 24.3331 16.516Z" stroke="#F6F8FC" stroke-linecap="round" stroke-linejoin="round"/>
</svg>
