<svg xmlns="http://www.w3.org/2000/svg" xmlns:xlink="http://www.w3.org/1999/xlink" version="1.1" width="256" height="256" viewBox="0 0 256 256" xml:space="preserve">

<defs>
</defs>
<g style="stroke: none; stroke-width: 0; stroke-dasharray: none; stroke-linecap: butt; stroke-linejoin: miter; stroke-miterlimit: 10; fill: none; fill-rule: nonzero; opacity: 1;" transform="translate(1.4065934065934016 1.4065934065934016) scale(2.81 2.81)" >
	<path d="M 14.483 47.981 H 7.757 c -0.552 0 -1 -0.447 -1 -1 v -6.726 c 0 -0.552 0.448 -1 1 -1 h 6.726 c 0.552 0 1 0.448 1 1 v 6.726 C 15.483 47.534 15.036 47.981 14.483 47.981 z M 8.757 45.981 h 4.726 v -4.726 H 8.757 V 45.981 z" style="stroke: none; stroke-width: 1; stroke-dasharray: none; stroke-linecap: butt; stroke-linejoin: miter; stroke-miterlimit: 10; fill: rgb(0,0,0); fill-rule: nonzero; opacity: 1;" transform=" matrix(1 0 0 1 0 0) " stroke-linecap="round" />
	<path d="M 28.035 47.981 h -6.726 c -0.552 0 -1 -0.447 -1 -1 v -6.726 c 0 -0.552 0.448 -1 1 -1 h 6.726 c 0.552 0 1 0.448 1 1 v 6.726 C 29.035 47.534 28.587 47.981 28.035 47.981 z M 22.309 45.981 h 4.726 v -4.726 h -4.726 V 45.981 z" style="stroke: none; stroke-width: 1; stroke-dasharray: none; stroke-linecap: butt; stroke-linejoin: miter; stroke-miterlimit: 10; fill: rgb(0,0,0); fill-rule: nonzero; opacity: 1;" transform=" matrix(1 0 0 1 0 0) " stroke-linecap="round" />
	<path d="M 41.587 47.981 h -6.726 c -0.552 0 -1 -0.447 -1 -1 v -6.726 c 0 -0.552 0.448 -1 1 -1 h 6.726 c 0.552 0 1 0.448 1 1 v 6.726 C 42.587 47.534 42.139 47.981 41.587 47.981 z M 35.861 45.981 h 4.726 v -4.726 h -4.726 V 45.981 z" style="stroke: none; stroke-width: 1; stroke-dasharray: none; stroke-linecap: butt; stroke-linejoin: miter; stroke-miterlimit: 10; fill: rgb(0,0,0); fill-rule: nonzero; opacity: 1;" transform=" matrix(1 0 0 1 0 0) " stroke-linecap="round" />
	<path d="M 55.139 47.981 h -6.726 c -0.553 0 -1 -0.447 -1 -1 v -6.726 c 0 -0.552 0.447 -1 1 -1 h 6.726 c 0.553 0 1 0.448 1 1 v 6.726 C 56.139 47.534 55.691 47.981 55.139 47.981 z M 49.413 45.981 h 4.726 v -4.726 h -4.726 V 45.981 z" style="stroke: none; stroke-width: 1; stroke-dasharray: none; stroke-linecap: butt; stroke-linejoin: miter; stroke-miterlimit: 10; fill: rgb(0,0,0); fill-rule: nonzero; opacity: 1;" transform=" matrix(1 0 0 1 0 0) " stroke-linecap="round" />
	<path d="M 68.69 47.981 h -6.726 c -0.553 0 -1 -0.447 -1 -1 v -6.726 c 0 -0.552 0.447 -1 1 -1 h 6.726 c 0.553 0 1 0.448 1 1 v 6.726 C 69.69 47.534 69.243 47.981 68.69 47.981 z M 62.965 45.981 h 4.726 v -4.726 h -4.726 V 45.981 z" style="stroke: none; stroke-width: 1; stroke-dasharray: none; stroke-linecap: butt; stroke-linejoin: miter; stroke-miterlimit: 10; fill: rgb(0,0,0); fill-rule: nonzero; opacity: 1;" transform=" matrix(1 0 0 1 0 0) " stroke-linecap="round" />
	<path d="M 82.243 47.981 h -6.727 c -0.553 0 -1 -0.447 -1 -1 v -6.726 c 0 -0.552 0.447 -1 1 -1 h 6.727 c 0.553 0 1 0.448 1 1 v 6.726 C 83.243 47.534 82.796 47.981 82.243 47.981 z M 76.517 45.981 h 4.727 v -4.726 h -4.727 V 45.981 z" style="stroke: none; stroke-width: 1; stroke-dasharray: none; stroke-linecap: butt; stroke-linejoin: miter; stroke-miterlimit: 10; fill: rgb(0,0,0); fill-rule: nonzero; opacity: 1;" transform=" matrix(1 0 0 1 0 0) " stroke-linecap="round" />
	<path d="M 14.483 59.981 H 7.757 c -0.552 0 -1 -0.447 -1 -1 v -6.727 c 0 -0.553 0.448 -1 1 -1 h 6.726 c 0.552 0 1 0.447 1 1 v 6.727 C 15.483 59.534 15.036 59.981 14.483 59.981 z M 8.757 57.981 h 4.726 v -4.727 H 8.757 V 57.981 z" style="stroke: none; stroke-width: 1; stroke-dasharray: none; stroke-linecap: butt; stroke-linejoin: miter; stroke-miterlimit: 10; fill: rgb(0,0,0); fill-rule: nonzero; opacity: 1;" transform=" matrix(1 0 0 1 0 0) " stroke-linecap="round" />
	<path d="M 28.035 59.981 h -6.726 c -0.552 0 -1 -0.447 -1 -1 v -6.727 c 0 -0.553 0.448 -1 1 -1 h 6.726 c 0.552 0 1 0.447 1 1 v 6.727 C 29.035 59.534 28.587 59.981 28.035 59.981 z M 22.309 57.981 h 4.726 v -4.727 h -4.726 V 57.981 z" style="stroke: none; stroke-width: 1; stroke-dasharray: none; stroke-linecap: butt; stroke-linejoin: miter; stroke-miterlimit: 10; fill: rgb(0,0,0); fill-rule: nonzero; opacity: 1;" transform=" matrix(1 0 0 1 0 0) " stroke-linecap="round" />
	<path d="M 41.587 59.981 h -6.726 c -0.552 0 -1 -0.447 -1 -1 v -6.727 c 0 -0.553 0.448 -1 1 -1 h 6.726 c 0.552 0 1 0.447 1 1 v 6.727 C 42.587 59.534 42.139 59.981 41.587 59.981 z M 35.861 57.981 h 4.726 v -4.727 h -4.726 V 57.981 z" style="stroke: none; stroke-width: 1; stroke-dasharray: none; stroke-linecap: butt; stroke-linejoin: miter; stroke-miterlimit: 10; fill: rgb(0,0,0); fill-rule: nonzero; opacity: 1;" transform=" matrix(1 0 0 1 0 0) " stroke-linecap="round" />
	<path d="M 55.139 59.981 h -6.726 c -0.553 0 -1 -0.447 -1 -1 v -6.727 c 0 -0.553 0.447 -1 1 -1 h 6.726 c 0.553 0 1 0.447 1 1 v 6.727 C 56.139 59.534 55.691 59.981 55.139 59.981 z M 49.413 57.981 h 4.726 v -4.727 h -4.726 V 57.981 z" style="stroke: none; stroke-width: 1; stroke-dasharray: none; stroke-linecap: butt; stroke-linejoin: miter; stroke-miterlimit: 10; fill: rgb(0,0,0); fill-rule: nonzero; opacity: 1;" transform=" matrix(1 0 0 1 0 0) " stroke-linecap="round" />
	<path d="M 68.69 59.981 h -6.726 c -0.553 0 -1 -0.447 -1 -1 v -6.727 c 0 -0.553 0.447 -1 1 -1 h 6.726 c 0.553 0 1 0.447 1 1 v 6.727 C 69.69 59.534 69.243 59.981 68.69 59.981 z M 62.965 57.981 h 4.726 v -4.727 h -4.726 V 57.981 z" style="stroke: none; stroke-width: 1; stroke-dasharray: none; stroke-linecap: butt; stroke-linejoin: miter; stroke-miterlimit: 10; fill: rgb(0,0,0); fill-rule: nonzero; opacity: 1;" transform=" matrix(1 0 0 1 0 0) " stroke-linecap="round" />
	<path d="M 82.243 59.981 h -6.727 c -0.553 0 -1 -0.447 -1 -1 v -6.727 c 0 -0.553 0.447 -1 1 -1 h 6.727 c 0.553 0 1 0.447 1 1 v 6.727 C 83.243 59.534 82.796 59.981 82.243 59.981 z M 76.517 57.981 h 4.727 v -4.727 h -4.727 V 57.981 z" style="stroke: none; stroke-width: 1; stroke-dasharray: none; stroke-linecap: butt; stroke-linejoin: miter; stroke-miterlimit: 10; fill: rgb(0,0,0); fill-rule: nonzero; opacity: 1;" transform=" matrix(1 0 0 1 0 0) " stroke-linecap="round" />
	<path d="M 14.483 71.981 H 7.757 c -0.552 0 -1 -0.447 -1 -1 v -6.727 c 0 -0.553 0.448 -1 1 -1 h 6.726 c 0.552 0 1 0.447 1 1 v 6.727 C 15.483 71.534 15.036 71.981 14.483 71.981 z M 8.757 69.981 h 4.726 v -4.727 H 8.757 V 69.981 z" style="stroke: none; stroke-width: 1; stroke-dasharray: none; stroke-linecap: butt; stroke-linejoin: miter; stroke-miterlimit: 10; fill: rgb(0,0,0); fill-rule: nonzero; opacity: 1;" transform=" matrix(1 0 0 1 0 0) " stroke-linecap="round" />
	<path d="M 68.69 71.981 H 21.309 c -0.552 0 -1 -0.447 -1 -1 v -6.727 c 0 -0.553 0.448 -1 1 -1 H 68.69 c 0.553 0 1 0.447 1 1 v 6.727 C 69.69 71.534 69.243 71.981 68.69 71.981 z M 22.309 69.981 H 67.69 v -4.727 H 22.309 V 69.981 z" style="stroke: none; stroke-width: 1; stroke-dasharray: none; stroke-linecap: butt; stroke-linejoin: miter; stroke-miterlimit: 10; fill: rgb(0,0,0); fill-rule: nonzero; opacity: 1;" transform=" matrix(1 0 0 1 0 0) " stroke-linecap="round" />
	<path d="M 82.243 71.981 h -6.727 c -0.553 0 -1 -0.447 -1 -1 v -6.727 c 0 -0.553 0.447 -1 1 -1 h 6.727 c 0.553 0 1 0.447 1 1 v 6.727 C 83.243 71.534 82.796 71.981 82.243 71.981 z M 76.517 69.981 h 4.727 v -4.727 h -4.727 V 69.981 z" style="stroke: none; stroke-width: 1; stroke-dasharray: none; stroke-linecap: butt; stroke-linejoin: miter; stroke-miterlimit: 10; fill: rgb(0,0,0); fill-rule: nonzero; opacity: 1;" transform=" matrix(1 0 0 1 0 0) " stroke-linecap="round" />
	<path d="M 86.86 32.935 H 45 v -3.101 c 0 -1.951 1.587 -3.538 3.538 -3.538 h 35.924 c 3.054 0 5.538 -2.484 5.538 -5.539 c 0 -3.054 -2.484 -5.538 -5.538 -5.538 H 31.501 c -0.458 -2.012 -2.253 -3.521 -4.401 -3.521 h -6.181 c -0.552 0 -1 0.448 -1 1 v 2.521 h -2.6 v 2 h 2.6 v 2.521 c 0 0.552 0.448 1 1 1 H 27.1 c 2.148 0 3.944 -1.509 4.401 -3.521 h 52.961 c 1.951 0 3.538 1.587 3.538 3.538 c 0 1.951 -1.587 3.539 -3.538 3.539 H 48.538 c -3.054 0 -5.538 2.484 -5.538 5.538 v 3.101 H 3.139 C 1.408 32.935 0 34.343 0 36.074 v 39.089 c 0 1.73 1.408 3.139 3.139 3.139 H 86.86 c 1.731 0 3.14 -1.408 3.14 -3.139 V 36.074 C 90 34.343 88.592 32.935 86.86 32.935 z M 27.1 18.74 h -5.181 v -5.042 H 27.1 c 1.39 0 2.521 1.131 2.521 2.521 S 28.49 18.74 27.1 18.74 z M 88 75.163 c 0 0.628 -0.512 1.139 -1.14 1.139 H 3.139 C 2.511 76.302 2 75.791 2 75.163 V 36.074 c 0 -0.628 0.511 -1.139 1.139 -1.139 H 86.86 c 0.628 0 1.14 0.511 1.14 1.139 V 75.163 z" style="stroke: none; stroke-width: 1; stroke-dasharray: none; stroke-linecap: butt; stroke-linejoin: miter; stroke-miterlimit: 10; fill: rgb(0,0,0); fill-rule: nonzero; opacity: 1;" transform=" matrix(1 0 0 1 0 0) " stroke-linecap="round" />
</g>
</svg>