<svg xmlns="http://www.w3.org/2000/svg" xmlns:xlink="http://www.w3.org/1999/xlink" version="1.1" width="256" height="256" viewBox="0 0 256 256" xml:space="preserve">

<defs>
</defs>
<g style="stroke: none; stroke-width: 0; stroke-dasharray: none; stroke-linecap: butt; stroke-linejoin: miter; stroke-miterlimit: 10; fill: none; fill-rule: nonzero; opacity: 1;" transform="translate(1.4065934065934016 1.4065934065934016) scale(2.81 2.81)" >
	<path d="M 82.27 17.847 c 0.149 0 0.27 0.121 0.27 0.27 v 46.165 H 7.459 V 18.117 c 0 -0.149 0.121 -0.27 0.27 -0.27 H 82.27 M 82.27 14.764 H 7.73 c -1.852 0 -3.353 1.501 -3.353 3.353 v 49.247 h 81.246 V 18.117 C 85.623 16.265 84.122 14.764 82.27 14.764 L 82.27 14.764 z" style="stroke: none; stroke-width: 1; stroke-dasharray: none; stroke-linecap: butt; stroke-linejoin: miter; stroke-miterlimit: 10; fill: rgb(0,0,0); fill-rule: nonzero; opacity: 1;" transform=" matrix(1 0 0 1 0 0) " stroke-linecap="round" />
	<path d="M 88.293 70.108 c 0 1.89 -1.532 3.421 -3.421 3.421 H 5.128 c -1.89 0 -3.421 -1.532 -3.421 -3.421" style="stroke: none; stroke-width: 1; stroke-dasharray: none; stroke-linecap: butt; stroke-linejoin: miter; stroke-miterlimit: 10; fill: rgb(0,0,0); fill-rule: nonzero; opacity: 1;" transform=" matrix(1 0 0 1 0 0) " stroke-linecap="round" />
	<path d="M 84.872 75.236 H 5.128 C 2.3 75.236 0 72.935 0 70.107 h 3.414 c 0 0.946 0.769 1.715 1.714 1.715 h 79.744 c 0.946 0 1.715 -0.769 1.715 -1.715 H 90 C 90 72.935 87.699 75.236 84.872 75.236 z" style="stroke: none; stroke-width: 1; stroke-dasharray: none; stroke-linecap: butt; stroke-linejoin: miter; stroke-miterlimit: 10; fill: rgb(0,0,0); fill-rule: nonzero; opacity: 1;" transform=" matrix(1 0 0 1 0 0) " stroke-linecap="round" />
</g>
</svg>