<svg xmlns="http://www.w3.org/2000/svg" width="20" height="16.994" viewBox="0 0 20 16.994">
  <path id="ic_danh_sách" data-name="ic danh sách" d="M194.494,194.93H193a1.011,1.011,0,0,0-1,1.023V197a1.01,1.01,0,0,0,1,1.023h1.5a1.011,1.011,0,0,0,1-1.023v-1.045A1.01,1.01,0,0,0,194.494,194.93Zm0,6.951H193a1.011,1.011,0,0,0-1,1.023v1.045a1.01,1.01,0,0,0,1,1.023h1.5a1.011,1.011,0,0,0,1-1.023V202.9A1.01,1.01,0,0,0,194.494,201.88Zm0,6.953H193a1.011,1.011,0,0,0-1,1.023V210.9a1.01,1.01,0,0,0,1,1.023h1.5a1.011,1.011,0,0,0,1-1.023v-1.045A1.01,1.01,0,0,0,194.494,208.833Zm4.494-11.336h11.98a.991.991,0,0,0,.894-.5,1.047,1.047,0,0,0,0-1.045.991.991,0,0,0-.894-.5h-11.98a.991.991,0,0,0-.893.5,1.047,1.047,0,0,0,0,1.045A.991.991,0,0,0,198.987,197.5Zm11.98,4.905h-11.98a.991.991,0,0,0-.894.5,1.047,1.047,0,0,0,0,1.045.991.991,0,0,0,.894.5h11.98a.991.991,0,0,0,.894-.5,1.047,1.047,0,0,0,0-1.045A.991.991,0,0,0,210.967,202.4Zm0,6.953h-11.98a.991.991,0,0,0-.893.5,1.047,1.047,0,0,0,0,1.045.991.991,0,0,0,.893.5h11.98a.991.991,0,0,0,.894-.5,1.047,1.047,0,0,0,0-1.045A.991.991,0,0,0,210.967,209.356Z" transform="translate(-192 -194.93)"/>
</svg>
