<svg width="32" height="33" viewBox="0 0 32 33" fill="none" xmlns="http://www.w3.org/2000/svg">
<circle cx="16" cy="16.2812" r="16" fill="#0151FC"/>
<path d="M22.6473 10.3275C22.9248 10.3275 23.1909 10.4377 23.3871 10.6339C23.5833 10.8301 23.6936 11.0962 23.6936 11.3737V19.7436C23.6936 20.0211 23.5833 20.2872 23.3871 20.4834C23.1909 20.6796 22.9248 20.7899 22.6473 20.7899H12.6181C12.0632 20.79 11.531 21.0105 11.1387 21.403L9.04624 23.4954V11.3737C9.04624 11.0962 9.15647 10.8301 9.35267 10.6339C9.54888 10.4377 9.815 10.3275 10.0925 10.3275H22.6473ZM10.0925 9.28125C9.53752 9.28125 9.00529 9.50171 8.61287 9.89412C8.22046 10.2865 8 10.8188 8 11.3737V24.7582C8.00002 24.8618 8.03075 24.9629 8.0883 25.049C8.14585 25.135 8.22763 25.202 8.32329 25.2416C8.41895 25.2811 8.52419 25.2914 8.62569 25.2711C8.72719 25.2508 8.82039 25.2008 8.89349 25.1276L11.8784 22.1426C12.0746 21.9464 12.3406 21.8362 12.6181 21.8361H22.6473C23.2023 21.8361 23.7345 21.6156 24.1269 21.2232C24.5193 20.8308 24.7398 20.2986 24.7398 19.7436V11.3737C24.7398 10.8188 24.5193 10.2865 24.1269 9.89412C23.7345 9.50171 23.2023 9.28125 22.6473 9.28125H10.0925Z" fill="white"/>
<path d="M16.4504 18.092V19.3253M18.2049 13.4771C17.8043 13.0765 17.099 12.7981 16.4504 12.7806L18.2049 13.4771ZM14.6959 17.2785C15.0725 17.7814 15.7738 18.068 16.4504 18.092L14.6959 17.2785ZM16.4504 12.7806C15.6784 12.7595 14.9883 13.1087 14.9883 14.0619C14.9883 15.8164 18.2049 14.9392 18.2049 16.6936C18.2049 17.6943 17.3487 18.1241 16.4504 18.092V12.7806ZM16.4504 12.7806V11.7227V12.7806Z" stroke="white" stroke-width="0.877234" stroke-linecap="round" stroke-linejoin="round"/>
</svg>
