<svg width="32" height="32" viewBox="0 0 32 32" fill="none" xmlns="http://www.w3.org/2000/svg">
<circle cx="16" cy="16" r="16" fill="#0151FC"/>
<path fill-rule="evenodd" clip-rule="evenodd" d="M24.1824 12.2148L16.5249 8.25402C16.1918 8.08199 15.796 8.08199 15.4629 8.25402L7.80695 12.2148C7.65319 12.2938 7.55652 12.4521 7.55652 12.625C7.55652 12.7979 7.65319 12.9562 7.80695 13.0353L15.4637 16.996C15.7968 17.168 16.1926 17.168 16.5257 16.996L24.1824 13.0353C24.3357 12.9559 24.432 12.7976 24.432 12.625C24.432 12.4524 24.3357 12.2942 24.1824 12.2148Z" stroke="white" stroke-width="1.2" stroke-linecap="round" stroke-linejoin="round"/>
<path d="M7.56848 16.5625L15.4637 20.371C15.7968 20.543 16.1926 20.543 16.5257 20.371L24.4435 16.5625" stroke="white" stroke-width="1.2" stroke-linecap="round" stroke-linejoin="round"/>
<path d="M7.56848 19.9375L15.4637 23.746C15.7968 23.918 16.1926 23.918 16.5257 23.746L24.4435 19.9375" stroke="white" stroke-width="1.2" stroke-linecap="round" stroke-linejoin="round"/>
</svg>
