<svg width="32" height="32" viewBox="0 0 32 32" fill="none" xmlns="http://www.w3.org/2000/svg">
<circle cx="16" cy="16" r="16" fill="#F3F2F1"/>
<path d="M16 8V24" stroke="#5B616E" stroke-width="1.2" stroke-linecap="round" stroke-linejoin="round"/>
<path d="M19.3333 11H14.3333C13.7145 11 13.121 11.2634 12.6834 11.7322C12.2458 12.2011 12 12.837 12 13.5C12 14.163 12.2458 14.7989 12.6834 15.2678C13.121 15.7366 13.7145 16 14.3333 16H17.6667C18.2855 16 18.879 16.2634 19.3166 16.7322C19.7542 17.2011 20 17.837 20 18.5C20 19.163 19.7542 19.7989 19.3166 20.2678C18.879 20.7366 18.2855 21 17.6667 21H12" stroke="#5B616E" stroke-width="1.2" stroke-linecap="round" stroke-linejoin="round"/>
</svg>
