<svg width="32" height="32" viewBox="0 0 32 32" fill="none" xmlns="http://www.w3.org/2000/svg">
<circle cx="16" cy="16" r="16" fill="#F3F2F1"/>
<path d="M23.5989 11.307L16.2614 7.07066C16.0982 6.97645 15.8972 6.97645 15.734 7.07066L8.39648 11.307C8.23332 11.4012 8.13281 11.5753 8.13281 11.7637V20.2363C8.13281 20.4247 8.23332 20.5988 8.39648 20.693L15.734 24.9293C15.8972 25.0236 16.0982 25.0236 16.2614 24.9293L23.5989 20.693C23.7621 20.5988 23.8626 20.4247 23.8626 20.2363V11.7637C23.8626 11.5753 23.7621 11.4012 23.5989 11.307ZM22.8079 19.9319L15.9977 23.8637L9.1875 19.9319V12.0681L15.9977 8.13629L22.8079 12.0681V19.9319Z" fill="#5B616E"/>
<path d="M13.491 13.7812C13.1998 13.7812 12.9637 14.0174 12.9637 14.3086V16.4166L12.0008 14.1058C11.919 13.9093 11.7269 13.7812 11.5141 13.7812H10.9492C10.658 13.7812 10.4219 14.0174 10.4219 14.3086V17.6977C10.4478 18.3966 11.4509 18.3961 11.4766 17.6977V15.5897L12.4394 17.9005C12.5213 18.097 12.7133 18.225 12.9262 18.225H13.491C13.7822 18.225 14.0184 17.9889 14.0184 17.6977V14.3086C14.0184 14.0174 13.7822 13.7812 13.491 13.7812V13.7812Z" fill="#5B616E"/>
<path d="M14.9453 14.3086V17.6977C14.9713 18.3966 15.9743 18.3961 16 17.6977V16.8129H17.1297C17.8286 16.7869 17.8281 15.7839 17.1297 15.7582H16V14.8359H17.6945C18.3935 14.81 18.3929 13.8069 17.6945 13.7812H15.4727C15.1814 13.7812 14.9453 14.0174 14.9453 14.3086Z" fill="#5B616E"/>
<path d="M19.1021 14.8359H19.7045V17.6977C19.7304 18.3966 20.7335 18.3961 20.7592 17.6977V14.8359H21.3615C22.0604 14.81 22.0599 13.8069 21.3615 13.7812H19.1021C18.4032 13.8072 18.4037 14.8102 19.1021 14.8359Z" fill="#5B616E"/>
<defs>
<linearGradient id="paint0_linear_5814_143879" x1="5.92321e-07" y1="32" x2="35" y2="5.5" gradientUnits="userSpaceOnUse">
<stop offset="0.411458" stop-color="#9D3EF2"/>
<stop offset="1" stop-color="#3036F4"/>
</linearGradient>
</defs>
</svg>
