<svg width="32" height="32" viewBox="0 0 32 32" fill="none" xmlns="http://www.w3.org/2000/svg">
<rect width="32" height="32" rx="16" fill="#ECECEC"/>
<path fill-rule="evenodd" clip-rule="evenodd" d="M6.625 11.25C6.625 10.4216 7.29657 9.75 8.125 9.75H21.375C22.2034 9.75 22.875 10.4216 22.875 11.25V18.25C22.875 19.0784 22.2034 19.75 21.375 19.75H8.125C7.29657 19.75 6.625 19.0784 6.625 18.25V11.25Z" stroke="#5B616E" stroke-linecap="round" stroke-linejoin="round"/>
<path d="M25.375 13.5V21C25.375 21.6904 24.8154 22.25 24.125 22.25H10.375" stroke="#5B616E" stroke-linecap="round" stroke-linejoin="round"/>
<path d="M13.5 15.6393C13.5 16.1781 13.9167 16.6115 14.4278 16.6115H15.4722C15.9167 16.6115 16.2778 16.2337 16.2778 15.7615C16.2778 15.2559 16.0556 15.0726 15.7278 14.9559L14.0556 14.3726C13.7278 14.2559 13.5056 14.0782 13.5056 13.567C13.5056 13.1004 13.8667 12.717 14.3111 12.717H15.3556C15.8667 12.717 16.2833 13.1504 16.2833 13.6893" stroke="#5B616E" stroke-width="0.7" stroke-linecap="round" stroke-linejoin="round"/>
<path d="M14.8879 12.167V17.167" stroke="#5B616E" stroke-width="0.7" stroke-linecap="round" stroke-linejoin="round"/>
</svg>
