<svg width="32" height="32" viewBox="0 0 32 32" fill="none" xmlns="http://www.w3.org/2000/svg">
<g clip-path="url(#clip0)">
<path d="M31.5445 21.7739C31.2929 21.7739 31.0891 21.9778 31.0891 22.2294V27.3987C31.0891 28.0728 30.5407 28.6212 29.8666 28.6212H2.13325C1.45918 28.6212 0.910811 28.0728 0.910811 27.3987V22.2461C0.910811 21.9946 0.706936 21.7907 0.455374 21.7907C0.203812 21.7907 0 21.9945 0 22.246V27.3987C0 28.5749 0.956936 29.5319 2.13325 29.5319H29.8667C31.043 29.5319 31.9999 28.5749 31.9999 27.3987V22.2293C31.9999 21.9779 31.7961 21.7739 31.5445 21.7739Z" fill="currentColor" stroke="currentColor" stroke-width="0.4"/>
<path d="M29.8668 11.7391H25.7465L17.8287 3.8212C17.7405 3.53052 17.5819 3.2567 17.3525 3.02733C16.6067 2.28158 15.3933 2.28158 14.6475 3.02733C14.418 3.25677 14.2595 3.53052 14.1712 3.82126L6.25349 11.739H2.13325C0.956936 11.739 0 12.696 0 13.8722V22.9279C0 23.1794 0.203875 23.3834 0.455437 23.3834C0.706999 23.3834 0.910873 23.1795 0.910873 22.9279V13.8722C0.910811 13.1982 1.45918 12.6499 2.13325 12.6499H29.8667C30.5408 12.6499 31.0891 13.1982 31.0891 13.8722V23.024C31.0891 23.2755 31.293 23.4795 31.5446 23.4795C31.7961 23.4795 32 23.2756 32 23.024V13.8722C32 12.696 31.0431 11.7391 29.8668 11.7391ZM14.9997 4.35701C14.9999 4.34683 15.0006 4.33664 15.0011 4.32645C15.003 4.29251 15.0063 4.25845 15.0117 4.22439L15.0123 4.21951C15.0157 4.19864 15.0198 4.17776 15.0245 4.15695C15.0649 3.97901 15.1532 3.80964 15.2915 3.67139C15.4868 3.47608 15.7434 3.37845 16 3.37845C16.2565 3.37845 16.5132 3.47614 16.7084 3.67139C16.8467 3.8097 16.935 3.97889 16.9754 4.15689C16.9801 4.17764 16.9842 4.19851 16.9875 4.21933L16.9883 4.22508C16.9937 4.25883 16.9969 4.29258 16.9988 4.3262C16.9993 4.33645 17 4.3467 17.0002 4.35701C17.0006 4.3712 17.0006 4.38539 17.0003 4.39951C17 4.42014 16.9991 4.4407 16.9974 4.46126C16.9967 4.47083 16.9957 4.48026 16.9947 4.48976C16.9922 4.51295 16.9889 4.53614 16.9847 4.55914C16.9834 4.56626 16.9822 4.57339 16.9807 4.58051C16.9751 4.60833 16.9685 4.63601 16.9605 4.66333L16.9583 4.67026C16.9503 4.69658 16.9412 4.72264 16.931 4.74833C16.9292 4.75289 16.9275 4.75758 16.9257 4.76214C16.9146 4.78908 16.9023 4.81558 16.8888 4.84164C16.8867 4.84576 16.8843 4.84976 16.8822 4.85389C16.8695 4.87745 16.8559 4.90058 16.8412 4.92326C16.8388 4.92695 16.8366 4.93076 16.8342 4.93445C16.818 4.95864 16.8006 4.9822 16.7822 5.0052C16.778 5.01033 16.7738 5.01539 16.7696 5.02045C16.7502 5.0437 16.7301 5.06645 16.7083 5.08826C16.3177 5.47889 15.6821 5.47889 15.2914 5.08826C15.2696 5.06645 15.2495 5.04364 15.2301 5.02039C15.2259 5.01539 15.2217 5.01039 15.2176 5.00526C15.1992 4.9822 15.1817 4.95858 15.1655 4.93433C15.1632 4.93076 15.161 4.92701 15.1587 4.92345C15.1439 4.90064 15.1302 4.87739 15.1175 4.85364C15.1153 4.84964 15.113 4.84576 15.111 4.84176C15.0974 4.81564 15.0851 4.78901 15.074 4.76201C15.0722 4.75758 15.0705 4.75314 15.0688 4.7487C15.0585 4.72276 15.0493 4.69651 15.0413 4.66995L15.0392 4.66351C15.0312 4.63608 15.0247 4.60833 15.019 4.58045C15.0175 4.57345 15.0163 4.56633 15.015 4.55926C15.0108 4.53608 15.0075 4.51283 15.005 4.48945C15.004 4.4802 15.0031 4.47101 15.0023 4.4617C15.0007 4.44101 14.9998 4.42026 14.9994 4.39951C14.9992 4.38533 14.9993 4.37114 14.9997 4.35701ZM7.54161 11.739L14.214 5.06658C14.2406 5.1357 14.2717 5.20314 14.3063 5.26895L14.3081 5.27233C14.3219 5.29851 14.3363 5.32445 14.3513 5.35001C14.3537 5.35401 14.3562 5.35789 14.3586 5.36189C14.3723 5.38482 14.3863 5.40757 14.4011 5.42995C14.4057 5.43689 14.4106 5.44364 14.4152 5.45051C14.4284 5.46995 14.4415 5.48932 14.4555 5.50832C14.463 5.5187 14.4712 5.5287 14.479 5.53895C14.4908 5.55439 14.5023 5.56995 14.5147 5.58507C14.5263 5.59945 14.5387 5.61339 14.5508 5.62745C14.5602 5.63826 14.5691 5.64926 14.5787 5.65989C14.6008 5.68451 14.6238 5.7087 14.6475 5.73239C14.6941 5.77901 14.7425 5.8227 14.7925 5.86345C15.1428 6.14895 15.5713 6.29164 15.9999 6.29164C16.2448 6.29164 16.4897 6.24501 16.72 6.15182C16.9503 6.05864 17.166 5.91876 17.3524 5.73232C17.3762 5.70857 17.3991 5.68439 17.4213 5.6597C17.4298 5.6502 17.4378 5.64039 17.4461 5.63076C17.4593 5.61551 17.4727 5.60032 17.4854 5.58476C17.4967 5.57082 17.5074 5.55645 17.5183 5.54226C17.527 5.53082 17.5362 5.51951 17.5447 5.50789C17.5577 5.49007 17.57 5.47182 17.5824 5.45364C17.5879 5.44551 17.5937 5.43751 17.5991 5.42932C17.6132 5.40795 17.6265 5.38614 17.6397 5.36426C17.6427 5.35926 17.6459 5.35439 17.6488 5.34939C17.6634 5.32464 17.6772 5.29957 17.6907 5.27432L17.694 5.26826C17.7285 5.20264 17.7594 5.13539 17.7859 5.06651L24.4584 11.739H7.54161Z" fill="currentColor" stroke="currentColor" stroke-width="0.4"/>
<path d="M5.7276 18.8853C5.7276 18.2606 6.24323 17.9829 6.96704 17.9829C7.80991 17.9829 8.06766 18.3597 8.33541 18.3597C8.63291 18.3597 8.77172 17.9928 8.77172 17.7945C8.77172 17.2491 7.61153 17.0806 6.96704 17.0806C5.9061 17.0806 4.67655 17.5169 4.67655 18.9844C4.67655 21.3641 7.89916 20.68 7.89916 22.4351C7.8991 23.149 7.36366 23.4862 6.64973 23.4862C5.54911 23.4862 5.31117 22.7028 4.95417 22.7028C4.70623 22.7028 4.49805 23.03 4.49805 23.268C4.49805 23.7638 5.40036 24.4381 6.68941 24.4381C7.99828 24.4381 8.95022 23.7439 8.95022 22.326C8.95022 19.6884 5.7276 20.3527 5.7276 18.8853Z" fill="currentColor" stroke="currentColor" stroke-width="0.4"/>
<path d="M15.4648 23.8331L13.5015 17.4077C13.4221 17.1697 13.1246 17.0508 12.8271 17.0508C12.5297 17.0508 12.2421 17.1698 12.1628 17.4077L10.1896 23.8331C10.1797 23.8628 10.1797 23.8926 10.1797 23.9223C10.1797 24.1801 10.5466 24.3586 10.8341 24.3586C11.0126 24.3586 11.1514 24.2991 11.201 24.1405L11.6076 22.7325H14.0567L14.4633 24.1405C14.5129 24.2991 14.6517 24.3586 14.8203 24.3586C15.1178 24.3586 15.4847 24.1703 15.4847 23.9223C15.4847 23.8926 15.4748 23.8628 15.4648 23.8331ZM11.8356 21.8896L12.8271 18.4886L13.8187 21.8896H11.8356Z" fill="currentColor" stroke="currentColor" stroke-width="0.4"/>
<path d="M20.6502 23.4267H18.0721V17.4475C18.0722 17.2095 17.8144 17.1104 17.5467 17.1104C17.2889 17.1104 17.0211 17.2095 17.0211 17.4475V24.0117C17.0211 24.2397 17.2591 24.3587 17.4871 24.3587H20.6502C20.8585 24.3587 20.9676 24.1208 20.9676 23.8927C20.9676 23.6547 20.8585 23.4267 20.6502 23.4267Z" fill="currentColor" stroke="currentColor" stroke-width="0.4"/>
<path d="M26.5005 23.4267H23.5555V21.1461H25.0826C25.3205 21.1461 25.4296 20.928 25.4296 20.7395C25.4296 20.5115 25.3007 20.3132 25.0826 20.3132H23.5556V18.0424H26.5005C26.7187 18.0424 26.8476 17.8243 26.8476 17.5665C26.8476 17.3483 26.7385 17.1104 26.5005 17.1104H22.9705C22.7425 17.1104 22.5045 17.2294 22.5045 17.4574V24.0117C22.5045 24.2398 22.7425 24.3588 22.9705 24.3588H26.5005C26.7385 24.3588 26.8476 24.1208 26.8476 23.9026C26.8476 23.6448 26.7186 23.4267 26.5005 23.4267Z" fill="currentColor" stroke="currentColor" stroke-width="0.4"/>
</g>
<defs>
<clipPath id="clip0">
<rect width="32" height="32" fill="white"/>
</clipPath>
</defs>
</svg>
