<svg width="32" height="32" viewBox="0 0 32 32" fill="none" xmlns="http://www.w3.org/2000/svg">
<circle cx="16" cy="16" r="16" fill="#0151FC"/>
<path d="M21.9261 22.6661V21.1846C21.9261 20.3988 21.6139 19.6452 21.0582 19.0895C20.5026 18.5338 19.7489 18.2217 18.9631 18.2217H13.0372C12.2514 18.2217 11.4977 18.5338 10.9421 19.0895C10.3864 19.6452 10.0742 20.3988 10.0742 21.1846V22.6661" stroke="white" stroke-width="1.2" stroke-linecap="round" stroke-linejoin="round"/>
<path d="M16.0001 15.2599C17.6365 15.2599 18.963 13.9333 18.963 12.2969C18.963 10.6605 17.6365 9.33398 16.0001 9.33398C14.3637 9.33398 13.0371 10.6605 13.0371 12.2969C13.0371 13.9333 14.3637 15.2599 16.0001 15.2599Z" stroke="white" stroke-width="1.2" stroke-linecap="round" stroke-linejoin="round"/>
</svg>
