<svg width="32" height="32" viewBox="0 0 32 32" fill="none" xmlns="http://www.w3.org/2000/svg">
<circle cx="16" cy="16" r="16" fill="#31b6b5"/>
<path d="M18.9377 12.6666C18.7886 12.6666 18.6455 12.6117 18.54 12.514C18.4345 12.4164 18.3753 12.2839 18.3753 12.1458C18.3753 12.0077 18.4345 11.8752 18.54 11.7775C18.6455 11.6799 18.7886 11.625 18.9377 11.625H22.3125C22.4617 11.625 22.6048 11.6799 22.7103 11.7775C22.8157 11.8752 22.875 12.0077 22.875 12.1458V15.3506C22.875 15.4888 22.8157 15.6212 22.7103 15.7189C22.6048 15.8166 22.4617 15.8714 22.3125 15.8714C22.1634 15.8714 22.0203 15.8166 21.9148 15.7189C21.8093 15.6212 21.7501 15.4888 21.7501 15.3506V13.4029L17.6486 17.2015C17.5963 17.25 17.5343 17.2885 17.4659 17.3147C17.3976 17.341 17.3243 17.3545 17.2504 17.3545C17.1764 17.3545 17.1031 17.341 17.0348 17.3147C16.9664 17.2885 16.9044 17.25 16.8521 17.2015L15.0005 15.4861L12.5864 17.7223C12.4808 17.8201 12.3375 17.875 12.1882 17.875C12.0388 17.875 11.8956 17.8201 11.7899 17.7223C11.6843 17.6245 11.625 17.4919 11.625 17.3536C11.625 17.2153 11.6843 17.0826 11.7899 16.9849L14.6023 14.381C14.6545 14.3325 14.7166 14.294 14.7849 14.2677C14.8533 14.2415 14.9265 14.228 15.0005 14.228C15.0745 14.228 15.1477 14.2415 15.2161 14.2677C15.2844 14.294 15.3465 14.3325 15.3987 14.381L17.2504 16.0964L20.9547 12.6666H18.9377Z" fill="none" stroke="white" stroke-width="0.2"/>
<path d="M22.9923 23.4678H9.25065C9.15313 23.4684 9.05647 23.4496 8.96632 23.4123C8.87618 23.3751 8.79436 23.3203 8.72565 23.2511C8.6563 23.1843 8.60132 23.104 8.56406 23.0151C8.52681 22.9263 8.50807 22.8308 8.50898 22.7345V9.01779C8.49701 8.94887 8.49701 8.87839 8.50898 8.80946C8.53503 8.74352 8.57479 8.68386 8.62565 8.63446C8.6723 8.57848 8.73257 8.53544 8.80065 8.50946C8.86959 8.49765 8.94004 8.49765 9.00898 8.50946C9.08066 8.49685 9.15398 8.49685 9.22565 8.50946C9.29263 8.53746 9.35245 8.58018 9.40065 8.63446C9.44912 8.68418 9.4861 8.74391 9.50898 8.80946C9.52468 8.87802 9.52468 8.94924 9.50898 9.01779V22.4011H22.9923C23.0613 22.4022 23.1293 22.4169 23.1926 22.4443C23.2559 22.4717 23.3132 22.5112 23.3611 22.5608C23.4091 22.6103 23.4469 22.6688 23.4722 22.7329C23.4976 22.797 23.5101 22.8655 23.509 22.9345C23.5093 23.0024 23.4963 23.0698 23.4705 23.1327C23.4448 23.1957 23.4069 23.2529 23.359 23.3011C23.2609 23.3991 23.1306 23.4583 22.9923 23.4678Z" fill="none" stroke="white" stroke-width="0.2"/>
</svg>
  