<svg width="32" height="33" viewBox="0 0 32 33" fill="none" xmlns="http://www.w3.org/2000/svg">
<circle cx="16" cy="16.2812" r="16" fill="#0151FC"/>
<path d="M20.6624 15.3921C21.9976 15.3921 23.0808 14.3096 23.0808 12.9743C23.0808 11.6391 21.9976 10.5566 20.6624 10.5566" stroke="white" stroke-width="1.2" stroke-linecap="round" stroke-linejoin="round"/>
<path d="M21.7743 18.0195C22.173 18.047 22.5695 18.1036 22.9598 18.1914C23.5022 18.2976 24.1546 18.5199 24.3868 19.0065C24.535 19.3181 24.535 19.681 24.3868 19.9934C24.1553 20.48 23.5022 20.7015 22.9598 20.8131" stroke="white" stroke-width="1.2" stroke-linecap="round" stroke-linejoin="round"/>
<path d="M11.2417 15.3921C9.90644 15.3921 8.82324 14.3096 8.82324 12.9743C8.82324 11.6391 9.90644 10.5566 11.2417 10.5566" stroke="white" stroke-width="1.2" stroke-linecap="round" stroke-linejoin="round"/>
<path d="M10.1298 18.0195C9.73108 18.047 9.33462 18.1036 8.94427 18.1914C8.40191 18.2976 7.74955 18.5199 7.51809 19.0065C7.36913 19.3181 7.36913 19.681 7.51809 19.9934C7.74879 20.48 8.40191 20.7015 8.94427 20.8131" stroke="white" stroke-width="1.2" stroke-linecap="round" stroke-linejoin="round"/>
<path fill-rule="evenodd" clip-rule="evenodd" d="M15.9481 18.5391C18.6538 18.5391 20.9654 18.9485 20.9654 20.587C20.9654 22.2248 18.6691 22.6495 15.9481 22.6495C13.2417 22.6495 10.9309 22.2401 10.9309 20.6016C10.9309 18.963 13.2272 18.5391 15.9481 18.5391Z" stroke="white" stroke-width="1.2" stroke-linecap="round" stroke-linejoin="round"/>
<path fill-rule="evenodd" clip-rule="evenodd" d="M15.9481 16.2027C14.1637 16.2027 12.7329 14.7719 12.7329 12.9867C12.7329 11.2022 14.1637 9.77148 15.9481 9.77148C17.7326 9.77148 19.1633 11.2022 19.1633 12.9867C19.1633 14.7719 17.7326 16.2027 15.9481 16.2027Z" stroke="white" stroke-width="1.2" stroke-linecap="round" stroke-linejoin="round"/>
</svg>
