<svg width="32" height="32" viewBox="0 0 32 32" fill="none" xmlns="http://www.w3.org/2000/svg">
<circle cx="16" cy="16" r="16" fill="#F3F2F1"/>
<path d="M21.926 22.6661V21.1846C21.926 20.3988 21.6138 19.6452 21.0581 19.0895C20.5025 18.5338 19.7488 18.2217 18.963 18.2217H13.0371C12.2512 18.2217 11.4976 18.5338 10.9419 19.0895C10.3863 19.6452 10.0741 20.3988 10.0741 21.1846V22.6661" stroke="#5B616E" stroke-width="1.2" stroke-linecap="round" stroke-linejoin="round"/>
<path d="M16 15.2599C17.6364 15.2599 18.9629 13.9333 18.9629 12.2969C18.9629 10.6605 17.6364 9.33398 16 9.33398C14.3636 9.33398 13.037 10.6605 13.037 12.2969C13.037 13.9333 14.3636 15.2599 16 15.2599Z" stroke="#5B616E" stroke-width="1.2" stroke-linecap="round" stroke-linejoin="round"/>
</svg>
