<svg width="32" height="32" viewBox="0 0 32 32" fill="none" xmlns="http://www.w3.org/2000/svg">
<path d="M12.0625 28C10.1562 28 8.51562 27.3125 7.14062 25.9375C5.79688 24.5938 5.125 22.9688 5.125 21.0625C5.125 19.125 5.8125 17.4844 7.1875 16.1406L17.7344 5.54688C18.7656 4.51562 20.0156 4 21.4844 4C22.9844 4 24.25 4.53125 25.2812 5.59375C26.3438 6.625 26.875 7.89062 26.875 9.39062C26.875 10.8594 26.3438 12.1094 25.2812 13.1406L16.4219 22.0469C15.6719 22.7656 14.7812 23.125 13.75 23.125C12.7188 23.125 11.8281 22.7656 11.0781 22.0469C10.3281 21.2969 9.95312 20.4062 9.95312 19.375C9.95312 18.3438 10.3281 17.4531 11.0781 16.7031L18.625 9.15625C18.875 8.90625 19.125 8.90625 19.375 9.15625L20.1719 9.95312C20.4531 10.2344 20.4531 10.5 20.1719 10.75L12.6719 18.2969C12.3594 18.5781 12.2031 18.9375 12.2031 19.375C12.2031 19.7812 12.3594 20.1406 12.6719 20.4531C12.9844 20.7344 13.3438 20.875 13.75 20.875C14.1875 20.875 14.5469 20.7344 14.8281 20.4531L23.7344 11.5469C24.3281 10.9531 24.625 10.2344 24.625 9.39062C24.625 8.51562 24.3125 7.78125 23.6875 7.1875C23.0938 6.5625 22.3594 6.25 21.4844 6.25C20.6406 6.25 19.9062 6.54688 19.2812 7.14062L8.73438 17.6875C7.82812 18.625 7.375 19.75 7.375 21.0625C7.375 22.3438 7.82812 23.4531 8.73438 24.3906C9.67188 25.2969 10.7812 25.75 12.0625 25.75C13.375 25.75 14.5 25.2812 15.4375 24.3438C18.4375 21.3438 21.4844 18.2812 24.5781 15.1562C24.8594 14.9062 25.125 14.9062 25.375 15.1562L26.1719 15.9531C26.4531 16.2344 26.4531 16.5 26.1719 16.75C23.1406 19.8125 20.0938 22.875 17.0312 25.9375C15.6562 27.3125 14 28 12.0625 28Z" fill="currentColor"/>
</svg>
