<svg width="32" height="32" viewBox="0 0 32 32" fill="none" xmlns="http://www.w3.org/2000/svg">
<path d="M2.6665 12.0013V9.33464C2.6665 5.33464 5.33317 2.66797 9.33317 2.66797H22.6665C26.6665 2.66797 29.3332 5.33464 29.3332 9.33464V12.0013" stroke="currentColor" stroke-width="2" stroke-miterlimit="10" stroke-linecap="round" stroke-linejoin="round"/>
<path d="M2.6665 20V22.6667C2.6665 26.6667 5.33317 29.3333 9.33317 29.3333H22.6665C26.6665 29.3333 29.3332 26.6667 29.3332 22.6667V20" stroke="currentColor" stroke-width="2" stroke-miterlimit="10" stroke-linecap="round" stroke-linejoin="round"/>
<path d="M8.93311 12.3477L15.9998 16.441L23.0131 12.3743" stroke="currentColor" stroke-width="2" stroke-linecap="round" stroke-linejoin="round"/>
<path d="M16 23.6925V16.4258" stroke="currentColor" stroke-width="2" stroke-linecap="round" stroke-linejoin="round"/>
<path d="M14.3465 8.38609L10.0798 10.7595C9.11981 11.2928 8.31982 12.6395 8.31982 13.7461V18.2661C8.31982 19.3728 9.10648 20.7195 10.0798 21.2528L14.3465 23.6261C15.2531 24.1328 16.7465 24.1328 17.6665 23.6261L21.9331 21.2528C22.8931 20.7195 23.6932 19.3728 23.6932 18.2661V13.7461C23.6932 12.6395 22.9065 11.2928 21.9331 10.7595L17.6665 8.38609C16.7465 7.86609 15.2531 7.86609 14.3465 8.38609Z" stroke="currentColor" stroke-width="2" stroke-linecap="round" stroke-linejoin="round"/>
</svg>
