<svg width="32" height="32" viewBox="0 0 32 32" fill="none" xmlns="http://www.w3.org/2000/svg">
<path d="M14.3333 3.26578C15.2667 2.47911 16.7733 2.47911 17.68 3.26578L19.7867 5.06578C20.1867 5.39911 20.9467 5.67911 21.48 5.67911H23.7467C25.16 5.67911 26.32 6.83911 26.32 8.25245V10.5191C26.32 11.0524 26.6 11.7991 26.9333 12.1991L28.7333 14.3058C29.52 15.2391 29.52 16.7458 28.7333 17.6524L26.9333 19.7591C26.6 20.1591 26.32 20.9058 26.32 21.4391V23.7058C26.32 25.1191 25.16 26.2791 23.7467 26.2791H21.48C20.9467 26.2791 20.2 26.5591 19.8 26.8924L17.6933 28.6924C16.76 29.4791 15.2533 29.4791 14.3467 28.6924L12.24 26.8924C11.84 26.5591 11.08 26.2791 10.56 26.2791H8.22667C6.81334 26.2791 5.65334 25.1191 5.65334 23.7058V21.4258C5.65334 20.9058 5.38667 20.1458 5.05334 19.7591L3.25334 17.6391C2.48001 16.7191 2.48001 15.2258 3.25334 14.3058L5.05334 12.1858C5.38667 11.7858 5.65334 11.0391 5.65334 10.5191V8.26578C5.65334 6.85245 6.81334 5.69245 8.22667 5.69245H10.5333C11.0667 5.69245 11.8133 5.41245 12.2133 5.07911L14.3333 3.26578Z" stroke="currentColor" stroke-width="2" stroke-linecap="round" stroke-linejoin="round"/>
<path d="M16 10.8398V17.2798" stroke="currentColor" stroke-width="2" stroke-linecap="round" stroke-linejoin="round"/>
<path d="M15.9927 21.332H16.0047" stroke="currentColor" stroke-width="2" stroke-linecap="round" stroke-linejoin="round"/>
</svg>
