<svg width="25" height="24" viewBox="0 0 25 24" fill="none" xmlns="http://www.w3.org/2000/svg">
<path d="M18.4286 9.42847C18.4286 7.83717 17.7964 6.31104 16.6712 5.18583C15.546 4.06061 14.0199 3.42847 12.4286 3.42847C10.8373 3.42847 9.31114 4.06061 8.18592 5.18583C7.0607 6.31104 6.42856 7.83717 6.42856 9.42847C6.42856 16.4285 3.42856 18.4285 3.42856 18.4285H21.4286C21.4286 18.4285 18.4286 16.4285 18.4286 9.42847Z" stroke="#605E5C" stroke-width="1.6" stroke-linecap="round" stroke-linejoin="round"/>
<path d="M14.1586 19.9712C13.9828 20.2743 13.7304 20.5258 13.4268 20.7007C13.1232 20.8756 12.779 20.9676 12.4286 20.9676C12.0782 20.9676 11.734 20.8756 11.4304 20.7007C11.1267 20.5258 10.8744 20.2743 10.6986 19.9712" stroke="#605E5C" stroke-width="1.6" stroke-linecap="round" stroke-linejoin="round"/>
<circle cx="21" cy="6" r="4" fill="#0078D4"/>
</svg>
