<svg width="22" height="22" viewBox="0 0 22 22" fill="none" xmlns="http://www.w3.org/2000/svg">
<g clip-path="url(#clip0_7325_306624)">
<path fill-rule="evenodd" clip-rule="evenodd" d="M2.55995 1.14286L1.24911 4.52171C1.23147 4.56695 1.22237 4.61471 1.22222 4.66286V6.02857C1.22222 6.49085 1.61761 6.85714 2.0955 6.85714C2.57217 6.85714 2.96817 6.49143 2.96817 6.02914C2.96817 5.87759 3.03255 5.73224 3.14716 5.62508C3.26176 5.51792 3.4172 5.45771 3.57928 5.45771C3.74136 5.45771 3.89679 5.51792 4.0114 5.62508C4.126 5.73224 4.19039 5.87759 4.19039 6.02914C4.18893 6.24718 4.28007 6.45685 4.44381 6.6121C4.60755 6.76735 4.83049 6.85548 5.06367 6.85714C5.54033 6.85714 5.93633 6.49143 5.93633 6.02914C5.93633 5.87759 6.00072 5.73224 6.11532 5.62508C6.22993 5.51792 6.38537 5.45771 6.54745 5.45771C6.70952 5.45771 6.86496 5.51792 6.97957 5.62508C7.09417 5.73224 7.15856 5.87759 7.15856 6.02914C7.15709 6.24718 7.24824 6.45685 7.41198 6.6121C7.57571 6.76735 7.79866 6.85548 8.03183 6.85714C8.5085 6.85714 8.9045 6.49143 8.9045 6.02971C8.9045 5.87816 8.96889 5.73282 9.08349 5.62565C9.1981 5.51849 9.35354 5.45828 9.51561 5.45828C9.67769 5.45828 9.83313 5.51849 9.94773 5.62565C10.0623 5.73282 10.1267 5.87816 10.1267 6.02971C10.1273 6.49143 10.5233 6.85714 11 6.85714C11.4767 6.85714 11.8733 6.49143 11.8733 6.02914C11.8733 5.87759 11.9377 5.73224 12.0523 5.62508C12.1669 5.51792 12.3223 5.45771 12.4844 5.45771C12.6465 5.45771 12.8019 5.51792 12.9165 5.62508C13.0311 5.73224 13.0955 5.87759 13.0955 6.02914C13.0955 6.49086 13.4909 6.85714 13.9682 6.85714C14.4448 6.85714 14.8408 6.49143 14.8414 6.02971C14.8414 5.87816 14.9058 5.73282 15.0204 5.62565C15.135 5.51849 15.2905 5.45828 15.4526 5.45828C15.6146 5.45828 15.7701 5.51849 15.8847 5.62565C15.9993 5.73282 16.0637 5.87816 16.0637 6.02971C16.0637 6.49143 16.4597 6.85714 16.9363 6.85714C17.4136 6.85714 17.8096 6.49143 17.8096 6.02914C17.8096 5.87759 17.874 5.73224 17.9886 5.62508C18.1032 5.51792 18.2586 5.45771 18.4207 5.45771C18.5828 5.45771 18.7382 5.51792 18.8528 5.62508C18.9675 5.73224 19.0318 5.87759 19.0318 6.02914C19.0318 6.49086 19.4272 6.85714 19.9045 6.85714C20.3824 6.85714 20.7778 6.49143 20.7778 6.02914V4.66343C20.7777 4.61509 20.7686 4.56713 20.7509 4.52171L19.4401 1.14286H2.55995ZM18.4207 7.42057C18.2268 7.60442 17.9957 7.75035 17.7408 7.84983C17.486 7.94931 17.2125 8.00036 16.9363 8C16.6603 8.00031 16.3869 7.94924 16.1322 7.84976C15.8774 7.75028 15.6464 7.60438 15.4526 7.42057C15.2587 7.60445 15.0275 7.75039 14.7727 7.84987C14.5178 7.94935 14.2443 8.00039 13.9682 8C13.6921 8.00031 13.4187 7.94924 13.164 7.84976C12.9092 7.75028 12.6782 7.60438 12.4844 7.42057C12.2905 7.60445 12.0594 7.75039 11.8045 7.84987C11.5497 7.94935 11.2762 8.00039 11 8C10.7238 8.00039 10.4503 7.94935 10.1955 7.84987C9.94064 7.75039 9.70952 7.60445 9.51561 7.42057C9.32178 7.60438 9.09076 7.75028 8.83602 7.84976C8.58127 7.94924 8.3079 8.00031 8.03183 8C7.45067 8 6.92572 7.77771 6.54745 7.42057C6.35362 7.60438 6.1226 7.75028 5.86785 7.84976C5.61311 7.94924 5.33973 8.00031 5.06367 8C4.7875 8.00036 4.51402 7.94931 4.25917 7.84983C4.00432 7.75035 3.7732 7.60442 3.57928 7.42057C3.38552 7.60431 3.1546 7.75017 2.89997 7.84965C2.64533 7.94913 2.37208 8.00024 2.09611 8C0.933167 8 0 7.11314 0 6.02914V4.66343C0 4.48228 0.0336112 4.30228 0.0996112 4.132L1.43183 0.697714C1.51087 0.493308 1.65536 0.31665 1.84564 0.191799C2.03591 0.0669485 2.26272 -2.50111e-05 2.49517 7.0066e-09H19.5061C19.7384 0.000252311 19.965 0.0674184 20.155 0.192361C20.345 0.317304 20.4893 0.493956 20.5682 0.698286L21.9004 4.132C21.967 4.30228 22.0006 4.48228 22.0006 4.66343V6.02914C22 7.11314 21.0668 8 19.9045 8C19.6284 8.00031 19.3551 7.94924 19.1003 7.84976C18.8456 7.75028 18.6146 7.60438 18.4207 7.42057Z" fill="#DD7D00"/>
<mask id="path-2-inside-1_7325_306624" fill="white">
<path d="M1.83203 7.33203H20.1654V19.8876C20.1654 20.716 19.4938 21.3876 18.6654 21.3876H3.33203C2.50361 21.3876 1.83203 20.716 1.83203 19.8876V7.33203Z"/>
</mask>
<path d="M1.83203 7.33203H20.1654H1.83203ZM21.3654 19.8876C21.3654 21.3788 20.1565 22.5876 18.6654 22.5876H3.33203C1.84086 22.5876 0.632031 21.3788 0.632031 19.8876H3.03203C3.03203 20.0533 3.16635 20.1876 3.33203 20.1876H18.6654C18.8311 20.1876 18.9654 20.0533 18.9654 19.8876H21.3654ZM3.33203 22.5876C1.84086 22.5876 0.632031 21.3788 0.632031 19.8876V7.33203H3.03203V19.8876C3.03203 20.0533 3.16635 20.1876 3.33203 20.1876V22.5876ZM21.3654 7.33203V19.8876C21.3654 21.3788 20.1565 22.5876 18.6654 22.5876V20.1876C18.8311 20.1876 18.9654 20.0533 18.9654 19.8876V7.33203H21.3654Z" fill="#DD7D00" mask="url(#path-2-inside-1_7325_306624)"/>
<path d="M14 11L8 17" stroke="#DD7D00" stroke-width="1.2" stroke-linecap="round" stroke-linejoin="round"/>
<path d="M8 11L14 17" stroke="#DD7D00" stroke-width="1.2" stroke-linecap="round" stroke-linejoin="round"/>
</g>
<defs>
<clipPath id="clip0_7325_306624">
<rect width="22" height="22" fill="white"/>
</clipPath>
</defs>
</svg>
