<svg class="svg-icon" style="width: 1em; height: 1em;vertical-align: middle;fill: currentColor;overflow: hidden;" viewBox="0 0 1024 1024" version="1.1" xmlns="http://www.w3.org/2000/svg"><path d="M889.328 153.328a32 32 0 1 0-32-32 32 32 0 0 0 32 32z m0 720a32 32 0 1 0 32 32 32 32 0 0 0-32-32zM928 0H96a96 96 0 0 0-96 96v832a96 96 0 0 0 96 96h832a96 96 0 0 0 96-96V96a96 96 0 0 0-96-96z m32 928a32 32 0 0 1-32 32H96a32 32 0 0 1-32-32V96a32 32 0 0 1 32-32h832a32 32 0 0 1 32 32v832zM512 94.672A417.344 417.344 0 1 0 929.344 512 417.808 417.808 0 0 0 512 94.672z m0 770.656A353.328 353.328 0 1 1 865.344 512 353.728 353.728 0 0 1 512 865.328zM787.328 496h-151.792a173.456 173.456 0 0 0 56.432-127.568c0-92.576-75.696-159.76-179.968-159.76a32 32 0 0 0-32 32v156.576a181.376 181.376 0 0 0-120-45.152c-94.656 0-163.36 73.968-163.36 175.904a32 32 0 0 0 32 32h132.8a171.984 171.984 0 0 0-29.504 96.24c0 92.576 75.696 159.76 179.968 159.76a32 32 0 0 0 32-32v-123.792a173.44 173.44 0 0 0 112 43.696c97.728 0 163.36-90.944 163.36-175.904a32 32 0 0 0-31.936-32z m-523.2 0a94.704 94.704 0 0 1 95.856-79.904 115.888 115.888 0 0 1 107.2 69.984 104.416 104.416 0 0 1 4 9.92H264.176zM480 560v188.688c-44.608-9.424-83.968-39.216-83.968-92.448A112.272 112.272 0 0 1 454.48 560a117.568 117.568 0 0 1 23.6-10.416c0.656-0.208 1.248-0.528 1.92-0.72v10.816l0.096 0.32H480z m64-284.016c44.608 9.424 83.968 39.2 83.968 92.448A114.416 114.416 0 0 1 544 475.808V275.984z m112 363.92c-51.408 0-92.944-40.976-108.912-79.904h203.2c-11.776 39.488-44.32 79.904-94.288 79.904zM121.36 873.328a32 32 0 1 0 32 32 32 32 0 0 0-32.032-32z m0-720a32 32 0 1 0-32-32 32 32 0 0 0 31.968 32z"  /></svg>