<svg width="14" height="12" viewBox="0 0 14 12" fill="none" xmlns="http://www.w3.org/2000/svg">
<path d="M3.85399 0.146009C3.80755 0.0994455 3.75237 0.0625027 3.69162 0.0372963C3.63088 0.0120898 3.56576 -0.00088501 3.49999 -0.00088501C3.43422 -0.00088501 3.3691 0.0120898 3.30836 0.0372963C3.24761 0.0625027 3.19244 0.0994455 3.14599 0.146009L0.145991 3.14601C0.0521042 3.2399 -0.000640869 3.36723 -0.000640869 3.50001C-0.000640869 3.63278 0.0521042 3.76012 0.145991 3.85401C0.239877 3.9479 0.367215 4.00064 0.499991 4.00064C0.632766 4.00064 0.760104 3.9479 0.853991 3.85401L2.99999 1.70701V11.5C2.99999 11.6326 3.05267 11.7598 3.14644 11.8536C3.24021 11.9473 3.36738 12 3.49999 12C3.6326 12 3.75978 11.9473 3.85354 11.8536C3.94731 11.7598 3.99999 11.6326 3.99999 11.5V1.70701L6.14599 3.85401C6.23988 3.9479 6.36722 4.00064 6.49999 4.00064C6.63277 4.00064 6.7601 3.9479 6.85399 3.85401C6.94788 3.76012 7.00062 3.63278 7.00062 3.50001C7.00062 3.36723 6.94788 3.2399 6.85399 3.14601L3.85399 0.146009ZM10.152 11.86C10.2453 11.9504 10.3701 12.001 10.5 12.001C10.6299 12.001 10.7547 11.9504 10.848 11.86L13.848 8.96001C13.9435 8.86771 13.9984 8.74127 14.0006 8.60849C14.0029 8.47572 13.9523 8.34749 13.86 8.25201C13.7677 8.15653 13.6413 8.10163 13.5085 8.09938C13.3757 8.09713 13.2475 8.14771 13.152 8.24001L11 10.321V0.501009C11 0.368401 10.9473 0.241224 10.8535 0.147455C10.7598 0.0536873 10.6326 0.00100875 10.5 0.00100875C10.3674 0.00100875 10.2402 0.0536873 10.1464 0.147455C10.0527 0.241224 9.99999 0.368401 9.99999 0.501009V10.321L7.84799 8.24101C7.80097 8.19471 7.74525 8.15819 7.68404 8.13353C7.62283 8.10887 7.55735 8.09658 7.49137 8.09735C7.42539 8.09812 7.36021 8.11194 7.29959 8.13802C7.23898 8.1641 7.18413 8.20192 7.1382 8.2493C7.09227 8.29668 7.05618 8.35268 7.03199 8.41408C7.00781 8.47548 6.99602 8.54105 6.9973 8.60703C6.99859 8.673 7.01291 8.73807 7.03946 8.79848C7.06601 8.85889 7.10426 8.91345 7.15199 8.95901L10.152 11.859V11.86Z" fill="currentColor"/>
</svg>
