<svg width="40" height="40" viewBox="0 0 41 40" fill="none" xmlns="http://www.w3.org/2000/svg">
<rect x="0.666748" width="40" height="40" rx="20" fill="#F0F5FF"/>
<path d="M31.8711 16.6562L27.918 20.6094C27.6888 20.8672 27.4453 20.8672 27.1875 20.6094L26.8867 20.3086C26.6289 20.0794 26.6289 19.8359 26.8867 19.5781L29.5078 17H10.5586C10.2148 17 10.043 16.8281 10.043 16.4844V16.1406C10.043 15.7969 10.2148 15.625 10.5586 15.625H29.5078L26.8867 13.0469C26.6289 12.7891 26.6289 12.5456 26.8867 12.3164L27.1875 12.0156C27.4453 11.7578 27.6888 11.7578 27.918 12.0156L31.8711 15.9688C32.1289 16.1979 32.1289 16.4271 31.8711 16.6562ZM10.2148 23.5312C9.95703 23.3021 9.95703 23.0729 10.2148 22.8438L14.168 18.8906C14.3971 18.6328 14.6406 18.6328 14.8984 18.8906L15.1992 19.1914C15.457 19.4206 15.457 19.6641 15.1992 19.9219L12.5781 22.5H31.5273C31.8711 22.5 32.043 22.6719 32.043 23.0156V23.3594C32.043 23.7031 31.8711 23.875 31.5273 23.875H12.5781L15.1992 26.4531C15.457 26.7109 15.457 26.9544 15.1992 27.1836L14.8984 27.4844C14.6406 27.7422 14.3971 27.7422 14.168 27.4844L10.2148 23.5312Z" fill="#DD7D00"/>
</svg>
