<svg width="40" height="40" viewBox="0 0 41 40" fill="none" xmlns="http://www.w3.org/2000/svg">
<rect x="0.333374" width="40" height="40" rx="20" fill="#F0F5FF"/>
<path d="M24.1914 21.4375C25.6953 21.4375 26.9805 21.9844 28.0469 23.0781C29.1406 24.1445 29.6875 25.4297 29.6875 26.9336V28.6562C29.6875 29.2031 29.4961 29.668 29.1133 30.0508C28.7305 30.4336 28.2656 30.625 27.7188 30.625H13.2812C12.7344 30.625 12.2695 30.4336 11.8867 30.0508C11.5039 29.668 11.3125 29.2031 11.3125 28.6562V26.9336C11.3125 25.4297 11.8457 24.1445 12.9121 23.0781C14.0059 21.9844 15.3047 21.4375 16.8086 21.4375C17.1641 21.4375 17.6836 21.5469 18.3672 21.7656C19.0781 21.9844 19.7891 22.0938 20.5 22.0938C21.2109 22.0938 21.9219 21.9844 22.6328 21.7656C23.3438 21.5469 23.8633 21.4375 24.1914 21.4375ZM28.375 28.6562V26.9336C28.375 25.7852 27.9648 24.8008 27.1445 23.9805C26.3242 23.1602 25.3398 22.75 24.1914 22.75C24.0273 22.75 23.5625 22.8594 22.7969 23.0781C22.0586 23.2969 21.293 23.4062 20.5 23.4062C19.707 23.4062 18.9277 23.2969 18.1621 23.0781C17.4238 22.8594 16.9727 22.75 16.8086 22.75C15.6602 22.75 14.6758 23.1602 13.8555 23.9805C13.0352 24.8008 12.625 25.7852 12.625 26.9336V28.6562C12.625 28.8477 12.6797 28.998 12.7891 29.1074C12.9258 29.2441 13.0898 29.3125 13.2812 29.3125H27.7188C27.9102 29.3125 28.0605 29.2441 28.1699 29.1074C28.3066 28.998 28.375 28.8477 28.375 28.6562ZM24.1914 18.6074C23.1797 19.6191 21.9492 20.125 20.5 20.125C19.0508 20.125 17.8066 19.6191 16.7676 18.6074C15.7559 17.5684 15.25 16.3242 15.25 14.875C15.25 13.4258 15.7559 12.1953 16.7676 11.1836C17.8066 10.1445 19.0508 9.625 20.5 9.625C21.9492 9.625 23.1797 10.1445 24.1914 11.1836C25.2305 12.1953 25.75 13.4258 25.75 14.875C25.75 16.3242 25.2305 17.5684 24.1914 18.6074ZM23.2891 12.0859C22.5234 11.3203 21.5938 10.9375 20.5 10.9375C19.4062 10.9375 18.4766 11.3203 17.7109 12.0859C16.9453 12.8516 16.5625 13.7812 16.5625 14.875C16.5625 15.9688 16.9453 16.8984 17.7109 17.6641C18.4766 18.4297 19.4062 18.8125 20.5 18.8125C21.5938 18.8125 22.5234 18.4297 23.2891 17.6641C24.0547 16.8984 24.4375 15.9688 24.4375 14.875C24.4375 13.7812 24.0547 12.8516 23.2891 12.0859Z" fill="#129961"/>
</svg>
