<svg xmlns="http://www.w3.org/2000/svg" xmlns:xlink="http://www.w3.org/1999/xlink" version="1.1" width="256" height="256" viewBox="0 0 256 256" xml:space="preserve">

<defs>
</defs>
<g style="stroke: none; stroke-width: 0; stroke-dasharray: none; stroke-linecap: butt; stroke-linejoin: miter; stroke-miterlimit: 10; fill: none; fill-rule: nonzero; opacity: 1;" transform="translate(1.4065934065934016 1.4065934065934016) scale(2.81 2.81)" >
	<path d="M 86.381 6.277 H 3.619 C 1.624 6.277 0 7.901 0 9.896 v 55.652 c 0 1.995 1.624 3.619 3.619 3.619 H 37.7 v 5.717 h -1.143 c -4.322 0 -7.838 3.516 -7.838 7.838 c 0 0.553 0.448 1 1 1 H 60.28 c 0.553 0 1 -0.447 1 -1 c 0 -4.322 -3.516 -7.838 -7.837 -7.838 H 52.3 v -5.717 h 34.081 c 1.996 0 3.619 -1.624 3.619 -3.619 V 9.896 C 90 7.901 88.377 6.277 86.381 6.277 z M 51.3 76.885 h 2.144 c 2.878 0 5.275 2.094 5.751 4.838 H 30.805 c 0.476 -2.744 2.874 -4.838 5.752 -4.838 H 38.7 c 0.552 0 1 -0.447 1 -1 v -6.717 h 10.6 v 6.717 C 50.3 76.438 50.747 76.885 51.3 76.885 z M 88 65.549 c 0 0.893 -0.727 1.619 -1.619 1.619 H 51.3 H 38.7 H 3.619 C 2.726 67.168 2 66.441 2 65.549 V 9.896 c 0 -0.893 0.726 -1.619 1.619 -1.619 h 82.762 C 87.273 8.277 88 9.004 88 9.896 V 65.549 z" style="stroke: none; stroke-width: 1; stroke-dasharray: none; stroke-linecap: butt; stroke-linejoin: miter; stroke-miterlimit: 10; fill: rgb(0,0,0); fill-rule: nonzero; opacity: 1;" transform=" matrix(1 0 0 1 0 0) " stroke-linecap="round" />
	<path d="M 83.146 12.131 H 6.854 c -0.552 0 -1 0.448 -1 1 v 45.183 c 0 0.553 0.448 1 1 1 h 76.293 c 0.553 0 1 -0.447 1 -1 V 13.131 C 84.146 12.579 83.699 12.131 83.146 12.131 z M 82.146 57.314 H 7.854 V 14.131 h 74.293 V 57.314 z" style="stroke: none; stroke-width: 1; stroke-dasharray: none; stroke-linecap: butt; stroke-linejoin: miter; stroke-miterlimit: 10; fill: rgb(0,0,0); fill-rule: nonzero; opacity: 1;" transform=" matrix(1 0 0 1 0 0) " stroke-linecap="round" />
	<path d="M 30.075 32.021 h 5.387 c -0.002 0.025 -0.015 0.047 -0.015 0.072 v 12.332 c 0 0.553 0.448 1 1 1 s 1 -0.447 1 -1 V 32.093 c 0 -0.026 -0.013 -0.047 -0.015 -0.072 h 5.387 c 0.552 0 1 -0.448 1 -1 s -0.448 -1 -1 -1 H 30.075 c -0.552 0 -1 0.448 -1 1 S 29.522 32.021 30.075 32.021 z" style="stroke: none; stroke-width: 1; stroke-dasharray: none; stroke-linecap: butt; stroke-linejoin: miter; stroke-miterlimit: 10; fill: rgb(0,0,0); fill-rule: nonzero; opacity: 1;" transform=" matrix(1 0 0 1 0 0) " stroke-linecap="round" />
	<path d="M 53.304 44.816 c 0.156 0.369 0.519 0.608 0.92 0.608 s 0.764 -0.239 0.92 -0.608 l 5.702 -13.404 c 0.217 -0.508 -0.021 -1.096 -0.528 -1.312 c -0.507 -0.215 -1.096 0.021 -1.312 0.529 L 54.224 41.87 l -4.782 -11.241 c -0.215 -0.508 -0.803 -0.744 -1.312 -0.529 c -0.508 0.216 -0.745 0.804 -0.528 1.312 L 53.304 44.816 z" style="stroke: none; stroke-width: 1; stroke-dasharray: none; stroke-linecap: butt; stroke-linejoin: miter; stroke-miterlimit: 10; fill: rgb(0,0,0); fill-rule: nonzero; opacity: 1;" transform=" matrix(1 0 0 1 0 0) " stroke-linecap="round" />
	<path d="M 83.146 62.172 h -2.046 c -0.553 0 -1 0.447 -1 1 s 0.447 1 1 1 h 2.046 c 0.553 0 1 -0.447 1 -1 S 83.699 62.172 83.146 62.172 z" style="stroke: none; stroke-width: 1; stroke-dasharray: none; stroke-linecap: butt; stroke-linejoin: miter; stroke-miterlimit: 10; fill: rgb(0,0,0); fill-rule: nonzero; opacity: 1;" transform=" matrix(1 0 0 1 0 0) " stroke-linecap="round" />
</g>
</svg>