<svg width="8" height="8" viewBox="0 0 8 8" fill="none" xmlns="http://www.w3.org/2000/svg">
    <path d="M3.2447 7.38058C3.52344 7.38058 3.75698 7.24498 3.91518 6.99637L7.31278 1.70787C7.41825 1.54967 7.50112 1.36886 7.50112 1.19559C7.50112 0.818917 7.16964 0.570312 6.80804 0.570312C6.58203 0.570312 6.37863 0.698382 6.22042 0.95452L3.2221 5.73828L1.82087 3.96791C1.64007 3.73437 1.45926 3.65151 1.24079 3.65151C0.864118 3.65151 0.570312 3.95285 0.570312 4.32952C0.570312 4.51032 0.638114 4.67606 0.766183 4.8418L2.54408 7.00391C2.74749 7.26004 2.96596 7.38058 3.2447 7.38058Z" fill="white"/>
</svg>