<svg width="6" height="6" viewBox="0 0 6 6" fill="none" xmlns="http://www.w3.org/2000/svg">
    <path d="M2.49386 5.25112C2.67969 5.25112 2.83538 5.16071 2.94085 4.99498L5.20591 1.46931C5.27623 1.36384 5.33147 1.2433 5.33147 1.12779C5.33147 0.876674 5.11049 0.710938 4.86942 0.710938C4.71875 0.710938 4.58315 0.796317 4.47768 0.967076L2.47879 4.15625L1.54464 2.976C1.42411 2.82031 1.30357 2.76507 1.15792 2.76507C0.906808 2.76507 0.710938 2.96596 0.710938 3.21708C0.710938 3.33761 0.756138 3.4481 0.841518 3.55859L2.02679 5C2.16239 5.17076 2.30804 5.25112 2.49386 5.25112Z" fill="white"/>
</svg>