<svg xmlns="http://www.w3.org/2000/svg" width="30" height="30" viewBox="0 0 30 30">
  <g id="ic_người_đăng_nhập" data-name="ic người đăng nhập" transform="translate(-821 -580.999)">
    <path id="Subtraction_1" data-name="Subtraction 1" d="M22.385,29.81H0v-.764A11.906,11.906,0,0,1,1.948,22.56a13.955,13.955,0,0,1,5.267-4.718.7.7,0,0,1,.559-.041.734.734,0,0,1,.423.383A.782.782,0,0,1,7.87,19.21a11.393,11.393,0,0,0-6.377,9.072H20.788a6.087,6.087,0,0,0,1.594,1.526Zm-.217-10.024h0a14.017,14.017,0,0,0-7.529-2.2.382.382,0,0,1-.075-.007l-.082,0c-.069,0-.139,0-.209,0A8.62,8.62,0,0,1,5.855,8.79,8.62,8.62,0,0,1,14.273,0,8.619,8.619,0,0,1,22.69,8.79,8.861,8.861,0,0,1,18.313,16.5a15.729,15.729,0,0,1,5.369,2.488,6.061,6.061,0,0,0-1.513.794Zm-7.9-18.257A7.121,7.121,0,0,0,7.32,8.79a7.12,7.12,0,0,0,6.953,7.261A7.12,7.12,0,0,0,21.226,8.79,7.121,7.121,0,0,0,14.273,1.528Z" transform="translate(821 580.999)" fill="#fff"/>
    <g id="Dánh_dấu_all" data-name="Dánh dấu all" transform="translate(839.244 599.243)">
      <path id="Subtraction_2" data-name="Subtraction 2" d="M-7641.367-1555.487a5.885,5.885,0,0,1-5.878-5.878,5.884,5.884,0,0,1,5.878-5.877,5.884,5.884,0,0,1,5.879,5.877A5.885,5.885,0,0,1-7641.367-1555.487Zm-2.505-6.443a.354.354,0,0,0-.261.12.427.427,0,0,0,0,.568l2.127,2.328a.351.351,0,0,0,.259.119.354.354,0,0,0,.259-.119l3.381-3.718a.425.425,0,0,0,0-.568.35.35,0,0,0-.26-.12.352.352,0,0,0-.26.12l-3.126,3.426-1.859-2.036A.353.353,0,0,0-7643.872-1561.931Z" transform="translate(7647.244 1567.243)" fill="#fff"/>
    </g>
  </g>
</svg>
