<svg xmlns="http://www.w3.org/2000/svg" width="30" height="30" viewBox="0 0 30 30">
  <path id="ic_người_dùng" data-name="ic người dùng" d="M7.5,8.846a7.218,7.218,0,0,1,7.125-7.308A7.218,7.218,0,0,1,21.75,8.846a7.218,7.218,0,0,1-7.125,7.308A7.218,7.218,0,0,1,7.5,8.846m11.265,7.762A8.88,8.88,0,0,0,23.25,8.846,8.738,8.738,0,0,0,14.625,0,8.738,8.738,0,0,0,6,8.846a8.738,8.738,0,0,0,8.625,8.846c.1,0,.2,0,.3-.008a.361.361,0,0,0,.077.008c6.963,0,12.963,5.07,13.465,10.769H1.53a11.458,11.458,0,0,1,6.534-9.13A.778.778,0,0,0,8.4,18.3a.754.754,0,0,0-.433-.385.734.734,0,0,0-.573.042C2.859,20.284,0,24.531,0,29.231V30H30v-.769c0-5.8-4.894-11.079-11.235-12.623"/>
</svg>
