<?xml version="1.0" encoding="iso-8859-1"?>
<!-- Uploaded to: SVG Repo, www.svgrepo.com, Generator: SVG Repo Mixer Tools -->
<svg fill="#000000" height="800px" width="800px" version="1.1" id="Layer_1" xmlns="http://www.w3.org/2000/svg" xmlns:xlink="http://www.w3.org/1999/xlink" 
	 viewBox="0 0 512 512" xml:space="preserve">
<g>
	<g>
		<g>
			<path d="M59.733,221.867C40.881,221.867,25.6,237.147,25.6,256c0,18.853,15.281,34.133,34.133,34.133S93.867,274.853,93.867,256
				C93.867,237.147,78.586,221.867,59.733,221.867z M59.733,273.067c-9.427,0-17.067-7.64-17.067-17.067
				c0-9.427,7.64-17.067,17.067-17.067S76.8,246.573,76.8,256C76.8,265.427,69.16,273.067,59.733,273.067z"/>
			<path d="M486.4,187.733h-76.8v-25.6c0-9.432-7.635-17.067-17.067-17.067H119.467c-9.432,0-17.067,7.635-17.067,17.067v25.6H25.6
				c-14.134,0-25.6,11.466-25.6,25.6v85.333c0,14.134,11.466,25.6,25.6,25.6h76.8v25.6c0,9.432,7.635,17.067,17.067,17.067h273.067
				c9.432,0,17.067-7.635,17.067-17.067v-25.6h76.8c14.134,0,25.6-11.466,25.6-25.6v-85.333
				C512,199.2,500.534,187.733,486.4,187.733z M494.933,298.667c0,4.708-3.825,8.533-8.533,8.533h-85.333
				c-4.713,0-8.533,3.82-8.533,8.533v34.133H119.467v-34.133c0-4.713-3.82-8.533-8.533-8.533H25.6c-4.708,0-8.533-3.825-8.533-8.533
				v-85.333c0-4.708,3.825-8.533,8.533-8.533h85.333c4.713,0,8.533-3.82,8.533-8.533v-34.133h273.067v34.133
				c0,4.713,3.821,8.533,8.533,8.533H486.4c4.708,0,8.533,3.825,8.533,8.533V298.667z"/>
			<path d="M452.267,221.867c-18.853,0-34.133,15.281-34.133,34.133c0,18.853,15.281,34.133,34.133,34.133
				c18.853,0,34.133-15.281,34.133-34.133C486.4,237.147,471.119,221.867,452.267,221.867z M452.267,273.067
				c-9.427,0-17.067-7.64-17.067-17.067c0-9.427,7.64-17.067,17.067-17.067c9.427,0,17.067,7.64,17.067,17.067
				C469.333,265.427,461.694,273.067,452.267,273.067z"/>
			<path d="M344.703,196.267H167.304c-16.914,0-29.784,15.191-26.993,31.872l10.785,64.72c2.194,13.199,13.612,22.875,26.994,22.875
				h155.819c13.379,0,24.796-9.671,27.002-22.871l10.778-64.73C374.478,211.46,361.611,196.267,344.703,196.267z M354.855,225.323
				l-10.779,64.732c-0.831,4.97-5.131,8.612-10.168,8.612H178.09c-5.037,0-9.333-3.64-10.159-8.61l-10.787-64.729
				c-1.05-6.278,3.793-11.995,10.16-11.995h177.399C351.062,213.333,355.904,219.051,354.855,225.323z"/>
			<path d="M187.733,230.4c-4.719,0-8.533,3.814-8.533,8.533s3.814,8.533,8.533,8.533s8.533-3.814,8.533-8.533
				S192.452,230.4,187.733,230.4z"/>
			<path d="M221.867,230.4c-4.719,0-8.533,3.814-8.533,8.533s3.814,8.533,8.533,8.533s8.533-3.814,8.533-8.533
				S226.586,230.4,221.867,230.4z"/>
			<path d="M256,230.4c-4.719,0-8.533,3.814-8.533,8.533s3.814,8.533,8.533,8.533s8.533-3.814,8.533-8.533S260.719,230.4,256,230.4z
				"/>
			<path d="M290.133,230.4c-4.719,0-8.533,3.814-8.533,8.533s3.814,8.533,8.533,8.533s8.533-3.814,8.533-8.533
				S294.852,230.4,290.133,230.4z"/>
			<path d="M324.267,230.4c-4.719,0-8.533,3.814-8.533,8.533s3.814,8.533,8.533,8.533c4.719,0,8.533-3.814,8.533-8.533
				S328.986,230.4,324.267,230.4z"/>
			<path d="M204.8,264.533c-4.719,0-8.533,3.814-8.533,8.533s3.814,8.533,8.533,8.533s8.533-3.814,8.533-8.533
				S209.519,264.533,204.8,264.533z"/>
			<path d="M238.933,264.533c-4.719,0-8.533,3.814-8.533,8.533s3.814,8.533,8.533,8.533s8.533-3.814,8.533-8.533
				S243.652,264.533,238.933,264.533z"/>
			<path d="M273.067,264.533c-4.719,0-8.533,3.814-8.533,8.533s3.814,8.533,8.533,8.533s8.533-3.814,8.533-8.533
				S277.786,264.533,273.067,264.533z"/>
			<path d="M307.2,264.533c-4.719,0-8.533,3.814-8.533,8.533s3.814,8.533,8.533,8.533s8.533-3.814,8.533-8.533
				S311.919,264.533,307.2,264.533z"/>
		</g>
	</g>
</g>
</svg>