<svg xmlns="http://www.w3.org/2000/svg" width="40" height="40" viewBox="0 0 40 40">
  <path id="web" d="M84.2,63.9a20,20,0,1,0,20,20A20.023,20.023,0,0,0,84.2,63.9Zm15.912,28.637H93.735a35.749,35.749,0,0,0,.983-7.574h7.556A18.032,18.032,0,0,1,100.112,92.537ZM66.13,84.963h7.556a35.713,35.713,0,0,0,.983,7.574H68.293A17.9,17.9,0,0,1,66.13,84.963Zm2.163-9.705h6.376a35.842,35.842,0,0,0-.988,7.811H66.117A17.935,17.935,0,0,1,68.293,75.258Zm16.738-1.89V65.879c2.493.523,4.714,3.382,6.144,7.484H85.031Zm6.725,1.89a33.8,33.8,0,0,1,1.077,7.811h-7.8V75.258Zm-8.619-9.316v7.426H77.229C78.615,69.4,80.737,66.59,83.137,65.942Zm0,9.316v7.811H75.572a33.328,33.328,0,0,1,1.077-7.811Zm-7.556,9.705h7.556v7.574H76.649A33.113,33.113,0,0,1,75.581,84.963Zm7.556,9.468v7.426c-2.395-.652-4.522-3.454-5.907-7.426Zm1.895,7.484V94.432h6.144C89.745,98.534,87.524,101.393,85.031,101.916Zm0-9.379V84.963h7.793a33.613,33.613,0,0,1-1.068,7.574Zm9.692-9.468a35.843,35.843,0,0,0-.987-7.811h6.376a17.918,17.918,0,0,1,2.176,7.811Zm4.191-9.7H93.2A18.472,18.472,0,0,0,89.557,66.6,18.136,18.136,0,0,1,98.914,73.368ZM78.843,66.6A18.5,18.5,0,0,0,75.2,73.368H69.486A18.154,18.154,0,0,1,78.843,66.6ZM69.486,94.432H75.2a18.472,18.472,0,0,0,3.642,6.765A18.179,18.179,0,0,1,69.486,94.432ZM89.562,101.2A18.5,18.5,0,0,0,93.2,94.432h5.715a18.2,18.2,0,0,1-9.357,6.765Z" transform="translate(-64.2 -63.9)" fill="#fff"/>
</svg>
